G04 #@! TF.GenerationSoftware,KiCad,Pcbnew,6.0.0-rc1-unknown-b491065~66~ubuntu16.04.1*
G04 #@! TF.CreationDate,2019-01-13T12:48:19+01:00
G04 #@! TF.ProjectId,esp12on,65737031-326f-46e2-9e6b-696361645f70,rev?*
G04 #@! TF.SameCoordinates,Original*
G04 #@! TF.FileFunction,Legend,Top*
G04 #@! TF.FilePolarity,Positive*
%FSLAX46Y46*%
G04 Gerber Fmt 4.6, Leading zero omitted, Abs format (unit mm)*
G04 Created by KiCad (PCBNEW 6.0.0-rc1-unknown-b491065~66~ubuntu16.04.1) date Вс 13 янв 2019 12:48:19*
%MOMM*%
%LPD*%
G04 APERTURE LIST*
%ADD10C,0.150000*%
%ADD11C,0.120000*%
%ADD12C,0.381000*%
%ADD13C,0.127000*%
G04 APERTURE END LIST*
D10*
X96779523Y-129602380D02*
X96208095Y-129602380D01*
X96493809Y-129602380D02*
X96493809Y-128602380D01*
X96398571Y-128745238D01*
X96303333Y-128840476D01*
X96208095Y-128888095D01*
X97160476Y-128697619D02*
X97208095Y-128650000D01*
X97303333Y-128602380D01*
X97541428Y-128602380D01*
X97636666Y-128650000D01*
X97684285Y-128697619D01*
X97731904Y-128792857D01*
X97731904Y-128888095D01*
X97684285Y-129030952D01*
X97112857Y-129602380D01*
X97731904Y-129602380D01*
X141098095Y-128650000D02*
X141002857Y-128602380D01*
X140860000Y-128602380D01*
X140717142Y-128650000D01*
X140621904Y-128745238D01*
X140574285Y-128840476D01*
X140526666Y-129030952D01*
X140526666Y-129173809D01*
X140574285Y-129364285D01*
X140621904Y-129459523D01*
X140717142Y-129554761D01*
X140860000Y-129602380D01*
X140955238Y-129602380D01*
X141098095Y-129554761D01*
X141145714Y-129507142D01*
X141145714Y-129173809D01*
X140955238Y-129173809D01*
X141574285Y-129602380D02*
X141574285Y-128602380D01*
X142145714Y-129602380D01*
X142145714Y-128602380D01*
X142621904Y-129602380D02*
X142621904Y-128602380D01*
X142860000Y-128602380D01*
X143002857Y-128650000D01*
X143098095Y-128745238D01*
X143145714Y-128840476D01*
X143193333Y-129030952D01*
X143193333Y-129173809D01*
X143145714Y-129364285D01*
X143098095Y-129459523D01*
X143002857Y-129554761D01*
X142860000Y-129602380D01*
X142621904Y-129602380D01*
X101892380Y-128632380D02*
X101987619Y-128632380D01*
X102082857Y-128680000D01*
X102130476Y-128727619D01*
X102178095Y-128822857D01*
X102225714Y-129013333D01*
X102225714Y-129251428D01*
X102178095Y-129441904D01*
X102130476Y-129537142D01*
X102082857Y-129584761D01*
X101987619Y-129632380D01*
X101892380Y-129632380D01*
X101797142Y-129584761D01*
X101749523Y-129537142D01*
X101701904Y-129441904D01*
X101654285Y-129251428D01*
X101654285Y-129013333D01*
X101701904Y-128822857D01*
X101749523Y-128727619D01*
X101797142Y-128680000D01*
X101892380Y-128632380D01*
X94209523Y-129632380D02*
X93638095Y-129632380D01*
X93923809Y-129632380D02*
X93923809Y-128632380D01*
X93828571Y-128775238D01*
X93733333Y-128870476D01*
X93638095Y-128918095D01*
X95066666Y-128632380D02*
X94876190Y-128632380D01*
X94780952Y-128680000D01*
X94733333Y-128727619D01*
X94638095Y-128870476D01*
X94590476Y-129060952D01*
X94590476Y-129441904D01*
X94638095Y-129537142D01*
X94685714Y-129584761D01*
X94780952Y-129632380D01*
X94971428Y-129632380D01*
X95066666Y-129584761D01*
X95114285Y-129537142D01*
X95161904Y-129441904D01*
X95161904Y-129203809D01*
X95114285Y-129108571D01*
X95066666Y-129060952D01*
X94971428Y-129013333D01*
X94780952Y-129013333D01*
X94685714Y-129060952D01*
X94638095Y-129108571D01*
X94590476Y-129203809D01*
X149144285Y-128727619D02*
X149191904Y-128680000D01*
X149287142Y-128632380D01*
X149525238Y-128632380D01*
X149620476Y-128680000D01*
X149668095Y-128727619D01*
X149715714Y-128822857D01*
X149715714Y-128918095D01*
X149668095Y-129060952D01*
X149096666Y-129632380D01*
X149715714Y-129632380D01*
X146779523Y-129602380D02*
X146208095Y-129602380D01*
X146493809Y-129602380D02*
X146493809Y-128602380D01*
X146398571Y-128745238D01*
X146303333Y-128840476D01*
X146208095Y-128888095D01*
X147160476Y-128697619D02*
X147208095Y-128650000D01*
X147303333Y-128602380D01*
X147541428Y-128602380D01*
X147636666Y-128650000D01*
X147684285Y-128697619D01*
X147731904Y-128792857D01*
X147731904Y-128888095D01*
X147684285Y-129030952D01*
X147112857Y-129602380D01*
X147731904Y-129602380D01*
X98428571Y-143907142D02*
X99571428Y-143907142D01*
X99000000Y-144478571D02*
X99000000Y-143335714D01*
X98428571Y-147907142D02*
X99571428Y-147907142D01*
X133988095Y-147500000D02*
X133892857Y-147452380D01*
X133750000Y-147452380D01*
X133607142Y-147500000D01*
X133511904Y-147595238D01*
X133464285Y-147690476D01*
X133416666Y-147880952D01*
X133416666Y-148023809D01*
X133464285Y-148214285D01*
X133511904Y-148309523D01*
X133607142Y-148404761D01*
X133750000Y-148452380D01*
X133845238Y-148452380D01*
X133988095Y-148404761D01*
X134035714Y-148357142D01*
X134035714Y-148023809D01*
X133845238Y-148023809D01*
X134464285Y-148452380D02*
X134464285Y-147452380D01*
X135035714Y-148452380D01*
X135035714Y-147452380D01*
X135511904Y-148452380D02*
X135511904Y-147452380D01*
X135750000Y-147452380D01*
X135892857Y-147500000D01*
X135988095Y-147595238D01*
X136035714Y-147690476D01*
X136083333Y-147880952D01*
X136083333Y-148023809D01*
X136035714Y-148214285D01*
X135988095Y-148309523D01*
X135892857Y-148404761D01*
X135750000Y-148452380D01*
X135511904Y-148452380D01*
X134083333Y-143452380D02*
X133750000Y-142976190D01*
X133511904Y-143452380D02*
X133511904Y-142452380D01*
X133892857Y-142452380D01*
X133988095Y-142500000D01*
X134035714Y-142547619D01*
X134083333Y-142642857D01*
X134083333Y-142785714D01*
X134035714Y-142880952D01*
X133988095Y-142928571D01*
X133892857Y-142976190D01*
X133511904Y-142976190D01*
X134416666Y-142452380D02*
X135083333Y-143452380D01*
X135083333Y-142452380D02*
X134416666Y-143452380D01*
X135464285Y-143452380D02*
X135464285Y-142452380D01*
X135702380Y-142452380D01*
X135845238Y-142500000D01*
X135940476Y-142595238D01*
X135988095Y-142690476D01*
X136035714Y-142880952D01*
X136035714Y-143023809D01*
X135988095Y-143214285D01*
X135940476Y-143309523D01*
X135845238Y-143404761D01*
X135702380Y-143452380D01*
X135464285Y-143452380D01*
X133416666Y-139952380D02*
X133750000Y-140952380D01*
X134083333Y-139952380D01*
X134988095Y-140857142D02*
X134940476Y-140904761D01*
X134797619Y-140952380D01*
X134702380Y-140952380D01*
X134559523Y-140904761D01*
X134464285Y-140809523D01*
X134416666Y-140714285D01*
X134369047Y-140523809D01*
X134369047Y-140380952D01*
X134416666Y-140190476D01*
X134464285Y-140095238D01*
X134559523Y-140000000D01*
X134702380Y-139952380D01*
X134797619Y-139952380D01*
X134940476Y-140000000D01*
X134988095Y-140047619D01*
X135988095Y-140857142D02*
X135940476Y-140904761D01*
X135797619Y-140952380D01*
X135702380Y-140952380D01*
X135559523Y-140904761D01*
X135464285Y-140809523D01*
X135416666Y-140714285D01*
X135369047Y-140523809D01*
X135369047Y-140380952D01*
X135416666Y-140190476D01*
X135464285Y-140095238D01*
X135559523Y-140000000D01*
X135702380Y-139952380D01*
X135797619Y-139952380D01*
X135940476Y-140000000D01*
X135988095Y-140047619D01*
X134202380Y-138202380D02*
X133869047Y-137726190D01*
X133630952Y-138202380D02*
X133630952Y-137202380D01*
X134011904Y-137202380D01*
X134107142Y-137250000D01*
X134154761Y-137297619D01*
X134202380Y-137392857D01*
X134202380Y-137535714D01*
X134154761Y-137630952D01*
X134107142Y-137678571D01*
X134011904Y-137726190D01*
X133630952Y-137726190D01*
X134488095Y-137202380D02*
X135059523Y-137202380D01*
X134773809Y-138202380D02*
X134773809Y-137202380D01*
X135345238Y-138154761D02*
X135488095Y-138202380D01*
X135726190Y-138202380D01*
X135821428Y-138154761D01*
X135869047Y-138107142D01*
X135916666Y-138011904D01*
X135916666Y-137916666D01*
X135869047Y-137821428D01*
X135821428Y-137773809D01*
X135726190Y-137726190D01*
X135535714Y-137678571D01*
X135440476Y-137630952D01*
X135392857Y-137583333D01*
X135345238Y-137488095D01*
X135345238Y-137392857D01*
X135392857Y-137297619D01*
X135440476Y-137250000D01*
X135535714Y-137202380D01*
X135773809Y-137202380D01*
X135916666Y-137250000D01*
X136857142Y-130702380D02*
X136857142Y-129702380D01*
X137095238Y-129702380D01*
X137238095Y-129750000D01*
X137333333Y-129845238D01*
X137380952Y-129940476D01*
X137428571Y-130130952D01*
X137428571Y-130273809D01*
X137380952Y-130464285D01*
X137333333Y-130559523D01*
X137238095Y-130654761D01*
X137095238Y-130702380D01*
X136857142Y-130702380D01*
X137714285Y-129702380D02*
X138285714Y-129702380D01*
X138000000Y-130702380D02*
X138000000Y-129702380D01*
X139190476Y-130702380D02*
X138857142Y-130226190D01*
X138619047Y-130702380D02*
X138619047Y-129702380D01*
X139000000Y-129702380D01*
X139095238Y-129750000D01*
X139142857Y-129797619D01*
X139190476Y-129892857D01*
X139190476Y-130035714D01*
X139142857Y-130130952D01*
X139095238Y-130178571D01*
X139000000Y-130226190D01*
X138619047Y-130226190D01*
X136738095Y-127952380D02*
X137309523Y-127952380D01*
X137023809Y-128952380D02*
X137023809Y-127952380D01*
X137547619Y-127952380D02*
X138214285Y-128952380D01*
X138214285Y-127952380D02*
X137547619Y-128952380D01*
X138595238Y-128952380D02*
X138595238Y-127952380D01*
X138833333Y-127952380D01*
X138976190Y-128000000D01*
X139071428Y-128095238D01*
X139119047Y-128190476D01*
X139166666Y-128380952D01*
X139166666Y-128523809D01*
X139119047Y-128714285D01*
X139071428Y-128809523D01*
X138976190Y-128904761D01*
X138833333Y-128952380D01*
X138595238Y-128952380D01*
X100027380Y-134833333D02*
X99027380Y-134833333D01*
X99027380Y-134452380D01*
X99075000Y-134357142D01*
X99122619Y-134309523D01*
X99217857Y-134261904D01*
X99360714Y-134261904D01*
X99455952Y-134309523D01*
X99503571Y-134357142D01*
X99551190Y-134452380D01*
X99551190Y-134833333D01*
X99027380Y-133928571D02*
X100027380Y-133690476D01*
X99313095Y-133500000D01*
X100027380Y-133309523D01*
X99027380Y-133071428D01*
X100027380Y-132119047D02*
X99551190Y-132452380D01*
X100027380Y-132690476D02*
X99027380Y-132690476D01*
X99027380Y-132309523D01*
X99075000Y-132214285D01*
X99122619Y-132166666D01*
X99217857Y-132119047D01*
X99360714Y-132119047D01*
X99455952Y-132166666D01*
X99503571Y-132214285D01*
X99551190Y-132309523D01*
X99551190Y-132690476D01*
X101677380Y-134142857D02*
X101677380Y-134619047D01*
X100677380Y-134619047D01*
X101153571Y-133809523D02*
X101153571Y-133476190D01*
X101677380Y-133333333D02*
X101677380Y-133809523D01*
X100677380Y-133809523D01*
X100677380Y-133333333D01*
X101677380Y-132904761D02*
X100677380Y-132904761D01*
X100677380Y-132666666D01*
X100725000Y-132523809D01*
X100820238Y-132428571D01*
X100915476Y-132380952D01*
X101105952Y-132333333D01*
X101248809Y-132333333D01*
X101439285Y-132380952D01*
X101534523Y-132428571D01*
X101629761Y-132523809D01*
X101677380Y-132666666D01*
X101677380Y-132904761D01*
X100027380Y-139783333D02*
X99027380Y-139783333D01*
X99027380Y-139402380D01*
X99075000Y-139307142D01*
X99122619Y-139259523D01*
X99217857Y-139211904D01*
X99360714Y-139211904D01*
X99455952Y-139259523D01*
X99503571Y-139307142D01*
X99551190Y-139402380D01*
X99551190Y-139783333D01*
X99027380Y-138878571D02*
X100027380Y-138640476D01*
X99313095Y-138450000D01*
X100027380Y-138259523D01*
X99027380Y-138021428D01*
X100027380Y-137069047D02*
X99551190Y-137402380D01*
X100027380Y-137640476D02*
X99027380Y-137640476D01*
X99027380Y-137259523D01*
X99075000Y-137164285D01*
X99122619Y-137116666D01*
X99217857Y-137069047D01*
X99360714Y-137069047D01*
X99455952Y-137116666D01*
X99503571Y-137164285D01*
X99551190Y-137259523D01*
X99551190Y-137640476D01*
X101629761Y-139307142D02*
X101677380Y-139164285D01*
X101677380Y-138926190D01*
X101629761Y-138830952D01*
X101582142Y-138783333D01*
X101486904Y-138735714D01*
X101391666Y-138735714D01*
X101296428Y-138783333D01*
X101248809Y-138830952D01*
X101201190Y-138926190D01*
X101153571Y-139116666D01*
X101105952Y-139211904D01*
X101058333Y-139259523D01*
X100963095Y-139307142D01*
X100867857Y-139307142D01*
X100772619Y-139259523D01*
X100725000Y-139211904D01*
X100677380Y-139116666D01*
X100677380Y-138878571D01*
X100725000Y-138735714D01*
X100677380Y-138402380D02*
X101677380Y-138164285D01*
X100963095Y-137973809D01*
X101677380Y-137783333D01*
X100677380Y-137545238D01*
X97769047Y-132071428D02*
X98530952Y-132071428D01*
X97769047Y-134521428D02*
X98530952Y-134521428D01*
X98150000Y-134902380D02*
X98150000Y-134140476D01*
X97769047Y-139621428D02*
X98530952Y-139621428D01*
X98150000Y-140002380D02*
X98150000Y-139240476D01*
X97769047Y-137121428D02*
X98530952Y-137121428D01*
X108947142Y-131352380D02*
X108947142Y-130352380D01*
X109185238Y-130352380D01*
X109328095Y-130400000D01*
X109423333Y-130495238D01*
X109470952Y-130590476D01*
X109518571Y-130780952D01*
X109518571Y-130923809D01*
X109470952Y-131114285D01*
X109423333Y-131209523D01*
X109328095Y-131304761D01*
X109185238Y-131352380D01*
X108947142Y-131352380D01*
X109899523Y-131304761D02*
X110042380Y-131352380D01*
X110280476Y-131352380D01*
X110375714Y-131304761D01*
X110423333Y-131257142D01*
X110470952Y-131161904D01*
X110470952Y-131066666D01*
X110423333Y-130971428D01*
X110375714Y-130923809D01*
X110280476Y-130876190D01*
X110090000Y-130828571D01*
X109994761Y-130780952D01*
X109947142Y-130733333D01*
X109899523Y-130638095D01*
X109899523Y-130542857D01*
X109947142Y-130447619D01*
X109994761Y-130400000D01*
X110090000Y-130352380D01*
X110328095Y-130352380D01*
X110470952Y-130400000D01*
X111423333Y-131352380D02*
X110851904Y-131352380D01*
X111137619Y-131352380D02*
X111137619Y-130352380D01*
X111042380Y-130495238D01*
X110947142Y-130590476D01*
X110851904Y-130638095D01*
X111994761Y-130780952D02*
X111899523Y-130733333D01*
X111851904Y-130685714D01*
X111804285Y-130590476D01*
X111804285Y-130542857D01*
X111851904Y-130447619D01*
X111899523Y-130400000D01*
X111994761Y-130352380D01*
X112185238Y-130352380D01*
X112280476Y-130400000D01*
X112328095Y-130447619D01*
X112375714Y-130542857D01*
X112375714Y-130590476D01*
X112328095Y-130685714D01*
X112280476Y-130733333D01*
X112185238Y-130780952D01*
X111994761Y-130780952D01*
X111899523Y-130828571D01*
X111851904Y-130876190D01*
X111804285Y-130971428D01*
X111804285Y-131161904D01*
X111851904Y-131257142D01*
X111899523Y-131304761D01*
X111994761Y-131352380D01*
X112185238Y-131352380D01*
X112280476Y-131304761D01*
X112328095Y-131257142D01*
X112375714Y-131161904D01*
X112375714Y-130971428D01*
X112328095Y-130876190D01*
X112280476Y-130828571D01*
X112185238Y-130780952D01*
X113137619Y-130828571D02*
X113280476Y-130876190D01*
X113328095Y-130923809D01*
X113375714Y-131019047D01*
X113375714Y-131161904D01*
X113328095Y-131257142D01*
X113280476Y-131304761D01*
X113185238Y-131352380D01*
X112804285Y-131352380D01*
X112804285Y-130352380D01*
X113137619Y-130352380D01*
X113232857Y-130400000D01*
X113280476Y-130447619D01*
X113328095Y-130542857D01*
X113328095Y-130638095D01*
X113280476Y-130733333D01*
X113232857Y-130780952D01*
X113137619Y-130828571D01*
X112804285Y-130828571D01*
X113756666Y-130447619D02*
X113804285Y-130400000D01*
X113899523Y-130352380D01*
X114137619Y-130352380D01*
X114232857Y-130400000D01*
X114280476Y-130447619D01*
X114328095Y-130542857D01*
X114328095Y-130638095D01*
X114280476Y-130780952D01*
X113709047Y-131352380D01*
X114328095Y-131352380D01*
X114947142Y-130352380D02*
X115042380Y-130352380D01*
X115137619Y-130400000D01*
X115185238Y-130447619D01*
X115232857Y-130542857D01*
X115280476Y-130733333D01*
X115280476Y-130971428D01*
X115232857Y-131161904D01*
X115185238Y-131257142D01*
X115137619Y-131304761D01*
X115042380Y-131352380D01*
X114947142Y-131352380D01*
X114851904Y-131304761D01*
X114804285Y-131257142D01*
X114756666Y-131161904D01*
X114709047Y-130971428D01*
X114709047Y-130733333D01*
X114756666Y-130542857D01*
X114804285Y-130447619D01*
X114851904Y-130400000D01*
X114947142Y-130352380D01*
X109169047Y-129121428D02*
X109930952Y-129121428D01*
X109550000Y-129502380D02*
X109550000Y-128740476D01*
X114269047Y-129021428D02*
X115030952Y-129021428D01*
X111888095Y-129602380D02*
X111888095Y-128602380D01*
X112126190Y-128602380D01*
X112269047Y-128650000D01*
X112364285Y-128745238D01*
X112411904Y-128840476D01*
X112459523Y-129030952D01*
X112459523Y-129173809D01*
X112411904Y-129364285D01*
X112364285Y-129459523D01*
X112269047Y-129554761D01*
X112126190Y-129602380D01*
X111888095Y-129602380D01*
X107271428Y-131245714D02*
X107271428Y-130483809D01*
X107652380Y-130864761D02*
X106890476Y-130864761D01*
X106652380Y-129531428D02*
X106652380Y-130007619D01*
X107128571Y-130055238D01*
X107080952Y-130007619D01*
X107033333Y-129912380D01*
X107033333Y-129674285D01*
X107080952Y-129579047D01*
X107128571Y-129531428D01*
X107223809Y-129483809D01*
X107461904Y-129483809D01*
X107557142Y-129531428D01*
X107604761Y-129579047D01*
X107652380Y-129674285D01*
X107652380Y-129912380D01*
X107604761Y-130007619D01*
X107557142Y-130055238D01*
X106652380Y-129198095D02*
X107652380Y-128864761D01*
X106652380Y-128531428D01*
X154720476Y-128965714D02*
X154720476Y-129632380D01*
X154482380Y-128584761D02*
X154244285Y-129299047D01*
X154863333Y-129299047D01*
X148428571Y-143907142D02*
X149571428Y-143907142D01*
X149000000Y-144478571D02*
X149000000Y-143335714D01*
X148428571Y-147907142D02*
X149571428Y-147907142D01*
X183988095Y-147500000D02*
X183892857Y-147452380D01*
X183750000Y-147452380D01*
X183607142Y-147500000D01*
X183511904Y-147595238D01*
X183464285Y-147690476D01*
X183416666Y-147880952D01*
X183416666Y-148023809D01*
X183464285Y-148214285D01*
X183511904Y-148309523D01*
X183607142Y-148404761D01*
X183750000Y-148452380D01*
X183845238Y-148452380D01*
X183988095Y-148404761D01*
X184035714Y-148357142D01*
X184035714Y-148023809D01*
X183845238Y-148023809D01*
X184464285Y-148452380D02*
X184464285Y-147452380D01*
X185035714Y-148452380D01*
X185035714Y-147452380D01*
X185511904Y-148452380D02*
X185511904Y-147452380D01*
X185750000Y-147452380D01*
X185892857Y-147500000D01*
X185988095Y-147595238D01*
X186035714Y-147690476D01*
X186083333Y-147880952D01*
X186083333Y-148023809D01*
X186035714Y-148214285D01*
X185988095Y-148309523D01*
X185892857Y-148404761D01*
X185750000Y-148452380D01*
X185511904Y-148452380D01*
X184083333Y-143452380D02*
X183750000Y-142976190D01*
X183511904Y-143452380D02*
X183511904Y-142452380D01*
X183892857Y-142452380D01*
X183988095Y-142500000D01*
X184035714Y-142547619D01*
X184083333Y-142642857D01*
X184083333Y-142785714D01*
X184035714Y-142880952D01*
X183988095Y-142928571D01*
X183892857Y-142976190D01*
X183511904Y-142976190D01*
X184416666Y-142452380D02*
X185083333Y-143452380D01*
X185083333Y-142452380D02*
X184416666Y-143452380D01*
X185464285Y-143452380D02*
X185464285Y-142452380D01*
X185702380Y-142452380D01*
X185845238Y-142500000D01*
X185940476Y-142595238D01*
X185988095Y-142690476D01*
X186035714Y-142880952D01*
X186035714Y-143023809D01*
X185988095Y-143214285D01*
X185940476Y-143309523D01*
X185845238Y-143404761D01*
X185702380Y-143452380D01*
X185464285Y-143452380D01*
X183416666Y-139952380D02*
X183750000Y-140952380D01*
X184083333Y-139952380D01*
X184988095Y-140857142D02*
X184940476Y-140904761D01*
X184797619Y-140952380D01*
X184702380Y-140952380D01*
X184559523Y-140904761D01*
X184464285Y-140809523D01*
X184416666Y-140714285D01*
X184369047Y-140523809D01*
X184369047Y-140380952D01*
X184416666Y-140190476D01*
X184464285Y-140095238D01*
X184559523Y-140000000D01*
X184702380Y-139952380D01*
X184797619Y-139952380D01*
X184940476Y-140000000D01*
X184988095Y-140047619D01*
X185988095Y-140857142D02*
X185940476Y-140904761D01*
X185797619Y-140952380D01*
X185702380Y-140952380D01*
X185559523Y-140904761D01*
X185464285Y-140809523D01*
X185416666Y-140714285D01*
X185369047Y-140523809D01*
X185369047Y-140380952D01*
X185416666Y-140190476D01*
X185464285Y-140095238D01*
X185559523Y-140000000D01*
X185702380Y-139952380D01*
X185797619Y-139952380D01*
X185940476Y-140000000D01*
X185988095Y-140047619D01*
X184202380Y-138202380D02*
X183869047Y-137726190D01*
X183630952Y-138202380D02*
X183630952Y-137202380D01*
X184011904Y-137202380D01*
X184107142Y-137250000D01*
X184154761Y-137297619D01*
X184202380Y-137392857D01*
X184202380Y-137535714D01*
X184154761Y-137630952D01*
X184107142Y-137678571D01*
X184011904Y-137726190D01*
X183630952Y-137726190D01*
X184488095Y-137202380D02*
X185059523Y-137202380D01*
X184773809Y-138202380D02*
X184773809Y-137202380D01*
X185345238Y-138154761D02*
X185488095Y-138202380D01*
X185726190Y-138202380D01*
X185821428Y-138154761D01*
X185869047Y-138107142D01*
X185916666Y-138011904D01*
X185916666Y-137916666D01*
X185869047Y-137821428D01*
X185821428Y-137773809D01*
X185726190Y-137726190D01*
X185535714Y-137678571D01*
X185440476Y-137630952D01*
X185392857Y-137583333D01*
X185345238Y-137488095D01*
X185345238Y-137392857D01*
X185392857Y-137297619D01*
X185440476Y-137250000D01*
X185535714Y-137202380D01*
X185773809Y-137202380D01*
X185916666Y-137250000D01*
X186857142Y-130702380D02*
X186857142Y-129702380D01*
X187095238Y-129702380D01*
X187238095Y-129750000D01*
X187333333Y-129845238D01*
X187380952Y-129940476D01*
X187428571Y-130130952D01*
X187428571Y-130273809D01*
X187380952Y-130464285D01*
X187333333Y-130559523D01*
X187238095Y-130654761D01*
X187095238Y-130702380D01*
X186857142Y-130702380D01*
X187714285Y-129702380D02*
X188285714Y-129702380D01*
X188000000Y-130702380D02*
X188000000Y-129702380D01*
X189190476Y-130702380D02*
X188857142Y-130226190D01*
X188619047Y-130702380D02*
X188619047Y-129702380D01*
X189000000Y-129702380D01*
X189095238Y-129750000D01*
X189142857Y-129797619D01*
X189190476Y-129892857D01*
X189190476Y-130035714D01*
X189142857Y-130130952D01*
X189095238Y-130178571D01*
X189000000Y-130226190D01*
X188619047Y-130226190D01*
X186738095Y-127952380D02*
X187309523Y-127952380D01*
X187023809Y-128952380D02*
X187023809Y-127952380D01*
X187547619Y-127952380D02*
X188214285Y-128952380D01*
X188214285Y-127952380D02*
X187547619Y-128952380D01*
X188595238Y-128952380D02*
X188595238Y-127952380D01*
X188833333Y-127952380D01*
X188976190Y-128000000D01*
X189071428Y-128095238D01*
X189119047Y-128190476D01*
X189166666Y-128380952D01*
X189166666Y-128523809D01*
X189119047Y-128714285D01*
X189071428Y-128809523D01*
X188976190Y-128904761D01*
X188833333Y-128952380D01*
X188595238Y-128952380D01*
X150027380Y-134833333D02*
X149027380Y-134833333D01*
X149027380Y-134452380D01*
X149075000Y-134357142D01*
X149122619Y-134309523D01*
X149217857Y-134261904D01*
X149360714Y-134261904D01*
X149455952Y-134309523D01*
X149503571Y-134357142D01*
X149551190Y-134452380D01*
X149551190Y-134833333D01*
X149027380Y-133928571D02*
X150027380Y-133690476D01*
X149313095Y-133500000D01*
X150027380Y-133309523D01*
X149027380Y-133071428D01*
X150027380Y-132119047D02*
X149551190Y-132452380D01*
X150027380Y-132690476D02*
X149027380Y-132690476D01*
X149027380Y-132309523D01*
X149075000Y-132214285D01*
X149122619Y-132166666D01*
X149217857Y-132119047D01*
X149360714Y-132119047D01*
X149455952Y-132166666D01*
X149503571Y-132214285D01*
X149551190Y-132309523D01*
X149551190Y-132690476D01*
X151677380Y-134142857D02*
X151677380Y-134619047D01*
X150677380Y-134619047D01*
X151153571Y-133809523D02*
X151153571Y-133476190D01*
X151677380Y-133333333D02*
X151677380Y-133809523D01*
X150677380Y-133809523D01*
X150677380Y-133333333D01*
X151677380Y-132904761D02*
X150677380Y-132904761D01*
X150677380Y-132666666D01*
X150725000Y-132523809D01*
X150820238Y-132428571D01*
X150915476Y-132380952D01*
X151105952Y-132333333D01*
X151248809Y-132333333D01*
X151439285Y-132380952D01*
X151534523Y-132428571D01*
X151629761Y-132523809D01*
X151677380Y-132666666D01*
X151677380Y-132904761D01*
X150027380Y-139783333D02*
X149027380Y-139783333D01*
X149027380Y-139402380D01*
X149075000Y-139307142D01*
X149122619Y-139259523D01*
X149217857Y-139211904D01*
X149360714Y-139211904D01*
X149455952Y-139259523D01*
X149503571Y-139307142D01*
X149551190Y-139402380D01*
X149551190Y-139783333D01*
X149027380Y-138878571D02*
X150027380Y-138640476D01*
X149313095Y-138450000D01*
X150027380Y-138259523D01*
X149027380Y-138021428D01*
X150027380Y-137069047D02*
X149551190Y-137402380D01*
X150027380Y-137640476D02*
X149027380Y-137640476D01*
X149027380Y-137259523D01*
X149075000Y-137164285D01*
X149122619Y-137116666D01*
X149217857Y-137069047D01*
X149360714Y-137069047D01*
X149455952Y-137116666D01*
X149503571Y-137164285D01*
X149551190Y-137259523D01*
X149551190Y-137640476D01*
X151629761Y-139307142D02*
X151677380Y-139164285D01*
X151677380Y-138926190D01*
X151629761Y-138830952D01*
X151582142Y-138783333D01*
X151486904Y-138735714D01*
X151391666Y-138735714D01*
X151296428Y-138783333D01*
X151248809Y-138830952D01*
X151201190Y-138926190D01*
X151153571Y-139116666D01*
X151105952Y-139211904D01*
X151058333Y-139259523D01*
X150963095Y-139307142D01*
X150867857Y-139307142D01*
X150772619Y-139259523D01*
X150725000Y-139211904D01*
X150677380Y-139116666D01*
X150677380Y-138878571D01*
X150725000Y-138735714D01*
X150677380Y-138402380D02*
X151677380Y-138164285D01*
X150963095Y-137973809D01*
X151677380Y-137783333D01*
X150677380Y-137545238D01*
X147769047Y-132071428D02*
X148530952Y-132071428D01*
X147769047Y-134521428D02*
X148530952Y-134521428D01*
X148150000Y-134902380D02*
X148150000Y-134140476D01*
X147769047Y-139621428D02*
X148530952Y-139621428D01*
X148150000Y-140002380D02*
X148150000Y-139240476D01*
X147769047Y-137121428D02*
X148530952Y-137121428D01*
X158947142Y-131352380D02*
X158947142Y-130352380D01*
X159185238Y-130352380D01*
X159328095Y-130400000D01*
X159423333Y-130495238D01*
X159470952Y-130590476D01*
X159518571Y-130780952D01*
X159518571Y-130923809D01*
X159470952Y-131114285D01*
X159423333Y-131209523D01*
X159328095Y-131304761D01*
X159185238Y-131352380D01*
X158947142Y-131352380D01*
X159899523Y-131304761D02*
X160042380Y-131352380D01*
X160280476Y-131352380D01*
X160375714Y-131304761D01*
X160423333Y-131257142D01*
X160470952Y-131161904D01*
X160470952Y-131066666D01*
X160423333Y-130971428D01*
X160375714Y-130923809D01*
X160280476Y-130876190D01*
X160090000Y-130828571D01*
X159994761Y-130780952D01*
X159947142Y-130733333D01*
X159899523Y-130638095D01*
X159899523Y-130542857D01*
X159947142Y-130447619D01*
X159994761Y-130400000D01*
X160090000Y-130352380D01*
X160328095Y-130352380D01*
X160470952Y-130400000D01*
X161423333Y-131352380D02*
X160851904Y-131352380D01*
X161137619Y-131352380D02*
X161137619Y-130352380D01*
X161042380Y-130495238D01*
X160947142Y-130590476D01*
X160851904Y-130638095D01*
X161994761Y-130780952D02*
X161899523Y-130733333D01*
X161851904Y-130685714D01*
X161804285Y-130590476D01*
X161804285Y-130542857D01*
X161851904Y-130447619D01*
X161899523Y-130400000D01*
X161994761Y-130352380D01*
X162185238Y-130352380D01*
X162280476Y-130400000D01*
X162328095Y-130447619D01*
X162375714Y-130542857D01*
X162375714Y-130590476D01*
X162328095Y-130685714D01*
X162280476Y-130733333D01*
X162185238Y-130780952D01*
X161994761Y-130780952D01*
X161899523Y-130828571D01*
X161851904Y-130876190D01*
X161804285Y-130971428D01*
X161804285Y-131161904D01*
X161851904Y-131257142D01*
X161899523Y-131304761D01*
X161994761Y-131352380D01*
X162185238Y-131352380D01*
X162280476Y-131304761D01*
X162328095Y-131257142D01*
X162375714Y-131161904D01*
X162375714Y-130971428D01*
X162328095Y-130876190D01*
X162280476Y-130828571D01*
X162185238Y-130780952D01*
X163137619Y-130828571D02*
X163280476Y-130876190D01*
X163328095Y-130923809D01*
X163375714Y-131019047D01*
X163375714Y-131161904D01*
X163328095Y-131257142D01*
X163280476Y-131304761D01*
X163185238Y-131352380D01*
X162804285Y-131352380D01*
X162804285Y-130352380D01*
X163137619Y-130352380D01*
X163232857Y-130400000D01*
X163280476Y-130447619D01*
X163328095Y-130542857D01*
X163328095Y-130638095D01*
X163280476Y-130733333D01*
X163232857Y-130780952D01*
X163137619Y-130828571D01*
X162804285Y-130828571D01*
X163756666Y-130447619D02*
X163804285Y-130400000D01*
X163899523Y-130352380D01*
X164137619Y-130352380D01*
X164232857Y-130400000D01*
X164280476Y-130447619D01*
X164328095Y-130542857D01*
X164328095Y-130638095D01*
X164280476Y-130780952D01*
X163709047Y-131352380D01*
X164328095Y-131352380D01*
X164947142Y-130352380D02*
X165042380Y-130352380D01*
X165137619Y-130400000D01*
X165185238Y-130447619D01*
X165232857Y-130542857D01*
X165280476Y-130733333D01*
X165280476Y-130971428D01*
X165232857Y-131161904D01*
X165185238Y-131257142D01*
X165137619Y-131304761D01*
X165042380Y-131352380D01*
X164947142Y-131352380D01*
X164851904Y-131304761D01*
X164804285Y-131257142D01*
X164756666Y-131161904D01*
X164709047Y-130971428D01*
X164709047Y-130733333D01*
X164756666Y-130542857D01*
X164804285Y-130447619D01*
X164851904Y-130400000D01*
X164947142Y-130352380D01*
X159169047Y-129121428D02*
X159930952Y-129121428D01*
X159550000Y-129502380D02*
X159550000Y-128740476D01*
X164269047Y-129021428D02*
X165030952Y-129021428D01*
X161888095Y-129602380D02*
X161888095Y-128602380D01*
X162126190Y-128602380D01*
X162269047Y-128650000D01*
X162364285Y-128745238D01*
X162411904Y-128840476D01*
X162459523Y-129030952D01*
X162459523Y-129173809D01*
X162411904Y-129364285D01*
X162364285Y-129459523D01*
X162269047Y-129554761D01*
X162126190Y-129602380D01*
X161888095Y-129602380D01*
X157271428Y-131245714D02*
X157271428Y-130483809D01*
X157652380Y-130864761D02*
X156890476Y-130864761D01*
X156652380Y-129531428D02*
X156652380Y-130007619D01*
X157128571Y-130055238D01*
X157080952Y-130007619D01*
X157033333Y-129912380D01*
X157033333Y-129674285D01*
X157080952Y-129579047D01*
X157128571Y-129531428D01*
X157223809Y-129483809D01*
X157461904Y-129483809D01*
X157557142Y-129531428D01*
X157604761Y-129579047D01*
X157652380Y-129674285D01*
X157652380Y-129912380D01*
X157604761Y-130007619D01*
X157557142Y-130055238D01*
X156652380Y-129198095D02*
X157652380Y-128864761D01*
X156652380Y-128531428D01*
X98380000Y-130220000D02*
X98284761Y-130172380D01*
X98141904Y-130172380D01*
X97999047Y-130220000D01*
X97903809Y-130315238D01*
X97856190Y-130410476D01*
X97808571Y-130600952D01*
X97808571Y-130743809D01*
X97856190Y-130934285D01*
X97903809Y-131029523D01*
X97999047Y-131124761D01*
X98141904Y-131172380D01*
X98237142Y-131172380D01*
X98380000Y-131124761D01*
X98427619Y-131077142D01*
X98427619Y-130743809D01*
X98237142Y-130743809D01*
X98856190Y-131172380D02*
X98856190Y-130172380D01*
X99237142Y-130172380D01*
X99332380Y-130220000D01*
X99380000Y-130267619D01*
X99427619Y-130362857D01*
X99427619Y-130505714D01*
X99380000Y-130600952D01*
X99332380Y-130648571D01*
X99237142Y-130696190D01*
X98856190Y-130696190D01*
X99856190Y-131172380D02*
X99856190Y-130172380D01*
X100522857Y-130172380D02*
X100713333Y-130172380D01*
X100808571Y-130220000D01*
X100903809Y-130315238D01*
X100951428Y-130505714D01*
X100951428Y-130839047D01*
X100903809Y-131029523D01*
X100808571Y-131124761D01*
X100713333Y-131172380D01*
X100522857Y-131172380D01*
X100427619Y-131124761D01*
X100332380Y-131029523D01*
X100284761Y-130839047D01*
X100284761Y-130505714D01*
X100332380Y-130315238D01*
X100427619Y-130220000D01*
X100522857Y-130172380D01*
X91098095Y-128650000D02*
X91002857Y-128602380D01*
X90860000Y-128602380D01*
X90717142Y-128650000D01*
X90621904Y-128745238D01*
X90574285Y-128840476D01*
X90526666Y-129030952D01*
X90526666Y-129173809D01*
X90574285Y-129364285D01*
X90621904Y-129459523D01*
X90717142Y-129554761D01*
X90860000Y-129602380D01*
X90955238Y-129602380D01*
X91098095Y-129554761D01*
X91145714Y-129507142D01*
X91145714Y-129173809D01*
X90955238Y-129173809D01*
X91574285Y-129602380D02*
X91574285Y-128602380D01*
X92145714Y-129602380D01*
X92145714Y-128602380D01*
X92621904Y-129602380D02*
X92621904Y-128602380D01*
X92860000Y-128602380D01*
X93002857Y-128650000D01*
X93098095Y-128745238D01*
X93145714Y-128840476D01*
X93193333Y-129030952D01*
X93193333Y-129173809D01*
X93145714Y-129364285D01*
X93098095Y-129459523D01*
X93002857Y-129554761D01*
X92860000Y-129602380D01*
X92621904Y-129602380D01*
X148380000Y-130220000D02*
X148284761Y-130172380D01*
X148141904Y-130172380D01*
X147999047Y-130220000D01*
X147903809Y-130315238D01*
X147856190Y-130410476D01*
X147808571Y-130600952D01*
X147808571Y-130743809D01*
X147856190Y-130934285D01*
X147903809Y-131029523D01*
X147999047Y-131124761D01*
X148141904Y-131172380D01*
X148237142Y-131172380D01*
X148380000Y-131124761D01*
X148427619Y-131077142D01*
X148427619Y-130743809D01*
X148237142Y-130743809D01*
X148856190Y-131172380D02*
X148856190Y-130172380D01*
X149237142Y-130172380D01*
X149332380Y-130220000D01*
X149380000Y-130267619D01*
X149427619Y-130362857D01*
X149427619Y-130505714D01*
X149380000Y-130600952D01*
X149332380Y-130648571D01*
X149237142Y-130696190D01*
X148856190Y-130696190D01*
X149856190Y-131172380D02*
X149856190Y-130172380D01*
X150522857Y-130172380D02*
X150713333Y-130172380D01*
X150808571Y-130220000D01*
X150903809Y-130315238D01*
X150951428Y-130505714D01*
X150951428Y-130839047D01*
X150903809Y-131029523D01*
X150808571Y-131124761D01*
X150713333Y-131172380D01*
X150522857Y-131172380D01*
X150427619Y-131124761D01*
X150332380Y-131029523D01*
X150284761Y-130839047D01*
X150284761Y-130505714D01*
X150332380Y-130315238D01*
X150427619Y-130220000D01*
X150522857Y-130172380D01*
X99144285Y-128727619D02*
X99191904Y-128680000D01*
X99287142Y-128632380D01*
X99525238Y-128632380D01*
X99620476Y-128680000D01*
X99668095Y-128727619D01*
X99715714Y-128822857D01*
X99715714Y-128918095D01*
X99668095Y-129060952D01*
X99096666Y-129632380D01*
X99715714Y-129632380D01*
X104720476Y-128965714D02*
X104720476Y-129632380D01*
X104482380Y-128584761D02*
X104244285Y-129299047D01*
X104863333Y-129299047D01*
D11*
X143570000Y-129980000D02*
X155240000Y-129980000D01*
D10*
X151892380Y-128632380D02*
X151987619Y-128632380D01*
X152082857Y-128680000D01*
X152130476Y-128727619D01*
X152178095Y-128822857D01*
X152225714Y-129013333D01*
X152225714Y-129251428D01*
X152178095Y-129441904D01*
X152130476Y-129537142D01*
X152082857Y-129584761D01*
X151987619Y-129632380D01*
X151892380Y-129632380D01*
X151797142Y-129584761D01*
X151749523Y-129537142D01*
X151701904Y-129441904D01*
X151654285Y-129251428D01*
X151654285Y-129013333D01*
X151701904Y-128822857D01*
X151749523Y-128727619D01*
X151797142Y-128680000D01*
X151892380Y-128632380D01*
X144209523Y-129632380D02*
X143638095Y-129632380D01*
X143923809Y-129632380D02*
X143923809Y-128632380D01*
X143828571Y-128775238D01*
X143733333Y-128870476D01*
X143638095Y-128918095D01*
X145066666Y-128632380D02*
X144876190Y-128632380D01*
X144780952Y-128680000D01*
X144733333Y-128727619D01*
X144638095Y-128870476D01*
X144590476Y-129060952D01*
X144590476Y-129441904D01*
X144638095Y-129537142D01*
X144685714Y-129584761D01*
X144780952Y-129632380D01*
X144971428Y-129632380D01*
X145066666Y-129584761D01*
X145114285Y-129537142D01*
X145161904Y-129441904D01*
X145161904Y-129203809D01*
X145114285Y-129108571D01*
X145066666Y-129060952D01*
X144971428Y-129013333D01*
X144780952Y-129013333D01*
X144685714Y-129060952D01*
X144638095Y-129108571D01*
X144590476Y-129203809D01*
D11*
X93570000Y-129980000D02*
X105240000Y-129980000D01*
X93570000Y-104980000D02*
X105240000Y-104980000D01*
D10*
X151892380Y-103632380D02*
X151987619Y-103632380D01*
X152082857Y-103680000D01*
X152130476Y-103727619D01*
X152178095Y-103822857D01*
X152225714Y-104013333D01*
X152225714Y-104251428D01*
X152178095Y-104441904D01*
X152130476Y-104537142D01*
X152082857Y-104584761D01*
X151987619Y-104632380D01*
X151892380Y-104632380D01*
X151797142Y-104584761D01*
X151749523Y-104537142D01*
X151701904Y-104441904D01*
X151654285Y-104251428D01*
X151654285Y-104013333D01*
X151701904Y-103822857D01*
X151749523Y-103727619D01*
X151797142Y-103680000D01*
X151892380Y-103632380D01*
X148380000Y-105220000D02*
X148284761Y-105172380D01*
X148141904Y-105172380D01*
X147999047Y-105220000D01*
X147903809Y-105315238D01*
X147856190Y-105410476D01*
X147808571Y-105600952D01*
X147808571Y-105743809D01*
X147856190Y-105934285D01*
X147903809Y-106029523D01*
X147999047Y-106124761D01*
X148141904Y-106172380D01*
X148237142Y-106172380D01*
X148380000Y-106124761D01*
X148427619Y-106077142D01*
X148427619Y-105743809D01*
X148237142Y-105743809D01*
X148856190Y-106172380D02*
X148856190Y-105172380D01*
X149237142Y-105172380D01*
X149332380Y-105220000D01*
X149380000Y-105267619D01*
X149427619Y-105362857D01*
X149427619Y-105505714D01*
X149380000Y-105600952D01*
X149332380Y-105648571D01*
X149237142Y-105696190D01*
X148856190Y-105696190D01*
X149856190Y-106172380D02*
X149856190Y-105172380D01*
X150522857Y-105172380D02*
X150713333Y-105172380D01*
X150808571Y-105220000D01*
X150903809Y-105315238D01*
X150951428Y-105505714D01*
X150951428Y-105839047D01*
X150903809Y-106029523D01*
X150808571Y-106124761D01*
X150713333Y-106172380D01*
X150522857Y-106172380D01*
X150427619Y-106124761D01*
X150332380Y-106029523D01*
X150284761Y-105839047D01*
X150284761Y-105505714D01*
X150332380Y-105315238D01*
X150427619Y-105220000D01*
X150522857Y-105172380D01*
X104720476Y-103965714D02*
X104720476Y-104632380D01*
X104482380Y-103584761D02*
X104244285Y-104299047D01*
X104863333Y-104299047D01*
X96779523Y-104602380D02*
X96208095Y-104602380D01*
X96493809Y-104602380D02*
X96493809Y-103602380D01*
X96398571Y-103745238D01*
X96303333Y-103840476D01*
X96208095Y-103888095D01*
X97160476Y-103697619D02*
X97208095Y-103650000D01*
X97303333Y-103602380D01*
X97541428Y-103602380D01*
X97636666Y-103650000D01*
X97684285Y-103697619D01*
X97731904Y-103792857D01*
X97731904Y-103888095D01*
X97684285Y-104030952D01*
X97112857Y-104602380D01*
X97731904Y-104602380D01*
X141098095Y-103650000D02*
X141002857Y-103602380D01*
X140860000Y-103602380D01*
X140717142Y-103650000D01*
X140621904Y-103745238D01*
X140574285Y-103840476D01*
X140526666Y-104030952D01*
X140526666Y-104173809D01*
X140574285Y-104364285D01*
X140621904Y-104459523D01*
X140717142Y-104554761D01*
X140860000Y-104602380D01*
X140955238Y-104602380D01*
X141098095Y-104554761D01*
X141145714Y-104507142D01*
X141145714Y-104173809D01*
X140955238Y-104173809D01*
X141574285Y-104602380D02*
X141574285Y-103602380D01*
X142145714Y-104602380D01*
X142145714Y-103602380D01*
X142621904Y-104602380D02*
X142621904Y-103602380D01*
X142860000Y-103602380D01*
X143002857Y-103650000D01*
X143098095Y-103745238D01*
X143145714Y-103840476D01*
X143193333Y-104030952D01*
X143193333Y-104173809D01*
X143145714Y-104364285D01*
X143098095Y-104459523D01*
X143002857Y-104554761D01*
X142860000Y-104602380D01*
X142621904Y-104602380D01*
X101892380Y-103632380D02*
X101987619Y-103632380D01*
X102082857Y-103680000D01*
X102130476Y-103727619D01*
X102178095Y-103822857D01*
X102225714Y-104013333D01*
X102225714Y-104251428D01*
X102178095Y-104441904D01*
X102130476Y-104537142D01*
X102082857Y-104584761D01*
X101987619Y-104632380D01*
X101892380Y-104632380D01*
X101797142Y-104584761D01*
X101749523Y-104537142D01*
X101701904Y-104441904D01*
X101654285Y-104251428D01*
X101654285Y-104013333D01*
X101701904Y-103822857D01*
X101749523Y-103727619D01*
X101797142Y-103680000D01*
X101892380Y-103632380D01*
X94209523Y-104632380D02*
X93638095Y-104632380D01*
X93923809Y-104632380D02*
X93923809Y-103632380D01*
X93828571Y-103775238D01*
X93733333Y-103870476D01*
X93638095Y-103918095D01*
X95066666Y-103632380D02*
X94876190Y-103632380D01*
X94780952Y-103680000D01*
X94733333Y-103727619D01*
X94638095Y-103870476D01*
X94590476Y-104060952D01*
X94590476Y-104441904D01*
X94638095Y-104537142D01*
X94685714Y-104584761D01*
X94780952Y-104632380D01*
X94971428Y-104632380D01*
X95066666Y-104584761D01*
X95114285Y-104537142D01*
X95161904Y-104441904D01*
X95161904Y-104203809D01*
X95114285Y-104108571D01*
X95066666Y-104060952D01*
X94971428Y-104013333D01*
X94780952Y-104013333D01*
X94685714Y-104060952D01*
X94638095Y-104108571D01*
X94590476Y-104203809D01*
X149144285Y-103727619D02*
X149191904Y-103680000D01*
X149287142Y-103632380D01*
X149525238Y-103632380D01*
X149620476Y-103680000D01*
X149668095Y-103727619D01*
X149715714Y-103822857D01*
X149715714Y-103918095D01*
X149668095Y-104060952D01*
X149096666Y-104632380D01*
X149715714Y-104632380D01*
X146779523Y-104602380D02*
X146208095Y-104602380D01*
X146493809Y-104602380D02*
X146493809Y-103602380D01*
X146398571Y-103745238D01*
X146303333Y-103840476D01*
X146208095Y-103888095D01*
X147160476Y-103697619D02*
X147208095Y-103650000D01*
X147303333Y-103602380D01*
X147541428Y-103602380D01*
X147636666Y-103650000D01*
X147684285Y-103697619D01*
X147731904Y-103792857D01*
X147731904Y-103888095D01*
X147684285Y-104030952D01*
X147112857Y-104602380D01*
X147731904Y-104602380D01*
X98428571Y-118907142D02*
X99571428Y-118907142D01*
X99000000Y-119478571D02*
X99000000Y-118335714D01*
X98428571Y-122907142D02*
X99571428Y-122907142D01*
X133988095Y-122500000D02*
X133892857Y-122452380D01*
X133750000Y-122452380D01*
X133607142Y-122500000D01*
X133511904Y-122595238D01*
X133464285Y-122690476D01*
X133416666Y-122880952D01*
X133416666Y-123023809D01*
X133464285Y-123214285D01*
X133511904Y-123309523D01*
X133607142Y-123404761D01*
X133750000Y-123452380D01*
X133845238Y-123452380D01*
X133988095Y-123404761D01*
X134035714Y-123357142D01*
X134035714Y-123023809D01*
X133845238Y-123023809D01*
X134464285Y-123452380D02*
X134464285Y-122452380D01*
X135035714Y-123452380D01*
X135035714Y-122452380D01*
X135511904Y-123452380D02*
X135511904Y-122452380D01*
X135750000Y-122452380D01*
X135892857Y-122500000D01*
X135988095Y-122595238D01*
X136035714Y-122690476D01*
X136083333Y-122880952D01*
X136083333Y-123023809D01*
X136035714Y-123214285D01*
X135988095Y-123309523D01*
X135892857Y-123404761D01*
X135750000Y-123452380D01*
X135511904Y-123452380D01*
X134083333Y-118452380D02*
X133750000Y-117976190D01*
X133511904Y-118452380D02*
X133511904Y-117452380D01*
X133892857Y-117452380D01*
X133988095Y-117500000D01*
X134035714Y-117547619D01*
X134083333Y-117642857D01*
X134083333Y-117785714D01*
X134035714Y-117880952D01*
X133988095Y-117928571D01*
X133892857Y-117976190D01*
X133511904Y-117976190D01*
X134416666Y-117452380D02*
X135083333Y-118452380D01*
X135083333Y-117452380D02*
X134416666Y-118452380D01*
X135464285Y-118452380D02*
X135464285Y-117452380D01*
X135702380Y-117452380D01*
X135845238Y-117500000D01*
X135940476Y-117595238D01*
X135988095Y-117690476D01*
X136035714Y-117880952D01*
X136035714Y-118023809D01*
X135988095Y-118214285D01*
X135940476Y-118309523D01*
X135845238Y-118404761D01*
X135702380Y-118452380D01*
X135464285Y-118452380D01*
X133416666Y-114952380D02*
X133750000Y-115952380D01*
X134083333Y-114952380D01*
X134988095Y-115857142D02*
X134940476Y-115904761D01*
X134797619Y-115952380D01*
X134702380Y-115952380D01*
X134559523Y-115904761D01*
X134464285Y-115809523D01*
X134416666Y-115714285D01*
X134369047Y-115523809D01*
X134369047Y-115380952D01*
X134416666Y-115190476D01*
X134464285Y-115095238D01*
X134559523Y-115000000D01*
X134702380Y-114952380D01*
X134797619Y-114952380D01*
X134940476Y-115000000D01*
X134988095Y-115047619D01*
X135988095Y-115857142D02*
X135940476Y-115904761D01*
X135797619Y-115952380D01*
X135702380Y-115952380D01*
X135559523Y-115904761D01*
X135464285Y-115809523D01*
X135416666Y-115714285D01*
X135369047Y-115523809D01*
X135369047Y-115380952D01*
X135416666Y-115190476D01*
X135464285Y-115095238D01*
X135559523Y-115000000D01*
X135702380Y-114952380D01*
X135797619Y-114952380D01*
X135940476Y-115000000D01*
X135988095Y-115047619D01*
X134202380Y-113202380D02*
X133869047Y-112726190D01*
X133630952Y-113202380D02*
X133630952Y-112202380D01*
X134011904Y-112202380D01*
X134107142Y-112250000D01*
X134154761Y-112297619D01*
X134202380Y-112392857D01*
X134202380Y-112535714D01*
X134154761Y-112630952D01*
X134107142Y-112678571D01*
X134011904Y-112726190D01*
X133630952Y-112726190D01*
X134488095Y-112202380D02*
X135059523Y-112202380D01*
X134773809Y-113202380D02*
X134773809Y-112202380D01*
X135345238Y-113154761D02*
X135488095Y-113202380D01*
X135726190Y-113202380D01*
X135821428Y-113154761D01*
X135869047Y-113107142D01*
X135916666Y-113011904D01*
X135916666Y-112916666D01*
X135869047Y-112821428D01*
X135821428Y-112773809D01*
X135726190Y-112726190D01*
X135535714Y-112678571D01*
X135440476Y-112630952D01*
X135392857Y-112583333D01*
X135345238Y-112488095D01*
X135345238Y-112392857D01*
X135392857Y-112297619D01*
X135440476Y-112250000D01*
X135535714Y-112202380D01*
X135773809Y-112202380D01*
X135916666Y-112250000D01*
X136857142Y-105702380D02*
X136857142Y-104702380D01*
X137095238Y-104702380D01*
X137238095Y-104750000D01*
X137333333Y-104845238D01*
X137380952Y-104940476D01*
X137428571Y-105130952D01*
X137428571Y-105273809D01*
X137380952Y-105464285D01*
X137333333Y-105559523D01*
X137238095Y-105654761D01*
X137095238Y-105702380D01*
X136857142Y-105702380D01*
X137714285Y-104702380D02*
X138285714Y-104702380D01*
X138000000Y-105702380D02*
X138000000Y-104702380D01*
X139190476Y-105702380D02*
X138857142Y-105226190D01*
X138619047Y-105702380D02*
X138619047Y-104702380D01*
X139000000Y-104702380D01*
X139095238Y-104750000D01*
X139142857Y-104797619D01*
X139190476Y-104892857D01*
X139190476Y-105035714D01*
X139142857Y-105130952D01*
X139095238Y-105178571D01*
X139000000Y-105226190D01*
X138619047Y-105226190D01*
X136738095Y-102952380D02*
X137309523Y-102952380D01*
X137023809Y-103952380D02*
X137023809Y-102952380D01*
X137547619Y-102952380D02*
X138214285Y-103952380D01*
X138214285Y-102952380D02*
X137547619Y-103952380D01*
X138595238Y-103952380D02*
X138595238Y-102952380D01*
X138833333Y-102952380D01*
X138976190Y-103000000D01*
X139071428Y-103095238D01*
X139119047Y-103190476D01*
X139166666Y-103380952D01*
X139166666Y-103523809D01*
X139119047Y-103714285D01*
X139071428Y-103809523D01*
X138976190Y-103904761D01*
X138833333Y-103952380D01*
X138595238Y-103952380D01*
X100027380Y-109833333D02*
X99027380Y-109833333D01*
X99027380Y-109452380D01*
X99075000Y-109357142D01*
X99122619Y-109309523D01*
X99217857Y-109261904D01*
X99360714Y-109261904D01*
X99455952Y-109309523D01*
X99503571Y-109357142D01*
X99551190Y-109452380D01*
X99551190Y-109833333D01*
X99027380Y-108928571D02*
X100027380Y-108690476D01*
X99313095Y-108500000D01*
X100027380Y-108309523D01*
X99027380Y-108071428D01*
X100027380Y-107119047D02*
X99551190Y-107452380D01*
X100027380Y-107690476D02*
X99027380Y-107690476D01*
X99027380Y-107309523D01*
X99075000Y-107214285D01*
X99122619Y-107166666D01*
X99217857Y-107119047D01*
X99360714Y-107119047D01*
X99455952Y-107166666D01*
X99503571Y-107214285D01*
X99551190Y-107309523D01*
X99551190Y-107690476D01*
X101677380Y-109142857D02*
X101677380Y-109619047D01*
X100677380Y-109619047D01*
X101153571Y-108809523D02*
X101153571Y-108476190D01*
X101677380Y-108333333D02*
X101677380Y-108809523D01*
X100677380Y-108809523D01*
X100677380Y-108333333D01*
X101677380Y-107904761D02*
X100677380Y-107904761D01*
X100677380Y-107666666D01*
X100725000Y-107523809D01*
X100820238Y-107428571D01*
X100915476Y-107380952D01*
X101105952Y-107333333D01*
X101248809Y-107333333D01*
X101439285Y-107380952D01*
X101534523Y-107428571D01*
X101629761Y-107523809D01*
X101677380Y-107666666D01*
X101677380Y-107904761D01*
X100027380Y-114783333D02*
X99027380Y-114783333D01*
X99027380Y-114402380D01*
X99075000Y-114307142D01*
X99122619Y-114259523D01*
X99217857Y-114211904D01*
X99360714Y-114211904D01*
X99455952Y-114259523D01*
X99503571Y-114307142D01*
X99551190Y-114402380D01*
X99551190Y-114783333D01*
X99027380Y-113878571D02*
X100027380Y-113640476D01*
X99313095Y-113450000D01*
X100027380Y-113259523D01*
X99027380Y-113021428D01*
X100027380Y-112069047D02*
X99551190Y-112402380D01*
X100027380Y-112640476D02*
X99027380Y-112640476D01*
X99027380Y-112259523D01*
X99075000Y-112164285D01*
X99122619Y-112116666D01*
X99217857Y-112069047D01*
X99360714Y-112069047D01*
X99455952Y-112116666D01*
X99503571Y-112164285D01*
X99551190Y-112259523D01*
X99551190Y-112640476D01*
X101629761Y-114307142D02*
X101677380Y-114164285D01*
X101677380Y-113926190D01*
X101629761Y-113830952D01*
X101582142Y-113783333D01*
X101486904Y-113735714D01*
X101391666Y-113735714D01*
X101296428Y-113783333D01*
X101248809Y-113830952D01*
X101201190Y-113926190D01*
X101153571Y-114116666D01*
X101105952Y-114211904D01*
X101058333Y-114259523D01*
X100963095Y-114307142D01*
X100867857Y-114307142D01*
X100772619Y-114259523D01*
X100725000Y-114211904D01*
X100677380Y-114116666D01*
X100677380Y-113878571D01*
X100725000Y-113735714D01*
X100677380Y-113402380D02*
X101677380Y-113164285D01*
X100963095Y-112973809D01*
X101677380Y-112783333D01*
X100677380Y-112545238D01*
X97769047Y-107071428D02*
X98530952Y-107071428D01*
X97769047Y-109521428D02*
X98530952Y-109521428D01*
X98150000Y-109902380D02*
X98150000Y-109140476D01*
X97769047Y-114621428D02*
X98530952Y-114621428D01*
X98150000Y-115002380D02*
X98150000Y-114240476D01*
X97769047Y-112121428D02*
X98530952Y-112121428D01*
X108947142Y-106352380D02*
X108947142Y-105352380D01*
X109185238Y-105352380D01*
X109328095Y-105400000D01*
X109423333Y-105495238D01*
X109470952Y-105590476D01*
X109518571Y-105780952D01*
X109518571Y-105923809D01*
X109470952Y-106114285D01*
X109423333Y-106209523D01*
X109328095Y-106304761D01*
X109185238Y-106352380D01*
X108947142Y-106352380D01*
X109899523Y-106304761D02*
X110042380Y-106352380D01*
X110280476Y-106352380D01*
X110375714Y-106304761D01*
X110423333Y-106257142D01*
X110470952Y-106161904D01*
X110470952Y-106066666D01*
X110423333Y-105971428D01*
X110375714Y-105923809D01*
X110280476Y-105876190D01*
X110090000Y-105828571D01*
X109994761Y-105780952D01*
X109947142Y-105733333D01*
X109899523Y-105638095D01*
X109899523Y-105542857D01*
X109947142Y-105447619D01*
X109994761Y-105400000D01*
X110090000Y-105352380D01*
X110328095Y-105352380D01*
X110470952Y-105400000D01*
X111423333Y-106352380D02*
X110851904Y-106352380D01*
X111137619Y-106352380D02*
X111137619Y-105352380D01*
X111042380Y-105495238D01*
X110947142Y-105590476D01*
X110851904Y-105638095D01*
X111994761Y-105780952D02*
X111899523Y-105733333D01*
X111851904Y-105685714D01*
X111804285Y-105590476D01*
X111804285Y-105542857D01*
X111851904Y-105447619D01*
X111899523Y-105400000D01*
X111994761Y-105352380D01*
X112185238Y-105352380D01*
X112280476Y-105400000D01*
X112328095Y-105447619D01*
X112375714Y-105542857D01*
X112375714Y-105590476D01*
X112328095Y-105685714D01*
X112280476Y-105733333D01*
X112185238Y-105780952D01*
X111994761Y-105780952D01*
X111899523Y-105828571D01*
X111851904Y-105876190D01*
X111804285Y-105971428D01*
X111804285Y-106161904D01*
X111851904Y-106257142D01*
X111899523Y-106304761D01*
X111994761Y-106352380D01*
X112185238Y-106352380D01*
X112280476Y-106304761D01*
X112328095Y-106257142D01*
X112375714Y-106161904D01*
X112375714Y-105971428D01*
X112328095Y-105876190D01*
X112280476Y-105828571D01*
X112185238Y-105780952D01*
X113137619Y-105828571D02*
X113280476Y-105876190D01*
X113328095Y-105923809D01*
X113375714Y-106019047D01*
X113375714Y-106161904D01*
X113328095Y-106257142D01*
X113280476Y-106304761D01*
X113185238Y-106352380D01*
X112804285Y-106352380D01*
X112804285Y-105352380D01*
X113137619Y-105352380D01*
X113232857Y-105400000D01*
X113280476Y-105447619D01*
X113328095Y-105542857D01*
X113328095Y-105638095D01*
X113280476Y-105733333D01*
X113232857Y-105780952D01*
X113137619Y-105828571D01*
X112804285Y-105828571D01*
X113756666Y-105447619D02*
X113804285Y-105400000D01*
X113899523Y-105352380D01*
X114137619Y-105352380D01*
X114232857Y-105400000D01*
X114280476Y-105447619D01*
X114328095Y-105542857D01*
X114328095Y-105638095D01*
X114280476Y-105780952D01*
X113709047Y-106352380D01*
X114328095Y-106352380D01*
X114947142Y-105352380D02*
X115042380Y-105352380D01*
X115137619Y-105400000D01*
X115185238Y-105447619D01*
X115232857Y-105542857D01*
X115280476Y-105733333D01*
X115280476Y-105971428D01*
X115232857Y-106161904D01*
X115185238Y-106257142D01*
X115137619Y-106304761D01*
X115042380Y-106352380D01*
X114947142Y-106352380D01*
X114851904Y-106304761D01*
X114804285Y-106257142D01*
X114756666Y-106161904D01*
X114709047Y-105971428D01*
X114709047Y-105733333D01*
X114756666Y-105542857D01*
X114804285Y-105447619D01*
X114851904Y-105400000D01*
X114947142Y-105352380D01*
X109169047Y-104121428D02*
X109930952Y-104121428D01*
X109550000Y-104502380D02*
X109550000Y-103740476D01*
X114269047Y-104021428D02*
X115030952Y-104021428D01*
X111888095Y-104602380D02*
X111888095Y-103602380D01*
X112126190Y-103602380D01*
X112269047Y-103650000D01*
X112364285Y-103745238D01*
X112411904Y-103840476D01*
X112459523Y-104030952D01*
X112459523Y-104173809D01*
X112411904Y-104364285D01*
X112364285Y-104459523D01*
X112269047Y-104554761D01*
X112126190Y-104602380D01*
X111888095Y-104602380D01*
X107271428Y-106245714D02*
X107271428Y-105483809D01*
X107652380Y-105864761D02*
X106890476Y-105864761D01*
X106652380Y-104531428D02*
X106652380Y-105007619D01*
X107128571Y-105055238D01*
X107080952Y-105007619D01*
X107033333Y-104912380D01*
X107033333Y-104674285D01*
X107080952Y-104579047D01*
X107128571Y-104531428D01*
X107223809Y-104483809D01*
X107461904Y-104483809D01*
X107557142Y-104531428D01*
X107604761Y-104579047D01*
X107652380Y-104674285D01*
X107652380Y-104912380D01*
X107604761Y-105007619D01*
X107557142Y-105055238D01*
X106652380Y-104198095D02*
X107652380Y-103864761D01*
X106652380Y-103531428D01*
X154720476Y-103965714D02*
X154720476Y-104632380D01*
X154482380Y-103584761D02*
X154244285Y-104299047D01*
X154863333Y-104299047D01*
X148428571Y-118907142D02*
X149571428Y-118907142D01*
X149000000Y-119478571D02*
X149000000Y-118335714D01*
X148428571Y-122907142D02*
X149571428Y-122907142D01*
X183988095Y-122500000D02*
X183892857Y-122452380D01*
X183750000Y-122452380D01*
X183607142Y-122500000D01*
X183511904Y-122595238D01*
X183464285Y-122690476D01*
X183416666Y-122880952D01*
X183416666Y-123023809D01*
X183464285Y-123214285D01*
X183511904Y-123309523D01*
X183607142Y-123404761D01*
X183750000Y-123452380D01*
X183845238Y-123452380D01*
X183988095Y-123404761D01*
X184035714Y-123357142D01*
X184035714Y-123023809D01*
X183845238Y-123023809D01*
X184464285Y-123452380D02*
X184464285Y-122452380D01*
X185035714Y-123452380D01*
X185035714Y-122452380D01*
X185511904Y-123452380D02*
X185511904Y-122452380D01*
X185750000Y-122452380D01*
X185892857Y-122500000D01*
X185988095Y-122595238D01*
X186035714Y-122690476D01*
X186083333Y-122880952D01*
X186083333Y-123023809D01*
X186035714Y-123214285D01*
X185988095Y-123309523D01*
X185892857Y-123404761D01*
X185750000Y-123452380D01*
X185511904Y-123452380D01*
X184083333Y-118452380D02*
X183750000Y-117976190D01*
X183511904Y-118452380D02*
X183511904Y-117452380D01*
X183892857Y-117452380D01*
X183988095Y-117500000D01*
X184035714Y-117547619D01*
X184083333Y-117642857D01*
X184083333Y-117785714D01*
X184035714Y-117880952D01*
X183988095Y-117928571D01*
X183892857Y-117976190D01*
X183511904Y-117976190D01*
X184416666Y-117452380D02*
X185083333Y-118452380D01*
X185083333Y-117452380D02*
X184416666Y-118452380D01*
X185464285Y-118452380D02*
X185464285Y-117452380D01*
X185702380Y-117452380D01*
X185845238Y-117500000D01*
X185940476Y-117595238D01*
X185988095Y-117690476D01*
X186035714Y-117880952D01*
X186035714Y-118023809D01*
X185988095Y-118214285D01*
X185940476Y-118309523D01*
X185845238Y-118404761D01*
X185702380Y-118452380D01*
X185464285Y-118452380D01*
X183416666Y-114952380D02*
X183750000Y-115952380D01*
X184083333Y-114952380D01*
X184988095Y-115857142D02*
X184940476Y-115904761D01*
X184797619Y-115952380D01*
X184702380Y-115952380D01*
X184559523Y-115904761D01*
X184464285Y-115809523D01*
X184416666Y-115714285D01*
X184369047Y-115523809D01*
X184369047Y-115380952D01*
X184416666Y-115190476D01*
X184464285Y-115095238D01*
X184559523Y-115000000D01*
X184702380Y-114952380D01*
X184797619Y-114952380D01*
X184940476Y-115000000D01*
X184988095Y-115047619D01*
X185988095Y-115857142D02*
X185940476Y-115904761D01*
X185797619Y-115952380D01*
X185702380Y-115952380D01*
X185559523Y-115904761D01*
X185464285Y-115809523D01*
X185416666Y-115714285D01*
X185369047Y-115523809D01*
X185369047Y-115380952D01*
X185416666Y-115190476D01*
X185464285Y-115095238D01*
X185559523Y-115000000D01*
X185702380Y-114952380D01*
X185797619Y-114952380D01*
X185940476Y-115000000D01*
X185988095Y-115047619D01*
X184202380Y-113202380D02*
X183869047Y-112726190D01*
X183630952Y-113202380D02*
X183630952Y-112202380D01*
X184011904Y-112202380D01*
X184107142Y-112250000D01*
X184154761Y-112297619D01*
X184202380Y-112392857D01*
X184202380Y-112535714D01*
X184154761Y-112630952D01*
X184107142Y-112678571D01*
X184011904Y-112726190D01*
X183630952Y-112726190D01*
X184488095Y-112202380D02*
X185059523Y-112202380D01*
X184773809Y-113202380D02*
X184773809Y-112202380D01*
X185345238Y-113154761D02*
X185488095Y-113202380D01*
X185726190Y-113202380D01*
X185821428Y-113154761D01*
X185869047Y-113107142D01*
X185916666Y-113011904D01*
X185916666Y-112916666D01*
X185869047Y-112821428D01*
X185821428Y-112773809D01*
X185726190Y-112726190D01*
X185535714Y-112678571D01*
X185440476Y-112630952D01*
X185392857Y-112583333D01*
X185345238Y-112488095D01*
X185345238Y-112392857D01*
X185392857Y-112297619D01*
X185440476Y-112250000D01*
X185535714Y-112202380D01*
X185773809Y-112202380D01*
X185916666Y-112250000D01*
X186857142Y-105702380D02*
X186857142Y-104702380D01*
X187095238Y-104702380D01*
X187238095Y-104750000D01*
X187333333Y-104845238D01*
X187380952Y-104940476D01*
X187428571Y-105130952D01*
X187428571Y-105273809D01*
X187380952Y-105464285D01*
X187333333Y-105559523D01*
X187238095Y-105654761D01*
X187095238Y-105702380D01*
X186857142Y-105702380D01*
X187714285Y-104702380D02*
X188285714Y-104702380D01*
X188000000Y-105702380D02*
X188000000Y-104702380D01*
X189190476Y-105702380D02*
X188857142Y-105226190D01*
X188619047Y-105702380D02*
X188619047Y-104702380D01*
X189000000Y-104702380D01*
X189095238Y-104750000D01*
X189142857Y-104797619D01*
X189190476Y-104892857D01*
X189190476Y-105035714D01*
X189142857Y-105130952D01*
X189095238Y-105178571D01*
X189000000Y-105226190D01*
X188619047Y-105226190D01*
X186738095Y-102952380D02*
X187309523Y-102952380D01*
X187023809Y-103952380D02*
X187023809Y-102952380D01*
X187547619Y-102952380D02*
X188214285Y-103952380D01*
X188214285Y-102952380D02*
X187547619Y-103952380D01*
X188595238Y-103952380D02*
X188595238Y-102952380D01*
X188833333Y-102952380D01*
X188976190Y-103000000D01*
X189071428Y-103095238D01*
X189119047Y-103190476D01*
X189166666Y-103380952D01*
X189166666Y-103523809D01*
X189119047Y-103714285D01*
X189071428Y-103809523D01*
X188976190Y-103904761D01*
X188833333Y-103952380D01*
X188595238Y-103952380D01*
X150027380Y-109833333D02*
X149027380Y-109833333D01*
X149027380Y-109452380D01*
X149075000Y-109357142D01*
X149122619Y-109309523D01*
X149217857Y-109261904D01*
X149360714Y-109261904D01*
X149455952Y-109309523D01*
X149503571Y-109357142D01*
X149551190Y-109452380D01*
X149551190Y-109833333D01*
X149027380Y-108928571D02*
X150027380Y-108690476D01*
X149313095Y-108500000D01*
X150027380Y-108309523D01*
X149027380Y-108071428D01*
X150027380Y-107119047D02*
X149551190Y-107452380D01*
X150027380Y-107690476D02*
X149027380Y-107690476D01*
X149027380Y-107309523D01*
X149075000Y-107214285D01*
X149122619Y-107166666D01*
X149217857Y-107119047D01*
X149360714Y-107119047D01*
X149455952Y-107166666D01*
X149503571Y-107214285D01*
X149551190Y-107309523D01*
X149551190Y-107690476D01*
X151677380Y-109142857D02*
X151677380Y-109619047D01*
X150677380Y-109619047D01*
X151153571Y-108809523D02*
X151153571Y-108476190D01*
X151677380Y-108333333D02*
X151677380Y-108809523D01*
X150677380Y-108809523D01*
X150677380Y-108333333D01*
X151677380Y-107904761D02*
X150677380Y-107904761D01*
X150677380Y-107666666D01*
X150725000Y-107523809D01*
X150820238Y-107428571D01*
X150915476Y-107380952D01*
X151105952Y-107333333D01*
X151248809Y-107333333D01*
X151439285Y-107380952D01*
X151534523Y-107428571D01*
X151629761Y-107523809D01*
X151677380Y-107666666D01*
X151677380Y-107904761D01*
X150027380Y-114783333D02*
X149027380Y-114783333D01*
X149027380Y-114402380D01*
X149075000Y-114307142D01*
X149122619Y-114259523D01*
X149217857Y-114211904D01*
X149360714Y-114211904D01*
X149455952Y-114259523D01*
X149503571Y-114307142D01*
X149551190Y-114402380D01*
X149551190Y-114783333D01*
X149027380Y-113878571D02*
X150027380Y-113640476D01*
X149313095Y-113450000D01*
X150027380Y-113259523D01*
X149027380Y-113021428D01*
X150027380Y-112069047D02*
X149551190Y-112402380D01*
X150027380Y-112640476D02*
X149027380Y-112640476D01*
X149027380Y-112259523D01*
X149075000Y-112164285D01*
X149122619Y-112116666D01*
X149217857Y-112069047D01*
X149360714Y-112069047D01*
X149455952Y-112116666D01*
X149503571Y-112164285D01*
X149551190Y-112259523D01*
X149551190Y-112640476D01*
X151629761Y-114307142D02*
X151677380Y-114164285D01*
X151677380Y-113926190D01*
X151629761Y-113830952D01*
X151582142Y-113783333D01*
X151486904Y-113735714D01*
X151391666Y-113735714D01*
X151296428Y-113783333D01*
X151248809Y-113830952D01*
X151201190Y-113926190D01*
X151153571Y-114116666D01*
X151105952Y-114211904D01*
X151058333Y-114259523D01*
X150963095Y-114307142D01*
X150867857Y-114307142D01*
X150772619Y-114259523D01*
X150725000Y-114211904D01*
X150677380Y-114116666D01*
X150677380Y-113878571D01*
X150725000Y-113735714D01*
X150677380Y-113402380D02*
X151677380Y-113164285D01*
X150963095Y-112973809D01*
X151677380Y-112783333D01*
X150677380Y-112545238D01*
X147769047Y-107071428D02*
X148530952Y-107071428D01*
X147769047Y-109521428D02*
X148530952Y-109521428D01*
X148150000Y-109902380D02*
X148150000Y-109140476D01*
X147769047Y-114621428D02*
X148530952Y-114621428D01*
X148150000Y-115002380D02*
X148150000Y-114240476D01*
X147769047Y-112121428D02*
X148530952Y-112121428D01*
X158947142Y-106352380D02*
X158947142Y-105352380D01*
X159185238Y-105352380D01*
X159328095Y-105400000D01*
X159423333Y-105495238D01*
X159470952Y-105590476D01*
X159518571Y-105780952D01*
X159518571Y-105923809D01*
X159470952Y-106114285D01*
X159423333Y-106209523D01*
X159328095Y-106304761D01*
X159185238Y-106352380D01*
X158947142Y-106352380D01*
X159899523Y-106304761D02*
X160042380Y-106352380D01*
X160280476Y-106352380D01*
X160375714Y-106304761D01*
X160423333Y-106257142D01*
X160470952Y-106161904D01*
X160470952Y-106066666D01*
X160423333Y-105971428D01*
X160375714Y-105923809D01*
X160280476Y-105876190D01*
X160090000Y-105828571D01*
X159994761Y-105780952D01*
X159947142Y-105733333D01*
X159899523Y-105638095D01*
X159899523Y-105542857D01*
X159947142Y-105447619D01*
X159994761Y-105400000D01*
X160090000Y-105352380D01*
X160328095Y-105352380D01*
X160470952Y-105400000D01*
X161423333Y-106352380D02*
X160851904Y-106352380D01*
X161137619Y-106352380D02*
X161137619Y-105352380D01*
X161042380Y-105495238D01*
X160947142Y-105590476D01*
X160851904Y-105638095D01*
X161994761Y-105780952D02*
X161899523Y-105733333D01*
X161851904Y-105685714D01*
X161804285Y-105590476D01*
X161804285Y-105542857D01*
X161851904Y-105447619D01*
X161899523Y-105400000D01*
X161994761Y-105352380D01*
X162185238Y-105352380D01*
X162280476Y-105400000D01*
X162328095Y-105447619D01*
X162375714Y-105542857D01*
X162375714Y-105590476D01*
X162328095Y-105685714D01*
X162280476Y-105733333D01*
X162185238Y-105780952D01*
X161994761Y-105780952D01*
X161899523Y-105828571D01*
X161851904Y-105876190D01*
X161804285Y-105971428D01*
X161804285Y-106161904D01*
X161851904Y-106257142D01*
X161899523Y-106304761D01*
X161994761Y-106352380D01*
X162185238Y-106352380D01*
X162280476Y-106304761D01*
X162328095Y-106257142D01*
X162375714Y-106161904D01*
X162375714Y-105971428D01*
X162328095Y-105876190D01*
X162280476Y-105828571D01*
X162185238Y-105780952D01*
X163137619Y-105828571D02*
X163280476Y-105876190D01*
X163328095Y-105923809D01*
X163375714Y-106019047D01*
X163375714Y-106161904D01*
X163328095Y-106257142D01*
X163280476Y-106304761D01*
X163185238Y-106352380D01*
X162804285Y-106352380D01*
X162804285Y-105352380D01*
X163137619Y-105352380D01*
X163232857Y-105400000D01*
X163280476Y-105447619D01*
X163328095Y-105542857D01*
X163328095Y-105638095D01*
X163280476Y-105733333D01*
X163232857Y-105780952D01*
X163137619Y-105828571D01*
X162804285Y-105828571D01*
X163756666Y-105447619D02*
X163804285Y-105400000D01*
X163899523Y-105352380D01*
X164137619Y-105352380D01*
X164232857Y-105400000D01*
X164280476Y-105447619D01*
X164328095Y-105542857D01*
X164328095Y-105638095D01*
X164280476Y-105780952D01*
X163709047Y-106352380D01*
X164328095Y-106352380D01*
X164947142Y-105352380D02*
X165042380Y-105352380D01*
X165137619Y-105400000D01*
X165185238Y-105447619D01*
X165232857Y-105542857D01*
X165280476Y-105733333D01*
X165280476Y-105971428D01*
X165232857Y-106161904D01*
X165185238Y-106257142D01*
X165137619Y-106304761D01*
X165042380Y-106352380D01*
X164947142Y-106352380D01*
X164851904Y-106304761D01*
X164804285Y-106257142D01*
X164756666Y-106161904D01*
X164709047Y-105971428D01*
X164709047Y-105733333D01*
X164756666Y-105542857D01*
X164804285Y-105447619D01*
X164851904Y-105400000D01*
X164947142Y-105352380D01*
X159169047Y-104121428D02*
X159930952Y-104121428D01*
X159550000Y-104502380D02*
X159550000Y-103740476D01*
X164269047Y-104021428D02*
X165030952Y-104021428D01*
X161888095Y-104602380D02*
X161888095Y-103602380D01*
X162126190Y-103602380D01*
X162269047Y-103650000D01*
X162364285Y-103745238D01*
X162411904Y-103840476D01*
X162459523Y-104030952D01*
X162459523Y-104173809D01*
X162411904Y-104364285D01*
X162364285Y-104459523D01*
X162269047Y-104554761D01*
X162126190Y-104602380D01*
X161888095Y-104602380D01*
X157271428Y-106245714D02*
X157271428Y-105483809D01*
X157652380Y-105864761D02*
X156890476Y-105864761D01*
X156652380Y-104531428D02*
X156652380Y-105007619D01*
X157128571Y-105055238D01*
X157080952Y-105007619D01*
X157033333Y-104912380D01*
X157033333Y-104674285D01*
X157080952Y-104579047D01*
X157128571Y-104531428D01*
X157223809Y-104483809D01*
X157461904Y-104483809D01*
X157557142Y-104531428D01*
X157604761Y-104579047D01*
X157652380Y-104674285D01*
X157652380Y-104912380D01*
X157604761Y-105007619D01*
X157557142Y-105055238D01*
X156652380Y-104198095D02*
X157652380Y-103864761D01*
X156652380Y-103531428D01*
X98380000Y-105220000D02*
X98284761Y-105172380D01*
X98141904Y-105172380D01*
X97999047Y-105220000D01*
X97903809Y-105315238D01*
X97856190Y-105410476D01*
X97808571Y-105600952D01*
X97808571Y-105743809D01*
X97856190Y-105934285D01*
X97903809Y-106029523D01*
X97999047Y-106124761D01*
X98141904Y-106172380D01*
X98237142Y-106172380D01*
X98380000Y-106124761D01*
X98427619Y-106077142D01*
X98427619Y-105743809D01*
X98237142Y-105743809D01*
X98856190Y-106172380D02*
X98856190Y-105172380D01*
X99237142Y-105172380D01*
X99332380Y-105220000D01*
X99380000Y-105267619D01*
X99427619Y-105362857D01*
X99427619Y-105505714D01*
X99380000Y-105600952D01*
X99332380Y-105648571D01*
X99237142Y-105696190D01*
X98856190Y-105696190D01*
X99856190Y-106172380D02*
X99856190Y-105172380D01*
X100522857Y-105172380D02*
X100713333Y-105172380D01*
X100808571Y-105220000D01*
X100903809Y-105315238D01*
X100951428Y-105505714D01*
X100951428Y-105839047D01*
X100903809Y-106029523D01*
X100808571Y-106124761D01*
X100713333Y-106172380D01*
X100522857Y-106172380D01*
X100427619Y-106124761D01*
X100332380Y-106029523D01*
X100284761Y-105839047D01*
X100284761Y-105505714D01*
X100332380Y-105315238D01*
X100427619Y-105220000D01*
X100522857Y-105172380D01*
X91098095Y-103650000D02*
X91002857Y-103602380D01*
X90860000Y-103602380D01*
X90717142Y-103650000D01*
X90621904Y-103745238D01*
X90574285Y-103840476D01*
X90526666Y-104030952D01*
X90526666Y-104173809D01*
X90574285Y-104364285D01*
X90621904Y-104459523D01*
X90717142Y-104554761D01*
X90860000Y-104602380D01*
X90955238Y-104602380D01*
X91098095Y-104554761D01*
X91145714Y-104507142D01*
X91145714Y-104173809D01*
X90955238Y-104173809D01*
X91574285Y-104602380D02*
X91574285Y-103602380D01*
X92145714Y-104602380D01*
X92145714Y-103602380D01*
X92621904Y-104602380D02*
X92621904Y-103602380D01*
X92860000Y-103602380D01*
X93002857Y-103650000D01*
X93098095Y-103745238D01*
X93145714Y-103840476D01*
X93193333Y-104030952D01*
X93193333Y-104173809D01*
X93145714Y-104364285D01*
X93098095Y-104459523D01*
X93002857Y-104554761D01*
X92860000Y-104602380D01*
X92621904Y-104602380D01*
D11*
X143570000Y-104980000D02*
X155240000Y-104980000D01*
D10*
X144209523Y-104632380D02*
X143638095Y-104632380D01*
X143923809Y-104632380D02*
X143923809Y-103632380D01*
X143828571Y-103775238D01*
X143733333Y-103870476D01*
X143638095Y-103918095D01*
X145066666Y-103632380D02*
X144876190Y-103632380D01*
X144780952Y-103680000D01*
X144733333Y-103727619D01*
X144638095Y-103870476D01*
X144590476Y-104060952D01*
X144590476Y-104441904D01*
X144638095Y-104537142D01*
X144685714Y-104584761D01*
X144780952Y-104632380D01*
X144971428Y-104632380D01*
X145066666Y-104584761D01*
X145114285Y-104537142D01*
X145161904Y-104441904D01*
X145161904Y-104203809D01*
X145114285Y-104108571D01*
X145066666Y-104060952D01*
X144971428Y-104013333D01*
X144780952Y-104013333D01*
X144685714Y-104060952D01*
X144638095Y-104108571D01*
X144590476Y-104203809D01*
X99144285Y-103727619D02*
X99191904Y-103680000D01*
X99287142Y-103632380D01*
X99525238Y-103632380D01*
X99620476Y-103680000D01*
X99668095Y-103727619D01*
X99715714Y-103822857D01*
X99715714Y-103918095D01*
X99668095Y-104060952D01*
X99096666Y-104632380D01*
X99715714Y-104632380D01*
X149144285Y-78727619D02*
X149191904Y-78680000D01*
X149287142Y-78632380D01*
X149525238Y-78632380D01*
X149620476Y-78680000D01*
X149668095Y-78727619D01*
X149715714Y-78822857D01*
X149715714Y-78918095D01*
X149668095Y-79060952D01*
X149096666Y-79632380D01*
X149715714Y-79632380D01*
X146779523Y-79602380D02*
X146208095Y-79602380D01*
X146493809Y-79602380D02*
X146493809Y-78602380D01*
X146398571Y-78745238D01*
X146303333Y-78840476D01*
X146208095Y-78888095D01*
X147160476Y-78697619D02*
X147208095Y-78650000D01*
X147303333Y-78602380D01*
X147541428Y-78602380D01*
X147636666Y-78650000D01*
X147684285Y-78697619D01*
X147731904Y-78792857D01*
X147731904Y-78888095D01*
X147684285Y-79030952D01*
X147112857Y-79602380D01*
X147731904Y-79602380D01*
X98428571Y-93907142D02*
X99571428Y-93907142D01*
X99000000Y-94478571D02*
X99000000Y-93335714D01*
X98428571Y-97907142D02*
X99571428Y-97907142D01*
X133988095Y-97500000D02*
X133892857Y-97452380D01*
X133750000Y-97452380D01*
X133607142Y-97500000D01*
X133511904Y-97595238D01*
X133464285Y-97690476D01*
X133416666Y-97880952D01*
X133416666Y-98023809D01*
X133464285Y-98214285D01*
X133511904Y-98309523D01*
X133607142Y-98404761D01*
X133750000Y-98452380D01*
X133845238Y-98452380D01*
X133988095Y-98404761D01*
X134035714Y-98357142D01*
X134035714Y-98023809D01*
X133845238Y-98023809D01*
X134464285Y-98452380D02*
X134464285Y-97452380D01*
X135035714Y-98452380D01*
X135035714Y-97452380D01*
X135511904Y-98452380D02*
X135511904Y-97452380D01*
X135750000Y-97452380D01*
X135892857Y-97500000D01*
X135988095Y-97595238D01*
X136035714Y-97690476D01*
X136083333Y-97880952D01*
X136083333Y-98023809D01*
X136035714Y-98214285D01*
X135988095Y-98309523D01*
X135892857Y-98404761D01*
X135750000Y-98452380D01*
X135511904Y-98452380D01*
X134083333Y-93452380D02*
X133750000Y-92976190D01*
X133511904Y-93452380D02*
X133511904Y-92452380D01*
X133892857Y-92452380D01*
X133988095Y-92500000D01*
X134035714Y-92547619D01*
X134083333Y-92642857D01*
X134083333Y-92785714D01*
X134035714Y-92880952D01*
X133988095Y-92928571D01*
X133892857Y-92976190D01*
X133511904Y-92976190D01*
X134416666Y-92452380D02*
X135083333Y-93452380D01*
X135083333Y-92452380D02*
X134416666Y-93452380D01*
X135464285Y-93452380D02*
X135464285Y-92452380D01*
X135702380Y-92452380D01*
X135845238Y-92500000D01*
X135940476Y-92595238D01*
X135988095Y-92690476D01*
X136035714Y-92880952D01*
X136035714Y-93023809D01*
X135988095Y-93214285D01*
X135940476Y-93309523D01*
X135845238Y-93404761D01*
X135702380Y-93452380D01*
X135464285Y-93452380D01*
X133416666Y-89952380D02*
X133750000Y-90952380D01*
X134083333Y-89952380D01*
X134988095Y-90857142D02*
X134940476Y-90904761D01*
X134797619Y-90952380D01*
X134702380Y-90952380D01*
X134559523Y-90904761D01*
X134464285Y-90809523D01*
X134416666Y-90714285D01*
X134369047Y-90523809D01*
X134369047Y-90380952D01*
X134416666Y-90190476D01*
X134464285Y-90095238D01*
X134559523Y-90000000D01*
X134702380Y-89952380D01*
X134797619Y-89952380D01*
X134940476Y-90000000D01*
X134988095Y-90047619D01*
X135988095Y-90857142D02*
X135940476Y-90904761D01*
X135797619Y-90952380D01*
X135702380Y-90952380D01*
X135559523Y-90904761D01*
X135464285Y-90809523D01*
X135416666Y-90714285D01*
X135369047Y-90523809D01*
X135369047Y-90380952D01*
X135416666Y-90190476D01*
X135464285Y-90095238D01*
X135559523Y-90000000D01*
X135702380Y-89952380D01*
X135797619Y-89952380D01*
X135940476Y-90000000D01*
X135988095Y-90047619D01*
X134202380Y-88202380D02*
X133869047Y-87726190D01*
X133630952Y-88202380D02*
X133630952Y-87202380D01*
X134011904Y-87202380D01*
X134107142Y-87250000D01*
X134154761Y-87297619D01*
X134202380Y-87392857D01*
X134202380Y-87535714D01*
X134154761Y-87630952D01*
X134107142Y-87678571D01*
X134011904Y-87726190D01*
X133630952Y-87726190D01*
X134488095Y-87202380D02*
X135059523Y-87202380D01*
X134773809Y-88202380D02*
X134773809Y-87202380D01*
X135345238Y-88154761D02*
X135488095Y-88202380D01*
X135726190Y-88202380D01*
X135821428Y-88154761D01*
X135869047Y-88107142D01*
X135916666Y-88011904D01*
X135916666Y-87916666D01*
X135869047Y-87821428D01*
X135821428Y-87773809D01*
X135726190Y-87726190D01*
X135535714Y-87678571D01*
X135440476Y-87630952D01*
X135392857Y-87583333D01*
X135345238Y-87488095D01*
X135345238Y-87392857D01*
X135392857Y-87297619D01*
X135440476Y-87250000D01*
X135535714Y-87202380D01*
X135773809Y-87202380D01*
X135916666Y-87250000D01*
X136857142Y-80702380D02*
X136857142Y-79702380D01*
X137095238Y-79702380D01*
X137238095Y-79750000D01*
X137333333Y-79845238D01*
X137380952Y-79940476D01*
X137428571Y-80130952D01*
X137428571Y-80273809D01*
X137380952Y-80464285D01*
X137333333Y-80559523D01*
X137238095Y-80654761D01*
X137095238Y-80702380D01*
X136857142Y-80702380D01*
X137714285Y-79702380D02*
X138285714Y-79702380D01*
X138000000Y-80702380D02*
X138000000Y-79702380D01*
X139190476Y-80702380D02*
X138857142Y-80226190D01*
X138619047Y-80702380D02*
X138619047Y-79702380D01*
X139000000Y-79702380D01*
X139095238Y-79750000D01*
X139142857Y-79797619D01*
X139190476Y-79892857D01*
X139190476Y-80035714D01*
X139142857Y-80130952D01*
X139095238Y-80178571D01*
X139000000Y-80226190D01*
X138619047Y-80226190D01*
X136738095Y-77952380D02*
X137309523Y-77952380D01*
X137023809Y-78952380D02*
X137023809Y-77952380D01*
X137547619Y-77952380D02*
X138214285Y-78952380D01*
X138214285Y-77952380D02*
X137547619Y-78952380D01*
X138595238Y-78952380D02*
X138595238Y-77952380D01*
X138833333Y-77952380D01*
X138976190Y-78000000D01*
X139071428Y-78095238D01*
X139119047Y-78190476D01*
X139166666Y-78380952D01*
X139166666Y-78523809D01*
X139119047Y-78714285D01*
X139071428Y-78809523D01*
X138976190Y-78904761D01*
X138833333Y-78952380D01*
X138595238Y-78952380D01*
X100027380Y-84833333D02*
X99027380Y-84833333D01*
X99027380Y-84452380D01*
X99075000Y-84357142D01*
X99122619Y-84309523D01*
X99217857Y-84261904D01*
X99360714Y-84261904D01*
X99455952Y-84309523D01*
X99503571Y-84357142D01*
X99551190Y-84452380D01*
X99551190Y-84833333D01*
X99027380Y-83928571D02*
X100027380Y-83690476D01*
X99313095Y-83500000D01*
X100027380Y-83309523D01*
X99027380Y-83071428D01*
X100027380Y-82119047D02*
X99551190Y-82452380D01*
X100027380Y-82690476D02*
X99027380Y-82690476D01*
X99027380Y-82309523D01*
X99075000Y-82214285D01*
X99122619Y-82166666D01*
X99217857Y-82119047D01*
X99360714Y-82119047D01*
X99455952Y-82166666D01*
X99503571Y-82214285D01*
X99551190Y-82309523D01*
X99551190Y-82690476D01*
X101677380Y-84142857D02*
X101677380Y-84619047D01*
X100677380Y-84619047D01*
X101153571Y-83809523D02*
X101153571Y-83476190D01*
X101677380Y-83333333D02*
X101677380Y-83809523D01*
X100677380Y-83809523D01*
X100677380Y-83333333D01*
X101677380Y-82904761D02*
X100677380Y-82904761D01*
X100677380Y-82666666D01*
X100725000Y-82523809D01*
X100820238Y-82428571D01*
X100915476Y-82380952D01*
X101105952Y-82333333D01*
X101248809Y-82333333D01*
X101439285Y-82380952D01*
X101534523Y-82428571D01*
X101629761Y-82523809D01*
X101677380Y-82666666D01*
X101677380Y-82904761D01*
X100027380Y-89783333D02*
X99027380Y-89783333D01*
X99027380Y-89402380D01*
X99075000Y-89307142D01*
X99122619Y-89259523D01*
X99217857Y-89211904D01*
X99360714Y-89211904D01*
X99455952Y-89259523D01*
X99503571Y-89307142D01*
X99551190Y-89402380D01*
X99551190Y-89783333D01*
X99027380Y-88878571D02*
X100027380Y-88640476D01*
X99313095Y-88450000D01*
X100027380Y-88259523D01*
X99027380Y-88021428D01*
X100027380Y-87069047D02*
X99551190Y-87402380D01*
X100027380Y-87640476D02*
X99027380Y-87640476D01*
X99027380Y-87259523D01*
X99075000Y-87164285D01*
X99122619Y-87116666D01*
X99217857Y-87069047D01*
X99360714Y-87069047D01*
X99455952Y-87116666D01*
X99503571Y-87164285D01*
X99551190Y-87259523D01*
X99551190Y-87640476D01*
X101629761Y-89307142D02*
X101677380Y-89164285D01*
X101677380Y-88926190D01*
X101629761Y-88830952D01*
X101582142Y-88783333D01*
X101486904Y-88735714D01*
X101391666Y-88735714D01*
X101296428Y-88783333D01*
X101248809Y-88830952D01*
X101201190Y-88926190D01*
X101153571Y-89116666D01*
X101105952Y-89211904D01*
X101058333Y-89259523D01*
X100963095Y-89307142D01*
X100867857Y-89307142D01*
X100772619Y-89259523D01*
X100725000Y-89211904D01*
X100677380Y-89116666D01*
X100677380Y-88878571D01*
X100725000Y-88735714D01*
X100677380Y-88402380D02*
X101677380Y-88164285D01*
X100963095Y-87973809D01*
X101677380Y-87783333D01*
X100677380Y-87545238D01*
X97769047Y-82071428D02*
X98530952Y-82071428D01*
X97769047Y-84521428D02*
X98530952Y-84521428D01*
X98150000Y-84902380D02*
X98150000Y-84140476D01*
X97769047Y-89621428D02*
X98530952Y-89621428D01*
X98150000Y-90002380D02*
X98150000Y-89240476D01*
X97769047Y-87121428D02*
X98530952Y-87121428D01*
X108947142Y-81352380D02*
X108947142Y-80352380D01*
X109185238Y-80352380D01*
X109328095Y-80400000D01*
X109423333Y-80495238D01*
X109470952Y-80590476D01*
X109518571Y-80780952D01*
X109518571Y-80923809D01*
X109470952Y-81114285D01*
X109423333Y-81209523D01*
X109328095Y-81304761D01*
X109185238Y-81352380D01*
X108947142Y-81352380D01*
X109899523Y-81304761D02*
X110042380Y-81352380D01*
X110280476Y-81352380D01*
X110375714Y-81304761D01*
X110423333Y-81257142D01*
X110470952Y-81161904D01*
X110470952Y-81066666D01*
X110423333Y-80971428D01*
X110375714Y-80923809D01*
X110280476Y-80876190D01*
X110090000Y-80828571D01*
X109994761Y-80780952D01*
X109947142Y-80733333D01*
X109899523Y-80638095D01*
X109899523Y-80542857D01*
X109947142Y-80447619D01*
X109994761Y-80400000D01*
X110090000Y-80352380D01*
X110328095Y-80352380D01*
X110470952Y-80400000D01*
X111423333Y-81352380D02*
X110851904Y-81352380D01*
X111137619Y-81352380D02*
X111137619Y-80352380D01*
X111042380Y-80495238D01*
X110947142Y-80590476D01*
X110851904Y-80638095D01*
X111994761Y-80780952D02*
X111899523Y-80733333D01*
X111851904Y-80685714D01*
X111804285Y-80590476D01*
X111804285Y-80542857D01*
X111851904Y-80447619D01*
X111899523Y-80400000D01*
X111994761Y-80352380D01*
X112185238Y-80352380D01*
X112280476Y-80400000D01*
X112328095Y-80447619D01*
X112375714Y-80542857D01*
X112375714Y-80590476D01*
X112328095Y-80685714D01*
X112280476Y-80733333D01*
X112185238Y-80780952D01*
X111994761Y-80780952D01*
X111899523Y-80828571D01*
X111851904Y-80876190D01*
X111804285Y-80971428D01*
X111804285Y-81161904D01*
X111851904Y-81257142D01*
X111899523Y-81304761D01*
X111994761Y-81352380D01*
X112185238Y-81352380D01*
X112280476Y-81304761D01*
X112328095Y-81257142D01*
X112375714Y-81161904D01*
X112375714Y-80971428D01*
X112328095Y-80876190D01*
X112280476Y-80828571D01*
X112185238Y-80780952D01*
X113137619Y-80828571D02*
X113280476Y-80876190D01*
X113328095Y-80923809D01*
X113375714Y-81019047D01*
X113375714Y-81161904D01*
X113328095Y-81257142D01*
X113280476Y-81304761D01*
X113185238Y-81352380D01*
X112804285Y-81352380D01*
X112804285Y-80352380D01*
X113137619Y-80352380D01*
X113232857Y-80400000D01*
X113280476Y-80447619D01*
X113328095Y-80542857D01*
X113328095Y-80638095D01*
X113280476Y-80733333D01*
X113232857Y-80780952D01*
X113137619Y-80828571D01*
X112804285Y-80828571D01*
X113756666Y-80447619D02*
X113804285Y-80400000D01*
X113899523Y-80352380D01*
X114137619Y-80352380D01*
X114232857Y-80400000D01*
X114280476Y-80447619D01*
X114328095Y-80542857D01*
X114328095Y-80638095D01*
X114280476Y-80780952D01*
X113709047Y-81352380D01*
X114328095Y-81352380D01*
X114947142Y-80352380D02*
X115042380Y-80352380D01*
X115137619Y-80400000D01*
X115185238Y-80447619D01*
X115232857Y-80542857D01*
X115280476Y-80733333D01*
X115280476Y-80971428D01*
X115232857Y-81161904D01*
X115185238Y-81257142D01*
X115137619Y-81304761D01*
X115042380Y-81352380D01*
X114947142Y-81352380D01*
X114851904Y-81304761D01*
X114804285Y-81257142D01*
X114756666Y-81161904D01*
X114709047Y-80971428D01*
X114709047Y-80733333D01*
X114756666Y-80542857D01*
X114804285Y-80447619D01*
X114851904Y-80400000D01*
X114947142Y-80352380D01*
X109169047Y-79121428D02*
X109930952Y-79121428D01*
X109550000Y-79502380D02*
X109550000Y-78740476D01*
X114269047Y-79021428D02*
X115030952Y-79021428D01*
X111888095Y-79602380D02*
X111888095Y-78602380D01*
X112126190Y-78602380D01*
X112269047Y-78650000D01*
X112364285Y-78745238D01*
X112411904Y-78840476D01*
X112459523Y-79030952D01*
X112459523Y-79173809D01*
X112411904Y-79364285D01*
X112364285Y-79459523D01*
X112269047Y-79554761D01*
X112126190Y-79602380D01*
X111888095Y-79602380D01*
X107271428Y-81245714D02*
X107271428Y-80483809D01*
X107652380Y-80864761D02*
X106890476Y-80864761D01*
X106652380Y-79531428D02*
X106652380Y-80007619D01*
X107128571Y-80055238D01*
X107080952Y-80007619D01*
X107033333Y-79912380D01*
X107033333Y-79674285D01*
X107080952Y-79579047D01*
X107128571Y-79531428D01*
X107223809Y-79483809D01*
X107461904Y-79483809D01*
X107557142Y-79531428D01*
X107604761Y-79579047D01*
X107652380Y-79674285D01*
X107652380Y-79912380D01*
X107604761Y-80007619D01*
X107557142Y-80055238D01*
X106652380Y-79198095D02*
X107652380Y-78864761D01*
X106652380Y-78531428D01*
X154720476Y-78965714D02*
X154720476Y-79632380D01*
X154482380Y-78584761D02*
X154244285Y-79299047D01*
X154863333Y-79299047D01*
X148428571Y-93907142D02*
X149571428Y-93907142D01*
X149000000Y-94478571D02*
X149000000Y-93335714D01*
X148428571Y-97907142D02*
X149571428Y-97907142D01*
X183988095Y-97500000D02*
X183892857Y-97452380D01*
X183750000Y-97452380D01*
X183607142Y-97500000D01*
X183511904Y-97595238D01*
X183464285Y-97690476D01*
X183416666Y-97880952D01*
X183416666Y-98023809D01*
X183464285Y-98214285D01*
X183511904Y-98309523D01*
X183607142Y-98404761D01*
X183750000Y-98452380D01*
X183845238Y-98452380D01*
X183988095Y-98404761D01*
X184035714Y-98357142D01*
X184035714Y-98023809D01*
X183845238Y-98023809D01*
X184464285Y-98452380D02*
X184464285Y-97452380D01*
X185035714Y-98452380D01*
X185035714Y-97452380D01*
X185511904Y-98452380D02*
X185511904Y-97452380D01*
X185750000Y-97452380D01*
X185892857Y-97500000D01*
X185988095Y-97595238D01*
X186035714Y-97690476D01*
X186083333Y-97880952D01*
X186083333Y-98023809D01*
X186035714Y-98214285D01*
X185988095Y-98309523D01*
X185892857Y-98404761D01*
X185750000Y-98452380D01*
X185511904Y-98452380D01*
X184083333Y-93452380D02*
X183750000Y-92976190D01*
X183511904Y-93452380D02*
X183511904Y-92452380D01*
X183892857Y-92452380D01*
X183988095Y-92500000D01*
X184035714Y-92547619D01*
X184083333Y-92642857D01*
X184083333Y-92785714D01*
X184035714Y-92880952D01*
X183988095Y-92928571D01*
X183892857Y-92976190D01*
X183511904Y-92976190D01*
X184416666Y-92452380D02*
X185083333Y-93452380D01*
X185083333Y-92452380D02*
X184416666Y-93452380D01*
X185464285Y-93452380D02*
X185464285Y-92452380D01*
X185702380Y-92452380D01*
X185845238Y-92500000D01*
X185940476Y-92595238D01*
X185988095Y-92690476D01*
X186035714Y-92880952D01*
X186035714Y-93023809D01*
X185988095Y-93214285D01*
X185940476Y-93309523D01*
X185845238Y-93404761D01*
X185702380Y-93452380D01*
X185464285Y-93452380D01*
X183416666Y-89952380D02*
X183750000Y-90952380D01*
X184083333Y-89952380D01*
X184988095Y-90857142D02*
X184940476Y-90904761D01*
X184797619Y-90952380D01*
X184702380Y-90952380D01*
X184559523Y-90904761D01*
X184464285Y-90809523D01*
X184416666Y-90714285D01*
X184369047Y-90523809D01*
X184369047Y-90380952D01*
X184416666Y-90190476D01*
X184464285Y-90095238D01*
X184559523Y-90000000D01*
X184702380Y-89952380D01*
X184797619Y-89952380D01*
X184940476Y-90000000D01*
X184988095Y-90047619D01*
X185988095Y-90857142D02*
X185940476Y-90904761D01*
X185797619Y-90952380D01*
X185702380Y-90952380D01*
X185559523Y-90904761D01*
X185464285Y-90809523D01*
X185416666Y-90714285D01*
X185369047Y-90523809D01*
X185369047Y-90380952D01*
X185416666Y-90190476D01*
X185464285Y-90095238D01*
X185559523Y-90000000D01*
X185702380Y-89952380D01*
X185797619Y-89952380D01*
X185940476Y-90000000D01*
X185988095Y-90047619D01*
X184202380Y-88202380D02*
X183869047Y-87726190D01*
X183630952Y-88202380D02*
X183630952Y-87202380D01*
X184011904Y-87202380D01*
X184107142Y-87250000D01*
X184154761Y-87297619D01*
X184202380Y-87392857D01*
X184202380Y-87535714D01*
X184154761Y-87630952D01*
X184107142Y-87678571D01*
X184011904Y-87726190D01*
X183630952Y-87726190D01*
X184488095Y-87202380D02*
X185059523Y-87202380D01*
X184773809Y-88202380D02*
X184773809Y-87202380D01*
X185345238Y-88154761D02*
X185488095Y-88202380D01*
X185726190Y-88202380D01*
X185821428Y-88154761D01*
X185869047Y-88107142D01*
X185916666Y-88011904D01*
X185916666Y-87916666D01*
X185869047Y-87821428D01*
X185821428Y-87773809D01*
X185726190Y-87726190D01*
X185535714Y-87678571D01*
X185440476Y-87630952D01*
X185392857Y-87583333D01*
X185345238Y-87488095D01*
X185345238Y-87392857D01*
X185392857Y-87297619D01*
X185440476Y-87250000D01*
X185535714Y-87202380D01*
X185773809Y-87202380D01*
X185916666Y-87250000D01*
X186857142Y-80702380D02*
X186857142Y-79702380D01*
X187095238Y-79702380D01*
X187238095Y-79750000D01*
X187333333Y-79845238D01*
X187380952Y-79940476D01*
X187428571Y-80130952D01*
X187428571Y-80273809D01*
X187380952Y-80464285D01*
X187333333Y-80559523D01*
X187238095Y-80654761D01*
X187095238Y-80702380D01*
X186857142Y-80702380D01*
X187714285Y-79702380D02*
X188285714Y-79702380D01*
X188000000Y-80702380D02*
X188000000Y-79702380D01*
X189190476Y-80702380D02*
X188857142Y-80226190D01*
X188619047Y-80702380D02*
X188619047Y-79702380D01*
X189000000Y-79702380D01*
X189095238Y-79750000D01*
X189142857Y-79797619D01*
X189190476Y-79892857D01*
X189190476Y-80035714D01*
X189142857Y-80130952D01*
X189095238Y-80178571D01*
X189000000Y-80226190D01*
X188619047Y-80226190D01*
X186738095Y-77952380D02*
X187309523Y-77952380D01*
X187023809Y-78952380D02*
X187023809Y-77952380D01*
X187547619Y-77952380D02*
X188214285Y-78952380D01*
X188214285Y-77952380D02*
X187547619Y-78952380D01*
X188595238Y-78952380D02*
X188595238Y-77952380D01*
X188833333Y-77952380D01*
X188976190Y-78000000D01*
X189071428Y-78095238D01*
X189119047Y-78190476D01*
X189166666Y-78380952D01*
X189166666Y-78523809D01*
X189119047Y-78714285D01*
X189071428Y-78809523D01*
X188976190Y-78904761D01*
X188833333Y-78952380D01*
X188595238Y-78952380D01*
X150027380Y-84833333D02*
X149027380Y-84833333D01*
X149027380Y-84452380D01*
X149075000Y-84357142D01*
X149122619Y-84309523D01*
X149217857Y-84261904D01*
X149360714Y-84261904D01*
X149455952Y-84309523D01*
X149503571Y-84357142D01*
X149551190Y-84452380D01*
X149551190Y-84833333D01*
X149027380Y-83928571D02*
X150027380Y-83690476D01*
X149313095Y-83500000D01*
X150027380Y-83309523D01*
X149027380Y-83071428D01*
X150027380Y-82119047D02*
X149551190Y-82452380D01*
X150027380Y-82690476D02*
X149027380Y-82690476D01*
X149027380Y-82309523D01*
X149075000Y-82214285D01*
X149122619Y-82166666D01*
X149217857Y-82119047D01*
X149360714Y-82119047D01*
X149455952Y-82166666D01*
X149503571Y-82214285D01*
X149551190Y-82309523D01*
X149551190Y-82690476D01*
X151677380Y-84142857D02*
X151677380Y-84619047D01*
X150677380Y-84619047D01*
X151153571Y-83809523D02*
X151153571Y-83476190D01*
X151677380Y-83333333D02*
X151677380Y-83809523D01*
X150677380Y-83809523D01*
X150677380Y-83333333D01*
X151677380Y-82904761D02*
X150677380Y-82904761D01*
X150677380Y-82666666D01*
X150725000Y-82523809D01*
X150820238Y-82428571D01*
X150915476Y-82380952D01*
X151105952Y-82333333D01*
X151248809Y-82333333D01*
X151439285Y-82380952D01*
X151534523Y-82428571D01*
X151629761Y-82523809D01*
X151677380Y-82666666D01*
X151677380Y-82904761D01*
X150027380Y-89783333D02*
X149027380Y-89783333D01*
X149027380Y-89402380D01*
X149075000Y-89307142D01*
X149122619Y-89259523D01*
X149217857Y-89211904D01*
X149360714Y-89211904D01*
X149455952Y-89259523D01*
X149503571Y-89307142D01*
X149551190Y-89402380D01*
X149551190Y-89783333D01*
X149027380Y-88878571D02*
X150027380Y-88640476D01*
X149313095Y-88450000D01*
X150027380Y-88259523D01*
X149027380Y-88021428D01*
X150027380Y-87069047D02*
X149551190Y-87402380D01*
X150027380Y-87640476D02*
X149027380Y-87640476D01*
X149027380Y-87259523D01*
X149075000Y-87164285D01*
X149122619Y-87116666D01*
X149217857Y-87069047D01*
X149360714Y-87069047D01*
X149455952Y-87116666D01*
X149503571Y-87164285D01*
X149551190Y-87259523D01*
X149551190Y-87640476D01*
X151629761Y-89307142D02*
X151677380Y-89164285D01*
X151677380Y-88926190D01*
X151629761Y-88830952D01*
X151582142Y-88783333D01*
X151486904Y-88735714D01*
X151391666Y-88735714D01*
X151296428Y-88783333D01*
X151248809Y-88830952D01*
X151201190Y-88926190D01*
X151153571Y-89116666D01*
X151105952Y-89211904D01*
X151058333Y-89259523D01*
X150963095Y-89307142D01*
X150867857Y-89307142D01*
X150772619Y-89259523D01*
X150725000Y-89211904D01*
X150677380Y-89116666D01*
X150677380Y-88878571D01*
X150725000Y-88735714D01*
X150677380Y-88402380D02*
X151677380Y-88164285D01*
X150963095Y-87973809D01*
X151677380Y-87783333D01*
X150677380Y-87545238D01*
X147769047Y-82071428D02*
X148530952Y-82071428D01*
X147769047Y-84521428D02*
X148530952Y-84521428D01*
X148150000Y-84902380D02*
X148150000Y-84140476D01*
X147769047Y-89621428D02*
X148530952Y-89621428D01*
X148150000Y-90002380D02*
X148150000Y-89240476D01*
X147769047Y-87121428D02*
X148530952Y-87121428D01*
X158947142Y-81352380D02*
X158947142Y-80352380D01*
X159185238Y-80352380D01*
X159328095Y-80400000D01*
X159423333Y-80495238D01*
X159470952Y-80590476D01*
X159518571Y-80780952D01*
X159518571Y-80923809D01*
X159470952Y-81114285D01*
X159423333Y-81209523D01*
X159328095Y-81304761D01*
X159185238Y-81352380D01*
X158947142Y-81352380D01*
X159899523Y-81304761D02*
X160042380Y-81352380D01*
X160280476Y-81352380D01*
X160375714Y-81304761D01*
X160423333Y-81257142D01*
X160470952Y-81161904D01*
X160470952Y-81066666D01*
X160423333Y-80971428D01*
X160375714Y-80923809D01*
X160280476Y-80876190D01*
X160090000Y-80828571D01*
X159994761Y-80780952D01*
X159947142Y-80733333D01*
X159899523Y-80638095D01*
X159899523Y-80542857D01*
X159947142Y-80447619D01*
X159994761Y-80400000D01*
X160090000Y-80352380D01*
X160328095Y-80352380D01*
X160470952Y-80400000D01*
X161423333Y-81352380D02*
X160851904Y-81352380D01*
X161137619Y-81352380D02*
X161137619Y-80352380D01*
X161042380Y-80495238D01*
X160947142Y-80590476D01*
X160851904Y-80638095D01*
X161994761Y-80780952D02*
X161899523Y-80733333D01*
X161851904Y-80685714D01*
X161804285Y-80590476D01*
X161804285Y-80542857D01*
X161851904Y-80447619D01*
X161899523Y-80400000D01*
X161994761Y-80352380D01*
X162185238Y-80352380D01*
X162280476Y-80400000D01*
X162328095Y-80447619D01*
X162375714Y-80542857D01*
X162375714Y-80590476D01*
X162328095Y-80685714D01*
X162280476Y-80733333D01*
X162185238Y-80780952D01*
X161994761Y-80780952D01*
X161899523Y-80828571D01*
X161851904Y-80876190D01*
X161804285Y-80971428D01*
X161804285Y-81161904D01*
X161851904Y-81257142D01*
X161899523Y-81304761D01*
X161994761Y-81352380D01*
X162185238Y-81352380D01*
X162280476Y-81304761D01*
X162328095Y-81257142D01*
X162375714Y-81161904D01*
X162375714Y-80971428D01*
X162328095Y-80876190D01*
X162280476Y-80828571D01*
X162185238Y-80780952D01*
X163137619Y-80828571D02*
X163280476Y-80876190D01*
X163328095Y-80923809D01*
X163375714Y-81019047D01*
X163375714Y-81161904D01*
X163328095Y-81257142D01*
X163280476Y-81304761D01*
X163185238Y-81352380D01*
X162804285Y-81352380D01*
X162804285Y-80352380D01*
X163137619Y-80352380D01*
X163232857Y-80400000D01*
X163280476Y-80447619D01*
X163328095Y-80542857D01*
X163328095Y-80638095D01*
X163280476Y-80733333D01*
X163232857Y-80780952D01*
X163137619Y-80828571D01*
X162804285Y-80828571D01*
X163756666Y-80447619D02*
X163804285Y-80400000D01*
X163899523Y-80352380D01*
X164137619Y-80352380D01*
X164232857Y-80400000D01*
X164280476Y-80447619D01*
X164328095Y-80542857D01*
X164328095Y-80638095D01*
X164280476Y-80780952D01*
X163709047Y-81352380D01*
X164328095Y-81352380D01*
X164947142Y-80352380D02*
X165042380Y-80352380D01*
X165137619Y-80400000D01*
X165185238Y-80447619D01*
X165232857Y-80542857D01*
X165280476Y-80733333D01*
X165280476Y-80971428D01*
X165232857Y-81161904D01*
X165185238Y-81257142D01*
X165137619Y-81304761D01*
X165042380Y-81352380D01*
X164947142Y-81352380D01*
X164851904Y-81304761D01*
X164804285Y-81257142D01*
X164756666Y-81161904D01*
X164709047Y-80971428D01*
X164709047Y-80733333D01*
X164756666Y-80542857D01*
X164804285Y-80447619D01*
X164851904Y-80400000D01*
X164947142Y-80352380D01*
X159169047Y-79121428D02*
X159930952Y-79121428D01*
X159550000Y-79502380D02*
X159550000Y-78740476D01*
X164269047Y-79021428D02*
X165030952Y-79021428D01*
X161888095Y-79602380D02*
X161888095Y-78602380D01*
X162126190Y-78602380D01*
X162269047Y-78650000D01*
X162364285Y-78745238D01*
X162411904Y-78840476D01*
X162459523Y-79030952D01*
X162459523Y-79173809D01*
X162411904Y-79364285D01*
X162364285Y-79459523D01*
X162269047Y-79554761D01*
X162126190Y-79602380D01*
X161888095Y-79602380D01*
X157271428Y-81245714D02*
X157271428Y-80483809D01*
X157652380Y-80864761D02*
X156890476Y-80864761D01*
X156652380Y-79531428D02*
X156652380Y-80007619D01*
X157128571Y-80055238D01*
X157080952Y-80007619D01*
X157033333Y-79912380D01*
X157033333Y-79674285D01*
X157080952Y-79579047D01*
X157128571Y-79531428D01*
X157223809Y-79483809D01*
X157461904Y-79483809D01*
X157557142Y-79531428D01*
X157604761Y-79579047D01*
X157652380Y-79674285D01*
X157652380Y-79912380D01*
X157604761Y-80007619D01*
X157557142Y-80055238D01*
X156652380Y-79198095D02*
X157652380Y-78864761D01*
X156652380Y-78531428D01*
X148380000Y-80220000D02*
X148284761Y-80172380D01*
X148141904Y-80172380D01*
X147999047Y-80220000D01*
X147903809Y-80315238D01*
X147856190Y-80410476D01*
X147808571Y-80600952D01*
X147808571Y-80743809D01*
X147856190Y-80934285D01*
X147903809Y-81029523D01*
X147999047Y-81124761D01*
X148141904Y-81172380D01*
X148237142Y-81172380D01*
X148380000Y-81124761D01*
X148427619Y-81077142D01*
X148427619Y-80743809D01*
X148237142Y-80743809D01*
X148856190Y-81172380D02*
X148856190Y-80172380D01*
X149237142Y-80172380D01*
X149332380Y-80220000D01*
X149380000Y-80267619D01*
X149427619Y-80362857D01*
X149427619Y-80505714D01*
X149380000Y-80600952D01*
X149332380Y-80648571D01*
X149237142Y-80696190D01*
X148856190Y-80696190D01*
X149856190Y-81172380D02*
X149856190Y-80172380D01*
X150522857Y-80172380D02*
X150713333Y-80172380D01*
X150808571Y-80220000D01*
X150903809Y-80315238D01*
X150951428Y-80505714D01*
X150951428Y-80839047D01*
X150903809Y-81029523D01*
X150808571Y-81124761D01*
X150713333Y-81172380D01*
X150522857Y-81172380D01*
X150427619Y-81124761D01*
X150332380Y-81029523D01*
X150284761Y-80839047D01*
X150284761Y-80505714D01*
X150332380Y-80315238D01*
X150427619Y-80220000D01*
X150522857Y-80172380D01*
X141098095Y-78650000D02*
X141002857Y-78602380D01*
X140860000Y-78602380D01*
X140717142Y-78650000D01*
X140621904Y-78745238D01*
X140574285Y-78840476D01*
X140526666Y-79030952D01*
X140526666Y-79173809D01*
X140574285Y-79364285D01*
X140621904Y-79459523D01*
X140717142Y-79554761D01*
X140860000Y-79602380D01*
X140955238Y-79602380D01*
X141098095Y-79554761D01*
X141145714Y-79507142D01*
X141145714Y-79173809D01*
X140955238Y-79173809D01*
X141574285Y-79602380D02*
X141574285Y-78602380D01*
X142145714Y-79602380D01*
X142145714Y-78602380D01*
X142621904Y-79602380D02*
X142621904Y-78602380D01*
X142860000Y-78602380D01*
X143002857Y-78650000D01*
X143098095Y-78745238D01*
X143145714Y-78840476D01*
X143193333Y-79030952D01*
X143193333Y-79173809D01*
X143145714Y-79364285D01*
X143098095Y-79459523D01*
X143002857Y-79554761D01*
X142860000Y-79602380D01*
X142621904Y-79602380D01*
D11*
X143570000Y-79980000D02*
X155240000Y-79980000D01*
D10*
X151892380Y-78632380D02*
X151987619Y-78632380D01*
X152082857Y-78680000D01*
X152130476Y-78727619D01*
X152178095Y-78822857D01*
X152225714Y-79013333D01*
X152225714Y-79251428D01*
X152178095Y-79441904D01*
X152130476Y-79537142D01*
X152082857Y-79584761D01*
X151987619Y-79632380D01*
X151892380Y-79632380D01*
X151797142Y-79584761D01*
X151749523Y-79537142D01*
X151701904Y-79441904D01*
X151654285Y-79251428D01*
X151654285Y-79013333D01*
X151701904Y-78822857D01*
X151749523Y-78727619D01*
X151797142Y-78680000D01*
X151892380Y-78632380D01*
X144209523Y-79632380D02*
X143638095Y-79632380D01*
X143923809Y-79632380D02*
X143923809Y-78632380D01*
X143828571Y-78775238D01*
X143733333Y-78870476D01*
X143638095Y-78918095D01*
X145066666Y-78632380D02*
X144876190Y-78632380D01*
X144780952Y-78680000D01*
X144733333Y-78727619D01*
X144638095Y-78870476D01*
X144590476Y-79060952D01*
X144590476Y-79441904D01*
X144638095Y-79537142D01*
X144685714Y-79584761D01*
X144780952Y-79632380D01*
X144971428Y-79632380D01*
X145066666Y-79584761D01*
X145114285Y-79537142D01*
X145161904Y-79441904D01*
X145161904Y-79203809D01*
X145114285Y-79108571D01*
X145066666Y-79060952D01*
X144971428Y-79013333D01*
X144780952Y-79013333D01*
X144685714Y-79060952D01*
X144638095Y-79108571D01*
X144590476Y-79203809D01*
X104720476Y-78965714D02*
X104720476Y-79632380D01*
X104482380Y-78584761D02*
X104244285Y-79299047D01*
X104863333Y-79299047D01*
X101892380Y-78632380D02*
X101987619Y-78632380D01*
X102082857Y-78680000D01*
X102130476Y-78727619D01*
X102178095Y-78822857D01*
X102225714Y-79013333D01*
X102225714Y-79251428D01*
X102178095Y-79441904D01*
X102130476Y-79537142D01*
X102082857Y-79584761D01*
X101987619Y-79632380D01*
X101892380Y-79632380D01*
X101797142Y-79584761D01*
X101749523Y-79537142D01*
X101701904Y-79441904D01*
X101654285Y-79251428D01*
X101654285Y-79013333D01*
X101701904Y-78822857D01*
X101749523Y-78727619D01*
X101797142Y-78680000D01*
X101892380Y-78632380D01*
X99144285Y-78727619D02*
X99191904Y-78680000D01*
X99287142Y-78632380D01*
X99525238Y-78632380D01*
X99620476Y-78680000D01*
X99668095Y-78727619D01*
X99715714Y-78822857D01*
X99715714Y-78918095D01*
X99668095Y-79060952D01*
X99096666Y-79632380D01*
X99715714Y-79632380D01*
X96779523Y-79602380D02*
X96208095Y-79602380D01*
X96493809Y-79602380D02*
X96493809Y-78602380D01*
X96398571Y-78745238D01*
X96303333Y-78840476D01*
X96208095Y-78888095D01*
X97160476Y-78697619D02*
X97208095Y-78650000D01*
X97303333Y-78602380D01*
X97541428Y-78602380D01*
X97636666Y-78650000D01*
X97684285Y-78697619D01*
X97731904Y-78792857D01*
X97731904Y-78888095D01*
X97684285Y-79030952D01*
X97112857Y-79602380D01*
X97731904Y-79602380D01*
X94209523Y-79632380D02*
X93638095Y-79632380D01*
X93923809Y-79632380D02*
X93923809Y-78632380D01*
X93828571Y-78775238D01*
X93733333Y-78870476D01*
X93638095Y-78918095D01*
X95066666Y-78632380D02*
X94876190Y-78632380D01*
X94780952Y-78680000D01*
X94733333Y-78727619D01*
X94638095Y-78870476D01*
X94590476Y-79060952D01*
X94590476Y-79441904D01*
X94638095Y-79537142D01*
X94685714Y-79584761D01*
X94780952Y-79632380D01*
X94971428Y-79632380D01*
X95066666Y-79584761D01*
X95114285Y-79537142D01*
X95161904Y-79441904D01*
X95161904Y-79203809D01*
X95114285Y-79108571D01*
X95066666Y-79060952D01*
X94971428Y-79013333D01*
X94780952Y-79013333D01*
X94685714Y-79060952D01*
X94638095Y-79108571D01*
X94590476Y-79203809D01*
D11*
X93570000Y-79980000D02*
X105240000Y-79980000D01*
D10*
X98380000Y-80220000D02*
X98284761Y-80172380D01*
X98141904Y-80172380D01*
X97999047Y-80220000D01*
X97903809Y-80315238D01*
X97856190Y-80410476D01*
X97808571Y-80600952D01*
X97808571Y-80743809D01*
X97856190Y-80934285D01*
X97903809Y-81029523D01*
X97999047Y-81124761D01*
X98141904Y-81172380D01*
X98237142Y-81172380D01*
X98380000Y-81124761D01*
X98427619Y-81077142D01*
X98427619Y-80743809D01*
X98237142Y-80743809D01*
X98856190Y-81172380D02*
X98856190Y-80172380D01*
X99237142Y-80172380D01*
X99332380Y-80220000D01*
X99380000Y-80267619D01*
X99427619Y-80362857D01*
X99427619Y-80505714D01*
X99380000Y-80600952D01*
X99332380Y-80648571D01*
X99237142Y-80696190D01*
X98856190Y-80696190D01*
X99856190Y-81172380D02*
X99856190Y-80172380D01*
X100522857Y-80172380D02*
X100713333Y-80172380D01*
X100808571Y-80220000D01*
X100903809Y-80315238D01*
X100951428Y-80505714D01*
X100951428Y-80839047D01*
X100903809Y-81029523D01*
X100808571Y-81124761D01*
X100713333Y-81172380D01*
X100522857Y-81172380D01*
X100427619Y-81124761D01*
X100332380Y-81029523D01*
X100284761Y-80839047D01*
X100284761Y-80505714D01*
X100332380Y-80315238D01*
X100427619Y-80220000D01*
X100522857Y-80172380D01*
X91098095Y-78650000D02*
X91002857Y-78602380D01*
X90860000Y-78602380D01*
X90717142Y-78650000D01*
X90621904Y-78745238D01*
X90574285Y-78840476D01*
X90526666Y-79030952D01*
X90526666Y-79173809D01*
X90574285Y-79364285D01*
X90621904Y-79459523D01*
X90717142Y-79554761D01*
X90860000Y-79602380D01*
X90955238Y-79602380D01*
X91098095Y-79554761D01*
X91145714Y-79507142D01*
X91145714Y-79173809D01*
X90955238Y-79173809D01*
X91574285Y-79602380D02*
X91574285Y-78602380D01*
X92145714Y-79602380D01*
X92145714Y-78602380D01*
X92621904Y-79602380D02*
X92621904Y-78602380D01*
X92860000Y-78602380D01*
X93002857Y-78650000D01*
X93098095Y-78745238D01*
X93145714Y-78840476D01*
X93193333Y-79030952D01*
X93193333Y-79173809D01*
X93145714Y-79364285D01*
X93098095Y-79459523D01*
X93002857Y-79554761D01*
X92860000Y-79602380D01*
X92621904Y-79602380D01*
X148428571Y-68907142D02*
X149571428Y-68907142D01*
X149000000Y-69478571D02*
X149000000Y-68335714D01*
X148428571Y-72907142D02*
X149571428Y-72907142D01*
X183988095Y-72500000D02*
X183892857Y-72452380D01*
X183750000Y-72452380D01*
X183607142Y-72500000D01*
X183511904Y-72595238D01*
X183464285Y-72690476D01*
X183416666Y-72880952D01*
X183416666Y-73023809D01*
X183464285Y-73214285D01*
X183511904Y-73309523D01*
X183607142Y-73404761D01*
X183750000Y-73452380D01*
X183845238Y-73452380D01*
X183988095Y-73404761D01*
X184035714Y-73357142D01*
X184035714Y-73023809D01*
X183845238Y-73023809D01*
X184464285Y-73452380D02*
X184464285Y-72452380D01*
X185035714Y-73452380D01*
X185035714Y-72452380D01*
X185511904Y-73452380D02*
X185511904Y-72452380D01*
X185750000Y-72452380D01*
X185892857Y-72500000D01*
X185988095Y-72595238D01*
X186035714Y-72690476D01*
X186083333Y-72880952D01*
X186083333Y-73023809D01*
X186035714Y-73214285D01*
X185988095Y-73309523D01*
X185892857Y-73404761D01*
X185750000Y-73452380D01*
X185511904Y-73452380D01*
X184083333Y-68452380D02*
X183750000Y-67976190D01*
X183511904Y-68452380D02*
X183511904Y-67452380D01*
X183892857Y-67452380D01*
X183988095Y-67500000D01*
X184035714Y-67547619D01*
X184083333Y-67642857D01*
X184083333Y-67785714D01*
X184035714Y-67880952D01*
X183988095Y-67928571D01*
X183892857Y-67976190D01*
X183511904Y-67976190D01*
X184416666Y-67452380D02*
X185083333Y-68452380D01*
X185083333Y-67452380D02*
X184416666Y-68452380D01*
X185464285Y-68452380D02*
X185464285Y-67452380D01*
X185702380Y-67452380D01*
X185845238Y-67500000D01*
X185940476Y-67595238D01*
X185988095Y-67690476D01*
X186035714Y-67880952D01*
X186035714Y-68023809D01*
X185988095Y-68214285D01*
X185940476Y-68309523D01*
X185845238Y-68404761D01*
X185702380Y-68452380D01*
X185464285Y-68452380D01*
X183416666Y-64952380D02*
X183750000Y-65952380D01*
X184083333Y-64952380D01*
X184988095Y-65857142D02*
X184940476Y-65904761D01*
X184797619Y-65952380D01*
X184702380Y-65952380D01*
X184559523Y-65904761D01*
X184464285Y-65809523D01*
X184416666Y-65714285D01*
X184369047Y-65523809D01*
X184369047Y-65380952D01*
X184416666Y-65190476D01*
X184464285Y-65095238D01*
X184559523Y-65000000D01*
X184702380Y-64952380D01*
X184797619Y-64952380D01*
X184940476Y-65000000D01*
X184988095Y-65047619D01*
X185988095Y-65857142D02*
X185940476Y-65904761D01*
X185797619Y-65952380D01*
X185702380Y-65952380D01*
X185559523Y-65904761D01*
X185464285Y-65809523D01*
X185416666Y-65714285D01*
X185369047Y-65523809D01*
X185369047Y-65380952D01*
X185416666Y-65190476D01*
X185464285Y-65095238D01*
X185559523Y-65000000D01*
X185702380Y-64952380D01*
X185797619Y-64952380D01*
X185940476Y-65000000D01*
X185988095Y-65047619D01*
X184202380Y-63202380D02*
X183869047Y-62726190D01*
X183630952Y-63202380D02*
X183630952Y-62202380D01*
X184011904Y-62202380D01*
X184107142Y-62250000D01*
X184154761Y-62297619D01*
X184202380Y-62392857D01*
X184202380Y-62535714D01*
X184154761Y-62630952D01*
X184107142Y-62678571D01*
X184011904Y-62726190D01*
X183630952Y-62726190D01*
X184488095Y-62202380D02*
X185059523Y-62202380D01*
X184773809Y-63202380D02*
X184773809Y-62202380D01*
X185345238Y-63154761D02*
X185488095Y-63202380D01*
X185726190Y-63202380D01*
X185821428Y-63154761D01*
X185869047Y-63107142D01*
X185916666Y-63011904D01*
X185916666Y-62916666D01*
X185869047Y-62821428D01*
X185821428Y-62773809D01*
X185726190Y-62726190D01*
X185535714Y-62678571D01*
X185440476Y-62630952D01*
X185392857Y-62583333D01*
X185345238Y-62488095D01*
X185345238Y-62392857D01*
X185392857Y-62297619D01*
X185440476Y-62250000D01*
X185535714Y-62202380D01*
X185773809Y-62202380D01*
X185916666Y-62250000D01*
X186857142Y-55702380D02*
X186857142Y-54702380D01*
X187095238Y-54702380D01*
X187238095Y-54750000D01*
X187333333Y-54845238D01*
X187380952Y-54940476D01*
X187428571Y-55130952D01*
X187428571Y-55273809D01*
X187380952Y-55464285D01*
X187333333Y-55559523D01*
X187238095Y-55654761D01*
X187095238Y-55702380D01*
X186857142Y-55702380D01*
X187714285Y-54702380D02*
X188285714Y-54702380D01*
X188000000Y-55702380D02*
X188000000Y-54702380D01*
X189190476Y-55702380D02*
X188857142Y-55226190D01*
X188619047Y-55702380D02*
X188619047Y-54702380D01*
X189000000Y-54702380D01*
X189095238Y-54750000D01*
X189142857Y-54797619D01*
X189190476Y-54892857D01*
X189190476Y-55035714D01*
X189142857Y-55130952D01*
X189095238Y-55178571D01*
X189000000Y-55226190D01*
X188619047Y-55226190D01*
X186738095Y-52952380D02*
X187309523Y-52952380D01*
X187023809Y-53952380D02*
X187023809Y-52952380D01*
X187547619Y-52952380D02*
X188214285Y-53952380D01*
X188214285Y-52952380D02*
X187547619Y-53952380D01*
X188595238Y-53952380D02*
X188595238Y-52952380D01*
X188833333Y-52952380D01*
X188976190Y-53000000D01*
X189071428Y-53095238D01*
X189119047Y-53190476D01*
X189166666Y-53380952D01*
X189166666Y-53523809D01*
X189119047Y-53714285D01*
X189071428Y-53809523D01*
X188976190Y-53904761D01*
X188833333Y-53952380D01*
X188595238Y-53952380D01*
X150027380Y-59833333D02*
X149027380Y-59833333D01*
X149027380Y-59452380D01*
X149075000Y-59357142D01*
X149122619Y-59309523D01*
X149217857Y-59261904D01*
X149360714Y-59261904D01*
X149455952Y-59309523D01*
X149503571Y-59357142D01*
X149551190Y-59452380D01*
X149551190Y-59833333D01*
X149027380Y-58928571D02*
X150027380Y-58690476D01*
X149313095Y-58500000D01*
X150027380Y-58309523D01*
X149027380Y-58071428D01*
X150027380Y-57119047D02*
X149551190Y-57452380D01*
X150027380Y-57690476D02*
X149027380Y-57690476D01*
X149027380Y-57309523D01*
X149075000Y-57214285D01*
X149122619Y-57166666D01*
X149217857Y-57119047D01*
X149360714Y-57119047D01*
X149455952Y-57166666D01*
X149503571Y-57214285D01*
X149551190Y-57309523D01*
X149551190Y-57690476D01*
X151677380Y-59142857D02*
X151677380Y-59619047D01*
X150677380Y-59619047D01*
X151153571Y-58809523D02*
X151153571Y-58476190D01*
X151677380Y-58333333D02*
X151677380Y-58809523D01*
X150677380Y-58809523D01*
X150677380Y-58333333D01*
X151677380Y-57904761D02*
X150677380Y-57904761D01*
X150677380Y-57666666D01*
X150725000Y-57523809D01*
X150820238Y-57428571D01*
X150915476Y-57380952D01*
X151105952Y-57333333D01*
X151248809Y-57333333D01*
X151439285Y-57380952D01*
X151534523Y-57428571D01*
X151629761Y-57523809D01*
X151677380Y-57666666D01*
X151677380Y-57904761D01*
X150027380Y-64783333D02*
X149027380Y-64783333D01*
X149027380Y-64402380D01*
X149075000Y-64307142D01*
X149122619Y-64259523D01*
X149217857Y-64211904D01*
X149360714Y-64211904D01*
X149455952Y-64259523D01*
X149503571Y-64307142D01*
X149551190Y-64402380D01*
X149551190Y-64783333D01*
X149027380Y-63878571D02*
X150027380Y-63640476D01*
X149313095Y-63450000D01*
X150027380Y-63259523D01*
X149027380Y-63021428D01*
X150027380Y-62069047D02*
X149551190Y-62402380D01*
X150027380Y-62640476D02*
X149027380Y-62640476D01*
X149027380Y-62259523D01*
X149075000Y-62164285D01*
X149122619Y-62116666D01*
X149217857Y-62069047D01*
X149360714Y-62069047D01*
X149455952Y-62116666D01*
X149503571Y-62164285D01*
X149551190Y-62259523D01*
X149551190Y-62640476D01*
X151629761Y-64307142D02*
X151677380Y-64164285D01*
X151677380Y-63926190D01*
X151629761Y-63830952D01*
X151582142Y-63783333D01*
X151486904Y-63735714D01*
X151391666Y-63735714D01*
X151296428Y-63783333D01*
X151248809Y-63830952D01*
X151201190Y-63926190D01*
X151153571Y-64116666D01*
X151105952Y-64211904D01*
X151058333Y-64259523D01*
X150963095Y-64307142D01*
X150867857Y-64307142D01*
X150772619Y-64259523D01*
X150725000Y-64211904D01*
X150677380Y-64116666D01*
X150677380Y-63878571D01*
X150725000Y-63735714D01*
X150677380Y-63402380D02*
X151677380Y-63164285D01*
X150963095Y-62973809D01*
X151677380Y-62783333D01*
X150677380Y-62545238D01*
X147769047Y-57071428D02*
X148530952Y-57071428D01*
X147769047Y-59521428D02*
X148530952Y-59521428D01*
X148150000Y-59902380D02*
X148150000Y-59140476D01*
X147769047Y-64621428D02*
X148530952Y-64621428D01*
X148150000Y-65002380D02*
X148150000Y-64240476D01*
X147769047Y-62121428D02*
X148530952Y-62121428D01*
X158947142Y-56352380D02*
X158947142Y-55352380D01*
X159185238Y-55352380D01*
X159328095Y-55400000D01*
X159423333Y-55495238D01*
X159470952Y-55590476D01*
X159518571Y-55780952D01*
X159518571Y-55923809D01*
X159470952Y-56114285D01*
X159423333Y-56209523D01*
X159328095Y-56304761D01*
X159185238Y-56352380D01*
X158947142Y-56352380D01*
X159899523Y-56304761D02*
X160042380Y-56352380D01*
X160280476Y-56352380D01*
X160375714Y-56304761D01*
X160423333Y-56257142D01*
X160470952Y-56161904D01*
X160470952Y-56066666D01*
X160423333Y-55971428D01*
X160375714Y-55923809D01*
X160280476Y-55876190D01*
X160090000Y-55828571D01*
X159994761Y-55780952D01*
X159947142Y-55733333D01*
X159899523Y-55638095D01*
X159899523Y-55542857D01*
X159947142Y-55447619D01*
X159994761Y-55400000D01*
X160090000Y-55352380D01*
X160328095Y-55352380D01*
X160470952Y-55400000D01*
X161423333Y-56352380D02*
X160851904Y-56352380D01*
X161137619Y-56352380D02*
X161137619Y-55352380D01*
X161042380Y-55495238D01*
X160947142Y-55590476D01*
X160851904Y-55638095D01*
X161994761Y-55780952D02*
X161899523Y-55733333D01*
X161851904Y-55685714D01*
X161804285Y-55590476D01*
X161804285Y-55542857D01*
X161851904Y-55447619D01*
X161899523Y-55400000D01*
X161994761Y-55352380D01*
X162185238Y-55352380D01*
X162280476Y-55400000D01*
X162328095Y-55447619D01*
X162375714Y-55542857D01*
X162375714Y-55590476D01*
X162328095Y-55685714D01*
X162280476Y-55733333D01*
X162185238Y-55780952D01*
X161994761Y-55780952D01*
X161899523Y-55828571D01*
X161851904Y-55876190D01*
X161804285Y-55971428D01*
X161804285Y-56161904D01*
X161851904Y-56257142D01*
X161899523Y-56304761D01*
X161994761Y-56352380D01*
X162185238Y-56352380D01*
X162280476Y-56304761D01*
X162328095Y-56257142D01*
X162375714Y-56161904D01*
X162375714Y-55971428D01*
X162328095Y-55876190D01*
X162280476Y-55828571D01*
X162185238Y-55780952D01*
X163137619Y-55828571D02*
X163280476Y-55876190D01*
X163328095Y-55923809D01*
X163375714Y-56019047D01*
X163375714Y-56161904D01*
X163328095Y-56257142D01*
X163280476Y-56304761D01*
X163185238Y-56352380D01*
X162804285Y-56352380D01*
X162804285Y-55352380D01*
X163137619Y-55352380D01*
X163232857Y-55400000D01*
X163280476Y-55447619D01*
X163328095Y-55542857D01*
X163328095Y-55638095D01*
X163280476Y-55733333D01*
X163232857Y-55780952D01*
X163137619Y-55828571D01*
X162804285Y-55828571D01*
X163756666Y-55447619D02*
X163804285Y-55400000D01*
X163899523Y-55352380D01*
X164137619Y-55352380D01*
X164232857Y-55400000D01*
X164280476Y-55447619D01*
X164328095Y-55542857D01*
X164328095Y-55638095D01*
X164280476Y-55780952D01*
X163709047Y-56352380D01*
X164328095Y-56352380D01*
X164947142Y-55352380D02*
X165042380Y-55352380D01*
X165137619Y-55400000D01*
X165185238Y-55447619D01*
X165232857Y-55542857D01*
X165280476Y-55733333D01*
X165280476Y-55971428D01*
X165232857Y-56161904D01*
X165185238Y-56257142D01*
X165137619Y-56304761D01*
X165042380Y-56352380D01*
X164947142Y-56352380D01*
X164851904Y-56304761D01*
X164804285Y-56257142D01*
X164756666Y-56161904D01*
X164709047Y-55971428D01*
X164709047Y-55733333D01*
X164756666Y-55542857D01*
X164804285Y-55447619D01*
X164851904Y-55400000D01*
X164947142Y-55352380D01*
X159169047Y-54121428D02*
X159930952Y-54121428D01*
X159550000Y-54502380D02*
X159550000Y-53740476D01*
X164269047Y-54021428D02*
X165030952Y-54021428D01*
X161888095Y-54602380D02*
X161888095Y-53602380D01*
X162126190Y-53602380D01*
X162269047Y-53650000D01*
X162364285Y-53745238D01*
X162411904Y-53840476D01*
X162459523Y-54030952D01*
X162459523Y-54173809D01*
X162411904Y-54364285D01*
X162364285Y-54459523D01*
X162269047Y-54554761D01*
X162126190Y-54602380D01*
X161888095Y-54602380D01*
X157271428Y-56245714D02*
X157271428Y-55483809D01*
X157652380Y-55864761D02*
X156890476Y-55864761D01*
X156652380Y-54531428D02*
X156652380Y-55007619D01*
X157128571Y-55055238D01*
X157080952Y-55007619D01*
X157033333Y-54912380D01*
X157033333Y-54674285D01*
X157080952Y-54579047D01*
X157128571Y-54531428D01*
X157223809Y-54483809D01*
X157461904Y-54483809D01*
X157557142Y-54531428D01*
X157604761Y-54579047D01*
X157652380Y-54674285D01*
X157652380Y-54912380D01*
X157604761Y-55007619D01*
X157557142Y-55055238D01*
X156652380Y-54198095D02*
X157652380Y-53864761D01*
X156652380Y-53531428D01*
X154720476Y-53965714D02*
X154720476Y-54632380D01*
X154482380Y-53584761D02*
X154244285Y-54299047D01*
X154863333Y-54299047D01*
X151892380Y-53632380D02*
X151987619Y-53632380D01*
X152082857Y-53680000D01*
X152130476Y-53727619D01*
X152178095Y-53822857D01*
X152225714Y-54013333D01*
X152225714Y-54251428D01*
X152178095Y-54441904D01*
X152130476Y-54537142D01*
X152082857Y-54584761D01*
X151987619Y-54632380D01*
X151892380Y-54632380D01*
X151797142Y-54584761D01*
X151749523Y-54537142D01*
X151701904Y-54441904D01*
X151654285Y-54251428D01*
X151654285Y-54013333D01*
X151701904Y-53822857D01*
X151749523Y-53727619D01*
X151797142Y-53680000D01*
X151892380Y-53632380D01*
X149144285Y-53727619D02*
X149191904Y-53680000D01*
X149287142Y-53632380D01*
X149525238Y-53632380D01*
X149620476Y-53680000D01*
X149668095Y-53727619D01*
X149715714Y-53822857D01*
X149715714Y-53918095D01*
X149668095Y-54060952D01*
X149096666Y-54632380D01*
X149715714Y-54632380D01*
X146779523Y-54602380D02*
X146208095Y-54602380D01*
X146493809Y-54602380D02*
X146493809Y-53602380D01*
X146398571Y-53745238D01*
X146303333Y-53840476D01*
X146208095Y-53888095D01*
X147160476Y-53697619D02*
X147208095Y-53650000D01*
X147303333Y-53602380D01*
X147541428Y-53602380D01*
X147636666Y-53650000D01*
X147684285Y-53697619D01*
X147731904Y-53792857D01*
X147731904Y-53888095D01*
X147684285Y-54030952D01*
X147112857Y-54602380D01*
X147731904Y-54602380D01*
X144209523Y-54632380D02*
X143638095Y-54632380D01*
X143923809Y-54632380D02*
X143923809Y-53632380D01*
X143828571Y-53775238D01*
X143733333Y-53870476D01*
X143638095Y-53918095D01*
X145066666Y-53632380D02*
X144876190Y-53632380D01*
X144780952Y-53680000D01*
X144733333Y-53727619D01*
X144638095Y-53870476D01*
X144590476Y-54060952D01*
X144590476Y-54441904D01*
X144638095Y-54537142D01*
X144685714Y-54584761D01*
X144780952Y-54632380D01*
X144971428Y-54632380D01*
X145066666Y-54584761D01*
X145114285Y-54537142D01*
X145161904Y-54441904D01*
X145161904Y-54203809D01*
X145114285Y-54108571D01*
X145066666Y-54060952D01*
X144971428Y-54013333D01*
X144780952Y-54013333D01*
X144685714Y-54060952D01*
X144638095Y-54108571D01*
X144590476Y-54203809D01*
D11*
X143570000Y-54980000D02*
X155240000Y-54980000D01*
D10*
X148380000Y-55220000D02*
X148284761Y-55172380D01*
X148141904Y-55172380D01*
X147999047Y-55220000D01*
X147903809Y-55315238D01*
X147856190Y-55410476D01*
X147808571Y-55600952D01*
X147808571Y-55743809D01*
X147856190Y-55934285D01*
X147903809Y-56029523D01*
X147999047Y-56124761D01*
X148141904Y-56172380D01*
X148237142Y-56172380D01*
X148380000Y-56124761D01*
X148427619Y-56077142D01*
X148427619Y-55743809D01*
X148237142Y-55743809D01*
X148856190Y-56172380D02*
X148856190Y-55172380D01*
X149237142Y-55172380D01*
X149332380Y-55220000D01*
X149380000Y-55267619D01*
X149427619Y-55362857D01*
X149427619Y-55505714D01*
X149380000Y-55600952D01*
X149332380Y-55648571D01*
X149237142Y-55696190D01*
X148856190Y-55696190D01*
X149856190Y-56172380D02*
X149856190Y-55172380D01*
X150522857Y-55172380D02*
X150713333Y-55172380D01*
X150808571Y-55220000D01*
X150903809Y-55315238D01*
X150951428Y-55505714D01*
X150951428Y-55839047D01*
X150903809Y-56029523D01*
X150808571Y-56124761D01*
X150713333Y-56172380D01*
X150522857Y-56172380D01*
X150427619Y-56124761D01*
X150332380Y-56029523D01*
X150284761Y-55839047D01*
X150284761Y-55505714D01*
X150332380Y-55315238D01*
X150427619Y-55220000D01*
X150522857Y-55172380D01*
X141098095Y-53650000D02*
X141002857Y-53602380D01*
X140860000Y-53602380D01*
X140717142Y-53650000D01*
X140621904Y-53745238D01*
X140574285Y-53840476D01*
X140526666Y-54030952D01*
X140526666Y-54173809D01*
X140574285Y-54364285D01*
X140621904Y-54459523D01*
X140717142Y-54554761D01*
X140860000Y-54602380D01*
X140955238Y-54602380D01*
X141098095Y-54554761D01*
X141145714Y-54507142D01*
X141145714Y-54173809D01*
X140955238Y-54173809D01*
X141574285Y-54602380D02*
X141574285Y-53602380D01*
X142145714Y-54602380D01*
X142145714Y-53602380D01*
X142621904Y-54602380D02*
X142621904Y-53602380D01*
X142860000Y-53602380D01*
X143002857Y-53650000D01*
X143098095Y-53745238D01*
X143145714Y-53840476D01*
X143193333Y-54030952D01*
X143193333Y-54173809D01*
X143145714Y-54364285D01*
X143098095Y-54459523D01*
X143002857Y-54554761D01*
X142860000Y-54602380D01*
X142621904Y-54602380D01*
X91098095Y-53650000D02*
X91002857Y-53602380D01*
X90860000Y-53602380D01*
X90717142Y-53650000D01*
X90621904Y-53745238D01*
X90574285Y-53840476D01*
X90526666Y-54030952D01*
X90526666Y-54173809D01*
X90574285Y-54364285D01*
X90621904Y-54459523D01*
X90717142Y-54554761D01*
X90860000Y-54602380D01*
X90955238Y-54602380D01*
X91098095Y-54554761D01*
X91145714Y-54507142D01*
X91145714Y-54173809D01*
X90955238Y-54173809D01*
X91574285Y-54602380D02*
X91574285Y-53602380D01*
X92145714Y-54602380D01*
X92145714Y-53602380D01*
X92621904Y-54602380D02*
X92621904Y-53602380D01*
X92860000Y-53602380D01*
X93002857Y-53650000D01*
X93098095Y-53745238D01*
X93145714Y-53840476D01*
X93193333Y-54030952D01*
X93193333Y-54173809D01*
X93145714Y-54364285D01*
X93098095Y-54459523D01*
X93002857Y-54554761D01*
X92860000Y-54602380D01*
X92621904Y-54602380D01*
X98380000Y-55220000D02*
X98284761Y-55172380D01*
X98141904Y-55172380D01*
X97999047Y-55220000D01*
X97903809Y-55315238D01*
X97856190Y-55410476D01*
X97808571Y-55600952D01*
X97808571Y-55743809D01*
X97856190Y-55934285D01*
X97903809Y-56029523D01*
X97999047Y-56124761D01*
X98141904Y-56172380D01*
X98237142Y-56172380D01*
X98380000Y-56124761D01*
X98427619Y-56077142D01*
X98427619Y-55743809D01*
X98237142Y-55743809D01*
X98856190Y-56172380D02*
X98856190Y-55172380D01*
X99237142Y-55172380D01*
X99332380Y-55220000D01*
X99380000Y-55267619D01*
X99427619Y-55362857D01*
X99427619Y-55505714D01*
X99380000Y-55600952D01*
X99332380Y-55648571D01*
X99237142Y-55696190D01*
X98856190Y-55696190D01*
X99856190Y-56172380D02*
X99856190Y-55172380D01*
X100522857Y-55172380D02*
X100713333Y-55172380D01*
X100808571Y-55220000D01*
X100903809Y-55315238D01*
X100951428Y-55505714D01*
X100951428Y-55839047D01*
X100903809Y-56029523D01*
X100808571Y-56124761D01*
X100713333Y-56172380D01*
X100522857Y-56172380D01*
X100427619Y-56124761D01*
X100332380Y-56029523D01*
X100284761Y-55839047D01*
X100284761Y-55505714D01*
X100332380Y-55315238D01*
X100427619Y-55220000D01*
X100522857Y-55172380D01*
D11*
X93570000Y-54980000D02*
X105240000Y-54980000D01*
D10*
X94209523Y-54632380D02*
X93638095Y-54632380D01*
X93923809Y-54632380D02*
X93923809Y-53632380D01*
X93828571Y-53775238D01*
X93733333Y-53870476D01*
X93638095Y-53918095D01*
X95066666Y-53632380D02*
X94876190Y-53632380D01*
X94780952Y-53680000D01*
X94733333Y-53727619D01*
X94638095Y-53870476D01*
X94590476Y-54060952D01*
X94590476Y-54441904D01*
X94638095Y-54537142D01*
X94685714Y-54584761D01*
X94780952Y-54632380D01*
X94971428Y-54632380D01*
X95066666Y-54584761D01*
X95114285Y-54537142D01*
X95161904Y-54441904D01*
X95161904Y-54203809D01*
X95114285Y-54108571D01*
X95066666Y-54060952D01*
X94971428Y-54013333D01*
X94780952Y-54013333D01*
X94685714Y-54060952D01*
X94638095Y-54108571D01*
X94590476Y-54203809D01*
X96779523Y-54602380D02*
X96208095Y-54602380D01*
X96493809Y-54602380D02*
X96493809Y-53602380D01*
X96398571Y-53745238D01*
X96303333Y-53840476D01*
X96208095Y-53888095D01*
X97160476Y-53697619D02*
X97208095Y-53650000D01*
X97303333Y-53602380D01*
X97541428Y-53602380D01*
X97636666Y-53650000D01*
X97684285Y-53697619D01*
X97731904Y-53792857D01*
X97731904Y-53888095D01*
X97684285Y-54030952D01*
X97112857Y-54602380D01*
X97731904Y-54602380D01*
X99144285Y-53727619D02*
X99191904Y-53680000D01*
X99287142Y-53632380D01*
X99525238Y-53632380D01*
X99620476Y-53680000D01*
X99668095Y-53727619D01*
X99715714Y-53822857D01*
X99715714Y-53918095D01*
X99668095Y-54060952D01*
X99096666Y-54632380D01*
X99715714Y-54632380D01*
X101892380Y-53632380D02*
X101987619Y-53632380D01*
X102082857Y-53680000D01*
X102130476Y-53727619D01*
X102178095Y-53822857D01*
X102225714Y-54013333D01*
X102225714Y-54251428D01*
X102178095Y-54441904D01*
X102130476Y-54537142D01*
X102082857Y-54584761D01*
X101987619Y-54632380D01*
X101892380Y-54632380D01*
X101797142Y-54584761D01*
X101749523Y-54537142D01*
X101701904Y-54441904D01*
X101654285Y-54251428D01*
X101654285Y-54013333D01*
X101701904Y-53822857D01*
X101749523Y-53727619D01*
X101797142Y-53680000D01*
X101892380Y-53632380D01*
X104720476Y-53965714D02*
X104720476Y-54632380D01*
X104482380Y-53584761D02*
X104244285Y-54299047D01*
X104863333Y-54299047D01*
X107271428Y-56245714D02*
X107271428Y-55483809D01*
X107652380Y-55864761D02*
X106890476Y-55864761D01*
X106652380Y-54531428D02*
X106652380Y-55007619D01*
X107128571Y-55055238D01*
X107080952Y-55007619D01*
X107033333Y-54912380D01*
X107033333Y-54674285D01*
X107080952Y-54579047D01*
X107128571Y-54531428D01*
X107223809Y-54483809D01*
X107461904Y-54483809D01*
X107557142Y-54531428D01*
X107604761Y-54579047D01*
X107652380Y-54674285D01*
X107652380Y-54912380D01*
X107604761Y-55007619D01*
X107557142Y-55055238D01*
X106652380Y-54198095D02*
X107652380Y-53864761D01*
X106652380Y-53531428D01*
X111888095Y-54602380D02*
X111888095Y-53602380D01*
X112126190Y-53602380D01*
X112269047Y-53650000D01*
X112364285Y-53745238D01*
X112411904Y-53840476D01*
X112459523Y-54030952D01*
X112459523Y-54173809D01*
X112411904Y-54364285D01*
X112364285Y-54459523D01*
X112269047Y-54554761D01*
X112126190Y-54602380D01*
X111888095Y-54602380D01*
X114269047Y-54021428D02*
X115030952Y-54021428D01*
X109169047Y-54121428D02*
X109930952Y-54121428D01*
X109550000Y-54502380D02*
X109550000Y-53740476D01*
X108947142Y-56352380D02*
X108947142Y-55352380D01*
X109185238Y-55352380D01*
X109328095Y-55400000D01*
X109423333Y-55495238D01*
X109470952Y-55590476D01*
X109518571Y-55780952D01*
X109518571Y-55923809D01*
X109470952Y-56114285D01*
X109423333Y-56209523D01*
X109328095Y-56304761D01*
X109185238Y-56352380D01*
X108947142Y-56352380D01*
X109899523Y-56304761D02*
X110042380Y-56352380D01*
X110280476Y-56352380D01*
X110375714Y-56304761D01*
X110423333Y-56257142D01*
X110470952Y-56161904D01*
X110470952Y-56066666D01*
X110423333Y-55971428D01*
X110375714Y-55923809D01*
X110280476Y-55876190D01*
X110090000Y-55828571D01*
X109994761Y-55780952D01*
X109947142Y-55733333D01*
X109899523Y-55638095D01*
X109899523Y-55542857D01*
X109947142Y-55447619D01*
X109994761Y-55400000D01*
X110090000Y-55352380D01*
X110328095Y-55352380D01*
X110470952Y-55400000D01*
X111423333Y-56352380D02*
X110851904Y-56352380D01*
X111137619Y-56352380D02*
X111137619Y-55352380D01*
X111042380Y-55495238D01*
X110947142Y-55590476D01*
X110851904Y-55638095D01*
X111994761Y-55780952D02*
X111899523Y-55733333D01*
X111851904Y-55685714D01*
X111804285Y-55590476D01*
X111804285Y-55542857D01*
X111851904Y-55447619D01*
X111899523Y-55400000D01*
X111994761Y-55352380D01*
X112185238Y-55352380D01*
X112280476Y-55400000D01*
X112328095Y-55447619D01*
X112375714Y-55542857D01*
X112375714Y-55590476D01*
X112328095Y-55685714D01*
X112280476Y-55733333D01*
X112185238Y-55780952D01*
X111994761Y-55780952D01*
X111899523Y-55828571D01*
X111851904Y-55876190D01*
X111804285Y-55971428D01*
X111804285Y-56161904D01*
X111851904Y-56257142D01*
X111899523Y-56304761D01*
X111994761Y-56352380D01*
X112185238Y-56352380D01*
X112280476Y-56304761D01*
X112328095Y-56257142D01*
X112375714Y-56161904D01*
X112375714Y-55971428D01*
X112328095Y-55876190D01*
X112280476Y-55828571D01*
X112185238Y-55780952D01*
X113137619Y-55828571D02*
X113280476Y-55876190D01*
X113328095Y-55923809D01*
X113375714Y-56019047D01*
X113375714Y-56161904D01*
X113328095Y-56257142D01*
X113280476Y-56304761D01*
X113185238Y-56352380D01*
X112804285Y-56352380D01*
X112804285Y-55352380D01*
X113137619Y-55352380D01*
X113232857Y-55400000D01*
X113280476Y-55447619D01*
X113328095Y-55542857D01*
X113328095Y-55638095D01*
X113280476Y-55733333D01*
X113232857Y-55780952D01*
X113137619Y-55828571D01*
X112804285Y-55828571D01*
X113756666Y-55447619D02*
X113804285Y-55400000D01*
X113899523Y-55352380D01*
X114137619Y-55352380D01*
X114232857Y-55400000D01*
X114280476Y-55447619D01*
X114328095Y-55542857D01*
X114328095Y-55638095D01*
X114280476Y-55780952D01*
X113709047Y-56352380D01*
X114328095Y-56352380D01*
X114947142Y-55352380D02*
X115042380Y-55352380D01*
X115137619Y-55400000D01*
X115185238Y-55447619D01*
X115232857Y-55542857D01*
X115280476Y-55733333D01*
X115280476Y-55971428D01*
X115232857Y-56161904D01*
X115185238Y-56257142D01*
X115137619Y-56304761D01*
X115042380Y-56352380D01*
X114947142Y-56352380D01*
X114851904Y-56304761D01*
X114804285Y-56257142D01*
X114756666Y-56161904D01*
X114709047Y-55971428D01*
X114709047Y-55733333D01*
X114756666Y-55542857D01*
X114804285Y-55447619D01*
X114851904Y-55400000D01*
X114947142Y-55352380D01*
X97769047Y-62121428D02*
X98530952Y-62121428D01*
X97769047Y-64621428D02*
X98530952Y-64621428D01*
X98150000Y-65002380D02*
X98150000Y-64240476D01*
X97769047Y-59521428D02*
X98530952Y-59521428D01*
X98150000Y-59902380D02*
X98150000Y-59140476D01*
X97769047Y-57071428D02*
X98530952Y-57071428D01*
X100027380Y-64783333D02*
X99027380Y-64783333D01*
X99027380Y-64402380D01*
X99075000Y-64307142D01*
X99122619Y-64259523D01*
X99217857Y-64211904D01*
X99360714Y-64211904D01*
X99455952Y-64259523D01*
X99503571Y-64307142D01*
X99551190Y-64402380D01*
X99551190Y-64783333D01*
X99027380Y-63878571D02*
X100027380Y-63640476D01*
X99313095Y-63450000D01*
X100027380Y-63259523D01*
X99027380Y-63021428D01*
X100027380Y-62069047D02*
X99551190Y-62402380D01*
X100027380Y-62640476D02*
X99027380Y-62640476D01*
X99027380Y-62259523D01*
X99075000Y-62164285D01*
X99122619Y-62116666D01*
X99217857Y-62069047D01*
X99360714Y-62069047D01*
X99455952Y-62116666D01*
X99503571Y-62164285D01*
X99551190Y-62259523D01*
X99551190Y-62640476D01*
X101629761Y-64307142D02*
X101677380Y-64164285D01*
X101677380Y-63926190D01*
X101629761Y-63830952D01*
X101582142Y-63783333D01*
X101486904Y-63735714D01*
X101391666Y-63735714D01*
X101296428Y-63783333D01*
X101248809Y-63830952D01*
X101201190Y-63926190D01*
X101153571Y-64116666D01*
X101105952Y-64211904D01*
X101058333Y-64259523D01*
X100963095Y-64307142D01*
X100867857Y-64307142D01*
X100772619Y-64259523D01*
X100725000Y-64211904D01*
X100677380Y-64116666D01*
X100677380Y-63878571D01*
X100725000Y-63735714D01*
X100677380Y-63402380D02*
X101677380Y-63164285D01*
X100963095Y-62973809D01*
X101677380Y-62783333D01*
X100677380Y-62545238D01*
X100027380Y-59833333D02*
X99027380Y-59833333D01*
X99027380Y-59452380D01*
X99075000Y-59357142D01*
X99122619Y-59309523D01*
X99217857Y-59261904D01*
X99360714Y-59261904D01*
X99455952Y-59309523D01*
X99503571Y-59357142D01*
X99551190Y-59452380D01*
X99551190Y-59833333D01*
X99027380Y-58928571D02*
X100027380Y-58690476D01*
X99313095Y-58500000D01*
X100027380Y-58309523D01*
X99027380Y-58071428D01*
X100027380Y-57119047D02*
X99551190Y-57452380D01*
X100027380Y-57690476D02*
X99027380Y-57690476D01*
X99027380Y-57309523D01*
X99075000Y-57214285D01*
X99122619Y-57166666D01*
X99217857Y-57119047D01*
X99360714Y-57119047D01*
X99455952Y-57166666D01*
X99503571Y-57214285D01*
X99551190Y-57309523D01*
X99551190Y-57690476D01*
X101677380Y-59142857D02*
X101677380Y-59619047D01*
X100677380Y-59619047D01*
X101153571Y-58809523D02*
X101153571Y-58476190D01*
X101677380Y-58333333D02*
X101677380Y-58809523D01*
X100677380Y-58809523D01*
X100677380Y-58333333D01*
X101677380Y-57904761D02*
X100677380Y-57904761D01*
X100677380Y-57666666D01*
X100725000Y-57523809D01*
X100820238Y-57428571D01*
X100915476Y-57380952D01*
X101105952Y-57333333D01*
X101248809Y-57333333D01*
X101439285Y-57380952D01*
X101534523Y-57428571D01*
X101629761Y-57523809D01*
X101677380Y-57666666D01*
X101677380Y-57904761D01*
X136738095Y-52952380D02*
X137309523Y-52952380D01*
X137023809Y-53952380D02*
X137023809Y-52952380D01*
X137547619Y-52952380D02*
X138214285Y-53952380D01*
X138214285Y-52952380D02*
X137547619Y-53952380D01*
X138595238Y-53952380D02*
X138595238Y-52952380D01*
X138833333Y-52952380D01*
X138976190Y-53000000D01*
X139071428Y-53095238D01*
X139119047Y-53190476D01*
X139166666Y-53380952D01*
X139166666Y-53523809D01*
X139119047Y-53714285D01*
X139071428Y-53809523D01*
X138976190Y-53904761D01*
X138833333Y-53952380D01*
X138595238Y-53952380D01*
X136857142Y-55702380D02*
X136857142Y-54702380D01*
X137095238Y-54702380D01*
X137238095Y-54750000D01*
X137333333Y-54845238D01*
X137380952Y-54940476D01*
X137428571Y-55130952D01*
X137428571Y-55273809D01*
X137380952Y-55464285D01*
X137333333Y-55559523D01*
X137238095Y-55654761D01*
X137095238Y-55702380D01*
X136857142Y-55702380D01*
X137714285Y-54702380D02*
X138285714Y-54702380D01*
X138000000Y-55702380D02*
X138000000Y-54702380D01*
X139190476Y-55702380D02*
X138857142Y-55226190D01*
X138619047Y-55702380D02*
X138619047Y-54702380D01*
X139000000Y-54702380D01*
X139095238Y-54750000D01*
X139142857Y-54797619D01*
X139190476Y-54892857D01*
X139190476Y-55035714D01*
X139142857Y-55130952D01*
X139095238Y-55178571D01*
X139000000Y-55226190D01*
X138619047Y-55226190D01*
X134202380Y-63202380D02*
X133869047Y-62726190D01*
X133630952Y-63202380D02*
X133630952Y-62202380D01*
X134011904Y-62202380D01*
X134107142Y-62250000D01*
X134154761Y-62297619D01*
X134202380Y-62392857D01*
X134202380Y-62535714D01*
X134154761Y-62630952D01*
X134107142Y-62678571D01*
X134011904Y-62726190D01*
X133630952Y-62726190D01*
X134488095Y-62202380D02*
X135059523Y-62202380D01*
X134773809Y-63202380D02*
X134773809Y-62202380D01*
X135345238Y-63154761D02*
X135488095Y-63202380D01*
X135726190Y-63202380D01*
X135821428Y-63154761D01*
X135869047Y-63107142D01*
X135916666Y-63011904D01*
X135916666Y-62916666D01*
X135869047Y-62821428D01*
X135821428Y-62773809D01*
X135726190Y-62726190D01*
X135535714Y-62678571D01*
X135440476Y-62630952D01*
X135392857Y-62583333D01*
X135345238Y-62488095D01*
X135345238Y-62392857D01*
X135392857Y-62297619D01*
X135440476Y-62250000D01*
X135535714Y-62202380D01*
X135773809Y-62202380D01*
X135916666Y-62250000D01*
X133416666Y-64952380D02*
X133750000Y-65952380D01*
X134083333Y-64952380D01*
X134988095Y-65857142D02*
X134940476Y-65904761D01*
X134797619Y-65952380D01*
X134702380Y-65952380D01*
X134559523Y-65904761D01*
X134464285Y-65809523D01*
X134416666Y-65714285D01*
X134369047Y-65523809D01*
X134369047Y-65380952D01*
X134416666Y-65190476D01*
X134464285Y-65095238D01*
X134559523Y-65000000D01*
X134702380Y-64952380D01*
X134797619Y-64952380D01*
X134940476Y-65000000D01*
X134988095Y-65047619D01*
X135988095Y-65857142D02*
X135940476Y-65904761D01*
X135797619Y-65952380D01*
X135702380Y-65952380D01*
X135559523Y-65904761D01*
X135464285Y-65809523D01*
X135416666Y-65714285D01*
X135369047Y-65523809D01*
X135369047Y-65380952D01*
X135416666Y-65190476D01*
X135464285Y-65095238D01*
X135559523Y-65000000D01*
X135702380Y-64952380D01*
X135797619Y-64952380D01*
X135940476Y-65000000D01*
X135988095Y-65047619D01*
X134083333Y-68452380D02*
X133750000Y-67976190D01*
X133511904Y-68452380D02*
X133511904Y-67452380D01*
X133892857Y-67452380D01*
X133988095Y-67500000D01*
X134035714Y-67547619D01*
X134083333Y-67642857D01*
X134083333Y-67785714D01*
X134035714Y-67880952D01*
X133988095Y-67928571D01*
X133892857Y-67976190D01*
X133511904Y-67976190D01*
X134416666Y-67452380D02*
X135083333Y-68452380D01*
X135083333Y-67452380D02*
X134416666Y-68452380D01*
X135464285Y-68452380D02*
X135464285Y-67452380D01*
X135702380Y-67452380D01*
X135845238Y-67500000D01*
X135940476Y-67595238D01*
X135988095Y-67690476D01*
X136035714Y-67880952D01*
X136035714Y-68023809D01*
X135988095Y-68214285D01*
X135940476Y-68309523D01*
X135845238Y-68404761D01*
X135702380Y-68452380D01*
X135464285Y-68452380D01*
X133988095Y-72500000D02*
X133892857Y-72452380D01*
X133750000Y-72452380D01*
X133607142Y-72500000D01*
X133511904Y-72595238D01*
X133464285Y-72690476D01*
X133416666Y-72880952D01*
X133416666Y-73023809D01*
X133464285Y-73214285D01*
X133511904Y-73309523D01*
X133607142Y-73404761D01*
X133750000Y-73452380D01*
X133845238Y-73452380D01*
X133988095Y-73404761D01*
X134035714Y-73357142D01*
X134035714Y-73023809D01*
X133845238Y-73023809D01*
X134464285Y-73452380D02*
X134464285Y-72452380D01*
X135035714Y-73452380D01*
X135035714Y-72452380D01*
X135511904Y-73452380D02*
X135511904Y-72452380D01*
X135750000Y-72452380D01*
X135892857Y-72500000D01*
X135988095Y-72595238D01*
X136035714Y-72690476D01*
X136083333Y-72880952D01*
X136083333Y-73023809D01*
X136035714Y-73214285D01*
X135988095Y-73309523D01*
X135892857Y-73404761D01*
X135750000Y-73452380D01*
X135511904Y-73452380D01*
X98428571Y-72907142D02*
X99571428Y-72907142D01*
X98428571Y-68907142D02*
X99571428Y-68907142D01*
X99000000Y-69478571D02*
X99000000Y-68335714D01*
D12*
X90600000Y-145800000D02*
X90200000Y-145800000D01*
X91700000Y-142300000D02*
X91700000Y-149300000D01*
X90600000Y-142300000D02*
X90600000Y-149300000D01*
X97800000Y-142300000D02*
X90200000Y-142300000D01*
X90200000Y-149300000D02*
X97800000Y-149300000D01*
X97800000Y-149300000D02*
X97800000Y-142300000D01*
D11*
X94170000Y-140975001D02*
X96830000Y-140975001D01*
X94170000Y-133295001D02*
X94170000Y-140975001D01*
X96830000Y-133295001D02*
X96830000Y-140975001D01*
X94170000Y-133295001D02*
X96830000Y-133295001D01*
X94170000Y-132025001D02*
X94170000Y-130695001D01*
X94170000Y-130695001D02*
X95500000Y-130695001D01*
X133420000Y-136660000D02*
X136080000Y-136660000D01*
X133420000Y-131520000D02*
X133420000Y-136660000D01*
X136080000Y-131520000D02*
X136080000Y-136660000D01*
X133420000Y-131520000D02*
X136080000Y-131520000D01*
X133420000Y-130250000D02*
X133420000Y-128920000D01*
X133420000Y-128920000D02*
X134750000Y-128920000D01*
X107880000Y-137060000D02*
G75*
G02X107880000Y-135060000I0J1000000D01*
G01*
X107880000Y-135060000D02*
X107880000Y-133410000D01*
X107880000Y-133410000D02*
X102680000Y-133410000D01*
X102680000Y-133410000D02*
X102680000Y-138710000D01*
X102680000Y-138710000D02*
X107880000Y-138710000D01*
X107880000Y-138710000D02*
X107880000Y-137060000D01*
X106590000Y-147560000D02*
X107850000Y-147560000D01*
X113410000Y-147560000D02*
X112150000Y-147560000D01*
X106590000Y-143800000D02*
X106590000Y-147560000D01*
X113410000Y-141550000D02*
X113410000Y-147560000D01*
X90495001Y-140975001D02*
X93155001Y-140975001D01*
X90495001Y-133295001D02*
X90495001Y-140975001D01*
X93155001Y-133295001D02*
X93155001Y-140975001D01*
X90495001Y-133295001D02*
X93155001Y-133295001D01*
X90495001Y-132025001D02*
X90495001Y-130695001D01*
X90495001Y-130695001D02*
X91825001Y-130695001D01*
X104710000Y-145002631D02*
X104710000Y-146597369D01*
X100290000Y-145002631D02*
X100290000Y-146597369D01*
X90460000Y-125720000D02*
X90460000Y-128380000D01*
X113380000Y-125720000D02*
X90460000Y-125720000D01*
X113380000Y-128380000D02*
X90460000Y-128380000D01*
X113380000Y-125720000D02*
X113380000Y-128380000D01*
X114650000Y-125720000D02*
X115980000Y-125720000D01*
X115980000Y-125720000D02*
X115980000Y-127050000D01*
X137840000Y-149330000D02*
X136510000Y-149330000D01*
X136510000Y-149330000D02*
X136510000Y-148000000D01*
X136510000Y-146730000D02*
X136510000Y-131430000D01*
X139170000Y-131430000D02*
X136510000Y-131430000D01*
X139170000Y-146730000D02*
X139170000Y-131430000D01*
X139170000Y-146730000D02*
X136510000Y-146730000D01*
X113210000Y-136547369D02*
X113210000Y-134952631D01*
X108790000Y-136547369D02*
X108790000Y-134952631D01*
D12*
X147800000Y-149300000D02*
X147800000Y-142300000D01*
X140200000Y-149300000D02*
X147800000Y-149300000D01*
X147800000Y-142300000D02*
X140200000Y-142300000D01*
X140600000Y-142300000D02*
X140600000Y-149300000D01*
X141700000Y-142300000D02*
X141700000Y-149300000D01*
X140600000Y-145800000D02*
X140200000Y-145800000D01*
D11*
X144170000Y-130695001D02*
X145500000Y-130695001D01*
X144170000Y-132025001D02*
X144170000Y-130695001D01*
X144170000Y-133295001D02*
X146830000Y-133295001D01*
X146830000Y-133295001D02*
X146830000Y-140975001D01*
X144170000Y-133295001D02*
X144170000Y-140975001D01*
X144170000Y-140975001D02*
X146830000Y-140975001D01*
X183420000Y-128920000D02*
X184750000Y-128920000D01*
X183420000Y-130250000D02*
X183420000Y-128920000D01*
X183420000Y-131520000D02*
X186080000Y-131520000D01*
X186080000Y-131520000D02*
X186080000Y-136660000D01*
X183420000Y-131520000D02*
X183420000Y-136660000D01*
X183420000Y-136660000D02*
X186080000Y-136660000D01*
X157880000Y-138710000D02*
X157880000Y-137060000D01*
X152680000Y-138710000D02*
X157880000Y-138710000D01*
X152680000Y-133410000D02*
X152680000Y-138710000D01*
X157880000Y-133410000D02*
X152680000Y-133410000D01*
X157880000Y-135060000D02*
X157880000Y-133410000D01*
X157880000Y-137060000D02*
G75*
G02X157880000Y-135060000I0J1000000D01*
G01*
X163410000Y-141550000D02*
X163410000Y-147560000D01*
X156590000Y-143800000D02*
X156590000Y-147560000D01*
X163410000Y-147560000D02*
X162150000Y-147560000D01*
X156590000Y-147560000D02*
X157850000Y-147560000D01*
X140495001Y-130695001D02*
X141825001Y-130695001D01*
X140495001Y-132025001D02*
X140495001Y-130695001D01*
X140495001Y-133295001D02*
X143155001Y-133295001D01*
X143155001Y-133295001D02*
X143155001Y-140975001D01*
X140495001Y-133295001D02*
X140495001Y-140975001D01*
X140495001Y-140975001D02*
X143155001Y-140975001D01*
X150290000Y-145002631D02*
X150290000Y-146597369D01*
X154710000Y-145002631D02*
X154710000Y-146597369D01*
X165980000Y-125720000D02*
X165980000Y-127050000D01*
X164650000Y-125720000D02*
X165980000Y-125720000D01*
X163380000Y-125720000D02*
X163380000Y-128380000D01*
X163380000Y-128380000D02*
X140460000Y-128380000D01*
X163380000Y-125720000D02*
X140460000Y-125720000D01*
X140460000Y-125720000D02*
X140460000Y-128380000D01*
X189170000Y-146730000D02*
X186510000Y-146730000D01*
X189170000Y-146730000D02*
X189170000Y-131430000D01*
X189170000Y-131430000D02*
X186510000Y-131430000D01*
X186510000Y-146730000D02*
X186510000Y-131430000D01*
X186510000Y-149330000D02*
X186510000Y-148000000D01*
X187840000Y-149330000D02*
X186510000Y-149330000D01*
X158790000Y-136547369D02*
X158790000Y-134952631D01*
X163210000Y-136547369D02*
X163210000Y-134952631D01*
D13*
X166500000Y-125500000D02*
X182500000Y-125500000D01*
X182500000Y-125500000D02*
X182500000Y-149500000D01*
X182500000Y-149500000D02*
X166500000Y-149500000D01*
X166500000Y-149500000D02*
X166500000Y-125500000D01*
X168500000Y-133300000D02*
X180500000Y-133300000D01*
X180500000Y-133300000D02*
X180500000Y-148300000D01*
X180500000Y-148300000D02*
X168500000Y-148300000D01*
X168500000Y-148300000D02*
X168500000Y-133300000D01*
X118500000Y-148300000D02*
X118500000Y-133300000D01*
X130500000Y-148300000D02*
X118500000Y-148300000D01*
X130500000Y-133300000D02*
X130500000Y-148300000D01*
X118500000Y-133300000D02*
X130500000Y-133300000D01*
X116500000Y-149500000D02*
X116500000Y-125500000D01*
X132500000Y-149500000D02*
X116500000Y-149500000D01*
X132500000Y-125500000D02*
X132500000Y-149500000D01*
X116500000Y-125500000D02*
X132500000Y-125500000D01*
D12*
X97800000Y-124300000D02*
X97800000Y-117300000D01*
X90200000Y-124300000D02*
X97800000Y-124300000D01*
X97800000Y-117300000D02*
X90200000Y-117300000D01*
X90600000Y-117300000D02*
X90600000Y-124300000D01*
X91700000Y-117300000D02*
X91700000Y-124300000D01*
X90600000Y-120800000D02*
X90200000Y-120800000D01*
D11*
X94170000Y-105695001D02*
X95500000Y-105695001D01*
X94170000Y-107025001D02*
X94170000Y-105695001D01*
X94170000Y-108295001D02*
X96830000Y-108295001D01*
X96830000Y-108295001D02*
X96830000Y-115975001D01*
X94170000Y-108295001D02*
X94170000Y-115975001D01*
X94170000Y-115975001D02*
X96830000Y-115975001D01*
X133420000Y-103920000D02*
X134750000Y-103920000D01*
X133420000Y-105250000D02*
X133420000Y-103920000D01*
X133420000Y-106520000D02*
X136080000Y-106520000D01*
X136080000Y-106520000D02*
X136080000Y-111660000D01*
X133420000Y-106520000D02*
X133420000Y-111660000D01*
X133420000Y-111660000D02*
X136080000Y-111660000D01*
X107880000Y-113710000D02*
X107880000Y-112060000D01*
X102680000Y-113710000D02*
X107880000Y-113710000D01*
X102680000Y-108410000D02*
X102680000Y-113710000D01*
X107880000Y-108410000D02*
X102680000Y-108410000D01*
X107880000Y-110060000D02*
X107880000Y-108410000D01*
X107880000Y-112060000D02*
G75*
G02X107880000Y-110060000I0J1000000D01*
G01*
X113410000Y-116550000D02*
X113410000Y-122560000D01*
X106590000Y-118800000D02*
X106590000Y-122560000D01*
X113410000Y-122560000D02*
X112150000Y-122560000D01*
X106590000Y-122560000D02*
X107850000Y-122560000D01*
X90495001Y-105695001D02*
X91825001Y-105695001D01*
X90495001Y-107025001D02*
X90495001Y-105695001D01*
X90495001Y-108295001D02*
X93155001Y-108295001D01*
X93155001Y-108295001D02*
X93155001Y-115975001D01*
X90495001Y-108295001D02*
X90495001Y-115975001D01*
X90495001Y-115975001D02*
X93155001Y-115975001D01*
X100290000Y-120002631D02*
X100290000Y-121597369D01*
X104710000Y-120002631D02*
X104710000Y-121597369D01*
X115980000Y-100720000D02*
X115980000Y-102050000D01*
X114650000Y-100720000D02*
X115980000Y-100720000D01*
X113380000Y-100720000D02*
X113380000Y-103380000D01*
X113380000Y-103380000D02*
X90460000Y-103380000D01*
X113380000Y-100720000D02*
X90460000Y-100720000D01*
X90460000Y-100720000D02*
X90460000Y-103380000D01*
X139170000Y-121730000D02*
X136510000Y-121730000D01*
X139170000Y-121730000D02*
X139170000Y-106430000D01*
X139170000Y-106430000D02*
X136510000Y-106430000D01*
X136510000Y-121730000D02*
X136510000Y-106430000D01*
X136510000Y-124330000D02*
X136510000Y-123000000D01*
X137840000Y-124330000D02*
X136510000Y-124330000D01*
X108790000Y-111547369D02*
X108790000Y-109952631D01*
X113210000Y-111547369D02*
X113210000Y-109952631D01*
D12*
X140600000Y-120800000D02*
X140200000Y-120800000D01*
X141700000Y-117300000D02*
X141700000Y-124300000D01*
X140600000Y-117300000D02*
X140600000Y-124300000D01*
X147800000Y-117300000D02*
X140200000Y-117300000D01*
X140200000Y-124300000D02*
X147800000Y-124300000D01*
X147800000Y-124300000D02*
X147800000Y-117300000D01*
D11*
X144170000Y-115975001D02*
X146830000Y-115975001D01*
X144170000Y-108295001D02*
X144170000Y-115975001D01*
X146830000Y-108295001D02*
X146830000Y-115975001D01*
X144170000Y-108295001D02*
X146830000Y-108295001D01*
X144170000Y-107025001D02*
X144170000Y-105695001D01*
X144170000Y-105695001D02*
X145500000Y-105695001D01*
X183420000Y-111660000D02*
X186080000Y-111660000D01*
X183420000Y-106520000D02*
X183420000Y-111660000D01*
X186080000Y-106520000D02*
X186080000Y-111660000D01*
X183420000Y-106520000D02*
X186080000Y-106520000D01*
X183420000Y-105250000D02*
X183420000Y-103920000D01*
X183420000Y-103920000D02*
X184750000Y-103920000D01*
X157880000Y-112060000D02*
G75*
G02X157880000Y-110060000I0J1000000D01*
G01*
X157880000Y-110060000D02*
X157880000Y-108410000D01*
X157880000Y-108410000D02*
X152680000Y-108410000D01*
X152680000Y-108410000D02*
X152680000Y-113710000D01*
X152680000Y-113710000D02*
X157880000Y-113710000D01*
X157880000Y-113710000D02*
X157880000Y-112060000D01*
X156590000Y-122560000D02*
X157850000Y-122560000D01*
X163410000Y-122560000D02*
X162150000Y-122560000D01*
X156590000Y-118800000D02*
X156590000Y-122560000D01*
X163410000Y-116550000D02*
X163410000Y-122560000D01*
X140495001Y-115975001D02*
X143155001Y-115975001D01*
X140495001Y-108295001D02*
X140495001Y-115975001D01*
X143155001Y-108295001D02*
X143155001Y-115975001D01*
X140495001Y-108295001D02*
X143155001Y-108295001D01*
X140495001Y-107025001D02*
X140495001Y-105695001D01*
X140495001Y-105695001D02*
X141825001Y-105695001D01*
X154710000Y-120002631D02*
X154710000Y-121597369D01*
X150290000Y-120002631D02*
X150290000Y-121597369D01*
X140460000Y-100720000D02*
X140460000Y-103380000D01*
X163380000Y-100720000D02*
X140460000Y-100720000D01*
X163380000Y-103380000D02*
X140460000Y-103380000D01*
X163380000Y-100720000D02*
X163380000Y-103380000D01*
X164650000Y-100720000D02*
X165980000Y-100720000D01*
X165980000Y-100720000D02*
X165980000Y-102050000D01*
X187840000Y-124330000D02*
X186510000Y-124330000D01*
X186510000Y-124330000D02*
X186510000Y-123000000D01*
X186510000Y-121730000D02*
X186510000Y-106430000D01*
X189170000Y-106430000D02*
X186510000Y-106430000D01*
X189170000Y-121730000D02*
X189170000Y-106430000D01*
X189170000Y-121730000D02*
X186510000Y-121730000D01*
X163210000Y-111547369D02*
X163210000Y-109952631D01*
X158790000Y-111547369D02*
X158790000Y-109952631D01*
D13*
X168500000Y-123300000D02*
X168500000Y-108300000D01*
X180500000Y-123300000D02*
X168500000Y-123300000D01*
X180500000Y-108300000D02*
X180500000Y-123300000D01*
X168500000Y-108300000D02*
X180500000Y-108300000D01*
X166500000Y-124500000D02*
X166500000Y-100500000D01*
X182500000Y-124500000D02*
X166500000Y-124500000D01*
X182500000Y-100500000D02*
X182500000Y-124500000D01*
X166500000Y-100500000D02*
X182500000Y-100500000D01*
X116500000Y-100500000D02*
X132500000Y-100500000D01*
X132500000Y-100500000D02*
X132500000Y-124500000D01*
X132500000Y-124500000D02*
X116500000Y-124500000D01*
X116500000Y-124500000D02*
X116500000Y-100500000D01*
X118500000Y-108300000D02*
X130500000Y-108300000D01*
X130500000Y-108300000D02*
X130500000Y-123300000D01*
X130500000Y-123300000D02*
X118500000Y-123300000D01*
X118500000Y-123300000D02*
X118500000Y-108300000D01*
D12*
X90600000Y-95800000D02*
X90200000Y-95800000D01*
X91700000Y-92300000D02*
X91700000Y-99300000D01*
X90600000Y-92300000D02*
X90600000Y-99300000D01*
X97800000Y-92300000D02*
X90200000Y-92300000D01*
X90200000Y-99300000D02*
X97800000Y-99300000D01*
X97800000Y-99300000D02*
X97800000Y-92300000D01*
D11*
X94170000Y-90975001D02*
X96830000Y-90975001D01*
X94170000Y-83295001D02*
X94170000Y-90975001D01*
X96830000Y-83295001D02*
X96830000Y-90975001D01*
X94170000Y-83295001D02*
X96830000Y-83295001D01*
X94170000Y-82025001D02*
X94170000Y-80695001D01*
X94170000Y-80695001D02*
X95500000Y-80695001D01*
X133420000Y-86660000D02*
X136080000Y-86660000D01*
X133420000Y-81520000D02*
X133420000Y-86660000D01*
X136080000Y-81520000D02*
X136080000Y-86660000D01*
X133420000Y-81520000D02*
X136080000Y-81520000D01*
X133420000Y-80250000D02*
X133420000Y-78920000D01*
X133420000Y-78920000D02*
X134750000Y-78920000D01*
X107880000Y-87060000D02*
G75*
G02X107880000Y-85060000I0J1000000D01*
G01*
X107880000Y-85060000D02*
X107880000Y-83410000D01*
X107880000Y-83410000D02*
X102680000Y-83410000D01*
X102680000Y-83410000D02*
X102680000Y-88710000D01*
X102680000Y-88710000D02*
X107880000Y-88710000D01*
X107880000Y-88710000D02*
X107880000Y-87060000D01*
X106590000Y-97560000D02*
X107850000Y-97560000D01*
X113410000Y-97560000D02*
X112150000Y-97560000D01*
X106590000Y-93800000D02*
X106590000Y-97560000D01*
X113410000Y-91550000D02*
X113410000Y-97560000D01*
X90495001Y-90975001D02*
X93155001Y-90975001D01*
X90495001Y-83295001D02*
X90495001Y-90975001D01*
X93155001Y-83295001D02*
X93155001Y-90975001D01*
X90495001Y-83295001D02*
X93155001Y-83295001D01*
X90495001Y-82025001D02*
X90495001Y-80695001D01*
X90495001Y-80695001D02*
X91825001Y-80695001D01*
X104710000Y-95002631D02*
X104710000Y-96597369D01*
X100290000Y-95002631D02*
X100290000Y-96597369D01*
X90460000Y-75720000D02*
X90460000Y-78380000D01*
X113380000Y-75720000D02*
X90460000Y-75720000D01*
X113380000Y-78380000D02*
X90460000Y-78380000D01*
X113380000Y-75720000D02*
X113380000Y-78380000D01*
X114650000Y-75720000D02*
X115980000Y-75720000D01*
X115980000Y-75720000D02*
X115980000Y-77050000D01*
X137840000Y-99330000D02*
X136510000Y-99330000D01*
X136510000Y-99330000D02*
X136510000Y-98000000D01*
X136510000Y-96730000D02*
X136510000Y-81430000D01*
X139170000Y-81430000D02*
X136510000Y-81430000D01*
X139170000Y-96730000D02*
X139170000Y-81430000D01*
X139170000Y-96730000D02*
X136510000Y-96730000D01*
X113210000Y-86547369D02*
X113210000Y-84952631D01*
X108790000Y-86547369D02*
X108790000Y-84952631D01*
D12*
X147800000Y-99300000D02*
X147800000Y-92300000D01*
X140200000Y-99300000D02*
X147800000Y-99300000D01*
X147800000Y-92300000D02*
X140200000Y-92300000D01*
X140600000Y-92300000D02*
X140600000Y-99300000D01*
X141700000Y-92300000D02*
X141700000Y-99300000D01*
X140600000Y-95800000D02*
X140200000Y-95800000D01*
D11*
X144170000Y-80695001D02*
X145500000Y-80695001D01*
X144170000Y-82025001D02*
X144170000Y-80695001D01*
X144170000Y-83295001D02*
X146830000Y-83295001D01*
X146830000Y-83295001D02*
X146830000Y-90975001D01*
X144170000Y-83295001D02*
X144170000Y-90975001D01*
X144170000Y-90975001D02*
X146830000Y-90975001D01*
X183420000Y-78920000D02*
X184750000Y-78920000D01*
X183420000Y-80250000D02*
X183420000Y-78920000D01*
X183420000Y-81520000D02*
X186080000Y-81520000D01*
X186080000Y-81520000D02*
X186080000Y-86660000D01*
X183420000Y-81520000D02*
X183420000Y-86660000D01*
X183420000Y-86660000D02*
X186080000Y-86660000D01*
X157880000Y-88710000D02*
X157880000Y-87060000D01*
X152680000Y-88710000D02*
X157880000Y-88710000D01*
X152680000Y-83410000D02*
X152680000Y-88710000D01*
X157880000Y-83410000D02*
X152680000Y-83410000D01*
X157880000Y-85060000D02*
X157880000Y-83410000D01*
X157880000Y-87060000D02*
G75*
G02X157880000Y-85060000I0J1000000D01*
G01*
X163410000Y-91550000D02*
X163410000Y-97560000D01*
X156590000Y-93800000D02*
X156590000Y-97560000D01*
X163410000Y-97560000D02*
X162150000Y-97560000D01*
X156590000Y-97560000D02*
X157850000Y-97560000D01*
X140495001Y-80695001D02*
X141825001Y-80695001D01*
X140495001Y-82025001D02*
X140495001Y-80695001D01*
X140495001Y-83295001D02*
X143155001Y-83295001D01*
X143155001Y-83295001D02*
X143155001Y-90975001D01*
X140495001Y-83295001D02*
X140495001Y-90975001D01*
X140495001Y-90975001D02*
X143155001Y-90975001D01*
X150290000Y-95002631D02*
X150290000Y-96597369D01*
X154710000Y-95002631D02*
X154710000Y-96597369D01*
X165980000Y-75720000D02*
X165980000Y-77050000D01*
X164650000Y-75720000D02*
X165980000Y-75720000D01*
X163380000Y-75720000D02*
X163380000Y-78380000D01*
X163380000Y-78380000D02*
X140460000Y-78380000D01*
X163380000Y-75720000D02*
X140460000Y-75720000D01*
X140460000Y-75720000D02*
X140460000Y-78380000D01*
X189170000Y-96730000D02*
X186510000Y-96730000D01*
X189170000Y-96730000D02*
X189170000Y-81430000D01*
X189170000Y-81430000D02*
X186510000Y-81430000D01*
X186510000Y-96730000D02*
X186510000Y-81430000D01*
X186510000Y-99330000D02*
X186510000Y-98000000D01*
X187840000Y-99330000D02*
X186510000Y-99330000D01*
X158790000Y-86547369D02*
X158790000Y-84952631D01*
X163210000Y-86547369D02*
X163210000Y-84952631D01*
D13*
X166500000Y-75500000D02*
X182500000Y-75500000D01*
X182500000Y-75500000D02*
X182500000Y-99500000D01*
X182500000Y-99500000D02*
X166500000Y-99500000D01*
X166500000Y-99500000D02*
X166500000Y-75500000D01*
X168500000Y-83300000D02*
X180500000Y-83300000D01*
X180500000Y-83300000D02*
X180500000Y-98300000D01*
X180500000Y-98300000D02*
X168500000Y-98300000D01*
X168500000Y-98300000D02*
X168500000Y-83300000D01*
X118500000Y-98300000D02*
X118500000Y-83300000D01*
X130500000Y-98300000D02*
X118500000Y-98300000D01*
X130500000Y-83300000D02*
X130500000Y-98300000D01*
X118500000Y-83300000D02*
X130500000Y-83300000D01*
X116500000Y-99500000D02*
X116500000Y-75500000D01*
X132500000Y-99500000D02*
X116500000Y-99500000D01*
X132500000Y-75500000D02*
X132500000Y-99500000D01*
X116500000Y-75500000D02*
X132500000Y-75500000D01*
D12*
X140600000Y-70800000D02*
X140200000Y-70800000D01*
X141700000Y-67300000D02*
X141700000Y-74300000D01*
X140600000Y-67300000D02*
X140600000Y-74300000D01*
X147800000Y-67300000D02*
X140200000Y-67300000D01*
X140200000Y-74300000D02*
X147800000Y-74300000D01*
X147800000Y-74300000D02*
X147800000Y-67300000D01*
D11*
X144170000Y-65975001D02*
X146830000Y-65975001D01*
X144170000Y-58295001D02*
X144170000Y-65975001D01*
X146830000Y-58295001D02*
X146830000Y-65975001D01*
X144170000Y-58295001D02*
X146830000Y-58295001D01*
X144170000Y-57025001D02*
X144170000Y-55695001D01*
X144170000Y-55695001D02*
X145500000Y-55695001D01*
X183420000Y-61660000D02*
X186080000Y-61660000D01*
X183420000Y-56520000D02*
X183420000Y-61660000D01*
X186080000Y-56520000D02*
X186080000Y-61660000D01*
X183420000Y-56520000D02*
X186080000Y-56520000D01*
X183420000Y-55250000D02*
X183420000Y-53920000D01*
X183420000Y-53920000D02*
X184750000Y-53920000D01*
X157880000Y-62060000D02*
G75*
G02X157880000Y-60060000I0J1000000D01*
G01*
X157880000Y-60060000D02*
X157880000Y-58410000D01*
X157880000Y-58410000D02*
X152680000Y-58410000D01*
X152680000Y-58410000D02*
X152680000Y-63710000D01*
X152680000Y-63710000D02*
X157880000Y-63710000D01*
X157880000Y-63710000D02*
X157880000Y-62060000D01*
X156590000Y-72560000D02*
X157850000Y-72560000D01*
X163410000Y-72560000D02*
X162150000Y-72560000D01*
X156590000Y-68800000D02*
X156590000Y-72560000D01*
X163410000Y-66550000D02*
X163410000Y-72560000D01*
X140495001Y-65975001D02*
X143155001Y-65975001D01*
X140495001Y-58295001D02*
X140495001Y-65975001D01*
X143155001Y-58295001D02*
X143155001Y-65975001D01*
X140495001Y-58295001D02*
X143155001Y-58295001D01*
X140495001Y-57025001D02*
X140495001Y-55695001D01*
X140495001Y-55695001D02*
X141825001Y-55695001D01*
X154710000Y-70002631D02*
X154710000Y-71597369D01*
X150290000Y-70002631D02*
X150290000Y-71597369D01*
X140460000Y-50720000D02*
X140460000Y-53380000D01*
X163380000Y-50720000D02*
X140460000Y-50720000D01*
X163380000Y-53380000D02*
X140460000Y-53380000D01*
X163380000Y-50720000D02*
X163380000Y-53380000D01*
X164650000Y-50720000D02*
X165980000Y-50720000D01*
X165980000Y-50720000D02*
X165980000Y-52050000D01*
X187840000Y-74330000D02*
X186510000Y-74330000D01*
X186510000Y-74330000D02*
X186510000Y-73000000D01*
X186510000Y-71730000D02*
X186510000Y-56430000D01*
X189170000Y-56430000D02*
X186510000Y-56430000D01*
X189170000Y-71730000D02*
X189170000Y-56430000D01*
X189170000Y-71730000D02*
X186510000Y-71730000D01*
X163210000Y-61547369D02*
X163210000Y-59952631D01*
X158790000Y-61547369D02*
X158790000Y-59952631D01*
D13*
X168500000Y-73300000D02*
X168500000Y-58300000D01*
X180500000Y-73300000D02*
X168500000Y-73300000D01*
X180500000Y-58300000D02*
X180500000Y-73300000D01*
X168500000Y-58300000D02*
X180500000Y-58300000D01*
X166500000Y-74500000D02*
X166500000Y-50500000D01*
X182500000Y-74500000D02*
X166500000Y-74500000D01*
X182500000Y-50500000D02*
X182500000Y-74500000D01*
X166500000Y-50500000D02*
X182500000Y-50500000D01*
D11*
X115980000Y-50720000D02*
X115980000Y-52050000D01*
X114650000Y-50720000D02*
X115980000Y-50720000D01*
X113380000Y-50720000D02*
X113380000Y-53380000D01*
X113380000Y-53380000D02*
X90460000Y-53380000D01*
X113380000Y-50720000D02*
X90460000Y-50720000D01*
X90460000Y-50720000D02*
X90460000Y-53380000D01*
X107880000Y-63710000D02*
X107880000Y-62060000D01*
X102680000Y-63710000D02*
X107880000Y-63710000D01*
X102680000Y-58410000D02*
X102680000Y-63710000D01*
X107880000Y-58410000D02*
X102680000Y-58410000D01*
X107880000Y-60060000D02*
X107880000Y-58410000D01*
X107880000Y-62060000D02*
G75*
G02X107880000Y-60060000I0J1000000D01*
G01*
X113410000Y-66550000D02*
X113410000Y-72560000D01*
X106590000Y-68800000D02*
X106590000Y-72560000D01*
X113410000Y-72560000D02*
X112150000Y-72560000D01*
X106590000Y-72560000D02*
X107850000Y-72560000D01*
X133420000Y-53920000D02*
X134750000Y-53920000D01*
X133420000Y-55250000D02*
X133420000Y-53920000D01*
X133420000Y-56520000D02*
X136080000Y-56520000D01*
X136080000Y-56520000D02*
X136080000Y-61660000D01*
X133420000Y-56520000D02*
X133420000Y-61660000D01*
X133420000Y-61660000D02*
X136080000Y-61660000D01*
X94170000Y-55695001D02*
X95500000Y-55695001D01*
X94170000Y-57025001D02*
X94170000Y-55695001D01*
X94170000Y-58295001D02*
X96830000Y-58295001D01*
X96830000Y-58295001D02*
X96830000Y-65975001D01*
X94170000Y-58295001D02*
X94170000Y-65975001D01*
X94170000Y-65975001D02*
X96830000Y-65975001D01*
X90495001Y-55695001D02*
X91825001Y-55695001D01*
X90495001Y-57025001D02*
X90495001Y-55695001D01*
X90495001Y-58295001D02*
X93155001Y-58295001D01*
X93155001Y-58295001D02*
X93155001Y-65975001D01*
X90495001Y-58295001D02*
X90495001Y-65975001D01*
X90495001Y-65975001D02*
X93155001Y-65975001D01*
X100290000Y-70002631D02*
X100290000Y-71597369D01*
X104710000Y-70002631D02*
X104710000Y-71597369D01*
D12*
X97800000Y-74300000D02*
X97800000Y-67300000D01*
X90200000Y-74300000D02*
X97800000Y-74300000D01*
X97800000Y-67300000D02*
X90200000Y-67300000D01*
X90600000Y-67300000D02*
X90600000Y-74300000D01*
X91700000Y-67300000D02*
X91700000Y-74300000D01*
X90600000Y-70800000D02*
X90200000Y-70800000D01*
D11*
X108790000Y-61547369D02*
X108790000Y-59952631D01*
X113210000Y-61547369D02*
X113210000Y-59952631D01*
X139170000Y-71730000D02*
X136510000Y-71730000D01*
X139170000Y-71730000D02*
X139170000Y-56430000D01*
X139170000Y-56430000D02*
X136510000Y-56430000D01*
X136510000Y-71730000D02*
X136510000Y-56430000D01*
X136510000Y-74330000D02*
X136510000Y-73000000D01*
X137840000Y-74330000D02*
X136510000Y-74330000D01*
D13*
X116500000Y-50500000D02*
X132500000Y-50500000D01*
X132500000Y-50500000D02*
X132500000Y-74500000D01*
X132500000Y-74500000D02*
X116500000Y-74500000D01*
X116500000Y-74500000D02*
X116500000Y-50500000D01*
X118500000Y-58300000D02*
X130500000Y-58300000D01*
X130500000Y-58300000D02*
X130500000Y-73300000D01*
X130500000Y-73300000D02*
X118500000Y-73300000D01*
X118500000Y-73300000D02*
X118500000Y-58300000D01*
D10*
X164466666Y-145581666D02*
X164133333Y-145815000D01*
X164466666Y-145981666D02*
X163766666Y-145981666D01*
X163766666Y-145715000D01*
X163800000Y-145648333D01*
X163833333Y-145615000D01*
X163900000Y-145581666D01*
X164000000Y-145581666D01*
X164066666Y-145615000D01*
X164100000Y-145648333D01*
X164133333Y-145715000D01*
X164133333Y-145981666D01*
X163766666Y-145348333D02*
X163766666Y-144915000D01*
X164033333Y-145148333D01*
X164033333Y-145048333D01*
X164066666Y-144981666D01*
X164100000Y-144948333D01*
X164166666Y-144915000D01*
X164333333Y-144915000D01*
X164400000Y-144948333D01*
X164433333Y-144981666D01*
X164466666Y-145048333D01*
X164466666Y-145248333D01*
X164433333Y-145315000D01*
X164400000Y-145348333D01*
X114466666Y-145581666D02*
X114133333Y-145815000D01*
X114466666Y-145981666D02*
X113766666Y-145981666D01*
X113766666Y-145715000D01*
X113800000Y-145648333D01*
X113833333Y-145615000D01*
X113900000Y-145581666D01*
X114000000Y-145581666D01*
X114066666Y-145615000D01*
X114100000Y-145648333D01*
X114133333Y-145715000D01*
X114133333Y-145981666D01*
X113766666Y-145348333D02*
X113766666Y-144915000D01*
X114033333Y-145148333D01*
X114033333Y-145048333D01*
X114066666Y-144981666D01*
X114100000Y-144948333D01*
X114166666Y-144915000D01*
X114333333Y-144915000D01*
X114400000Y-144948333D01*
X114433333Y-144981666D01*
X114466666Y-145048333D01*
X114466666Y-145248333D01*
X114433333Y-145315000D01*
X114400000Y-145348333D01*
X110923333Y-130196666D02*
X110690000Y-129863333D01*
X110523333Y-130196666D02*
X110523333Y-129496666D01*
X110790000Y-129496666D01*
X110856666Y-129530000D01*
X110890000Y-129563333D01*
X110923333Y-129630000D01*
X110923333Y-129730000D01*
X110890000Y-129796666D01*
X110856666Y-129830000D01*
X110790000Y-129863333D01*
X110523333Y-129863333D01*
X111523333Y-129730000D02*
X111523333Y-130196666D01*
X111356666Y-129463333D02*
X111190000Y-129963333D01*
X111623333Y-129963333D01*
X134438333Y-145066666D02*
X134205000Y-144733333D01*
X134038333Y-145066666D02*
X134038333Y-144366666D01*
X134305000Y-144366666D01*
X134371666Y-144400000D01*
X134405000Y-144433333D01*
X134438333Y-144500000D01*
X134438333Y-144600000D01*
X134405000Y-144666666D01*
X134371666Y-144700000D01*
X134305000Y-144733333D01*
X134038333Y-144733333D01*
X134705000Y-144433333D02*
X134738333Y-144400000D01*
X134805000Y-144366666D01*
X134971666Y-144366666D01*
X135038333Y-144400000D01*
X135071666Y-144433333D01*
X135105000Y-144500000D01*
X135105000Y-144566666D01*
X135071666Y-144666666D01*
X134671666Y-145066666D01*
X135105000Y-145066666D01*
X134416666Y-127372380D02*
X134416666Y-128086666D01*
X134369047Y-128229523D01*
X134273809Y-128324761D01*
X134130952Y-128372380D01*
X134035714Y-128372380D01*
X135369047Y-127372380D02*
X134892857Y-127372380D01*
X134845238Y-127848571D01*
X134892857Y-127800952D01*
X134988095Y-127753333D01*
X135226190Y-127753333D01*
X135321428Y-127800952D01*
X135369047Y-127848571D01*
X135416666Y-127943809D01*
X135416666Y-128181904D01*
X135369047Y-128277142D01*
X135321428Y-128324761D01*
X135226190Y-128372380D01*
X134988095Y-128372380D01*
X134892857Y-128324761D01*
X134845238Y-128277142D01*
X109288095Y-140202380D02*
X109288095Y-141011904D01*
X109335714Y-141107142D01*
X109383333Y-141154761D01*
X109478571Y-141202380D01*
X109669047Y-141202380D01*
X109764285Y-141154761D01*
X109811904Y-141107142D01*
X109859523Y-141011904D01*
X109859523Y-140202380D01*
X110859523Y-141202380D02*
X110288095Y-141202380D01*
X110573809Y-141202380D02*
X110573809Y-140202380D01*
X110478571Y-140345238D01*
X110383333Y-140440476D01*
X110288095Y-140488095D01*
X106037142Y-145966666D02*
X106084761Y-146014285D01*
X106132380Y-146157142D01*
X106132380Y-146252380D01*
X106084761Y-146395238D01*
X105989523Y-146490476D01*
X105894285Y-146538095D01*
X105703809Y-146585714D01*
X105560952Y-146585714D01*
X105370476Y-146538095D01*
X105275238Y-146490476D01*
X105180000Y-146395238D01*
X105132380Y-146252380D01*
X105132380Y-146157142D01*
X105180000Y-146014285D01*
X105227619Y-145966666D01*
X105227619Y-145585714D02*
X105180000Y-145538095D01*
X105132380Y-145442857D01*
X105132380Y-145204761D01*
X105180000Y-145109523D01*
X105227619Y-145061904D01*
X105322857Y-145014285D01*
X105418095Y-145014285D01*
X105560952Y-145061904D01*
X106132380Y-145633333D01*
X106132380Y-145014285D01*
X116432380Y-127383333D02*
X117146666Y-127383333D01*
X117289523Y-127430952D01*
X117384761Y-127526190D01*
X117432380Y-127669047D01*
X117432380Y-127764285D01*
X116432380Y-126478571D02*
X116432380Y-126669047D01*
X116480000Y-126764285D01*
X116527619Y-126811904D01*
X116670476Y-126907142D01*
X116860952Y-126954761D01*
X117241904Y-126954761D01*
X117337142Y-126907142D01*
X117384761Y-126859523D01*
X117432380Y-126764285D01*
X117432380Y-126573809D01*
X117384761Y-126478571D01*
X117337142Y-126430952D01*
X117241904Y-126383333D01*
X117003809Y-126383333D01*
X116908571Y-126430952D01*
X116860952Y-126478571D01*
X116813333Y-126573809D01*
X116813333Y-126764285D01*
X116860952Y-126859523D01*
X116908571Y-126907142D01*
X117003809Y-126954761D01*
X137666666Y-125952380D02*
X137666666Y-126666666D01*
X137619047Y-126809523D01*
X137523809Y-126904761D01*
X137380952Y-126952380D01*
X137285714Y-126952380D01*
X138666666Y-126952380D02*
X138095238Y-126952380D01*
X138380952Y-126952380D02*
X138380952Y-125952380D01*
X138285714Y-126095238D01*
X138190476Y-126190476D01*
X138095238Y-126238095D01*
X114507142Y-135916666D02*
X114554761Y-135964285D01*
X114602380Y-136107142D01*
X114602380Y-136202380D01*
X114554761Y-136345238D01*
X114459523Y-136440476D01*
X114364285Y-136488095D01*
X114173809Y-136535714D01*
X114030952Y-136535714D01*
X113840476Y-136488095D01*
X113745238Y-136440476D01*
X113650000Y-136345238D01*
X113602380Y-136202380D01*
X113602380Y-136107142D01*
X113650000Y-135964285D01*
X113697619Y-135916666D01*
X114602380Y-134964285D02*
X114602380Y-135535714D01*
X114602380Y-135250000D02*
X113602380Y-135250000D01*
X113745238Y-135345238D01*
X113840476Y-135440476D01*
X113888095Y-135535714D01*
X114266666Y-138531666D02*
X113933333Y-138765000D01*
X114266666Y-138931666D02*
X113566666Y-138931666D01*
X113566666Y-138665000D01*
X113600000Y-138598333D01*
X113633333Y-138565000D01*
X113700000Y-138531666D01*
X113800000Y-138531666D01*
X113866666Y-138565000D01*
X113900000Y-138598333D01*
X113933333Y-138665000D01*
X113933333Y-138931666D01*
X114266666Y-137865000D02*
X114266666Y-138265000D01*
X114266666Y-138065000D02*
X113566666Y-138065000D01*
X113666666Y-138131666D01*
X113733333Y-138198333D01*
X113766666Y-138265000D01*
X160923333Y-130196666D02*
X160690000Y-129863333D01*
X160523333Y-130196666D02*
X160523333Y-129496666D01*
X160790000Y-129496666D01*
X160856666Y-129530000D01*
X160890000Y-129563333D01*
X160923333Y-129630000D01*
X160923333Y-129730000D01*
X160890000Y-129796666D01*
X160856666Y-129830000D01*
X160790000Y-129863333D01*
X160523333Y-129863333D01*
X161523333Y-129730000D02*
X161523333Y-130196666D01*
X161356666Y-129463333D02*
X161190000Y-129963333D01*
X161623333Y-129963333D01*
X184438333Y-145066666D02*
X184205000Y-144733333D01*
X184038333Y-145066666D02*
X184038333Y-144366666D01*
X184305000Y-144366666D01*
X184371666Y-144400000D01*
X184405000Y-144433333D01*
X184438333Y-144500000D01*
X184438333Y-144600000D01*
X184405000Y-144666666D01*
X184371666Y-144700000D01*
X184305000Y-144733333D01*
X184038333Y-144733333D01*
X184705000Y-144433333D02*
X184738333Y-144400000D01*
X184805000Y-144366666D01*
X184971666Y-144366666D01*
X185038333Y-144400000D01*
X185071666Y-144433333D01*
X185105000Y-144500000D01*
X185105000Y-144566666D01*
X185071666Y-144666666D01*
X184671666Y-145066666D01*
X185105000Y-145066666D01*
X184416666Y-127372380D02*
X184416666Y-128086666D01*
X184369047Y-128229523D01*
X184273809Y-128324761D01*
X184130952Y-128372380D01*
X184035714Y-128372380D01*
X185369047Y-127372380D02*
X184892857Y-127372380D01*
X184845238Y-127848571D01*
X184892857Y-127800952D01*
X184988095Y-127753333D01*
X185226190Y-127753333D01*
X185321428Y-127800952D01*
X185369047Y-127848571D01*
X185416666Y-127943809D01*
X185416666Y-128181904D01*
X185369047Y-128277142D01*
X185321428Y-128324761D01*
X185226190Y-128372380D01*
X184988095Y-128372380D01*
X184892857Y-128324761D01*
X184845238Y-128277142D01*
X159288095Y-140202380D02*
X159288095Y-141011904D01*
X159335714Y-141107142D01*
X159383333Y-141154761D01*
X159478571Y-141202380D01*
X159669047Y-141202380D01*
X159764285Y-141154761D01*
X159811904Y-141107142D01*
X159859523Y-141011904D01*
X159859523Y-140202380D01*
X160859523Y-141202380D02*
X160288095Y-141202380D01*
X160573809Y-141202380D02*
X160573809Y-140202380D01*
X160478571Y-140345238D01*
X160383333Y-140440476D01*
X160288095Y-140488095D01*
X156037142Y-145966666D02*
X156084761Y-146014285D01*
X156132380Y-146157142D01*
X156132380Y-146252380D01*
X156084761Y-146395238D01*
X155989523Y-146490476D01*
X155894285Y-146538095D01*
X155703809Y-146585714D01*
X155560952Y-146585714D01*
X155370476Y-146538095D01*
X155275238Y-146490476D01*
X155180000Y-146395238D01*
X155132380Y-146252380D01*
X155132380Y-146157142D01*
X155180000Y-146014285D01*
X155227619Y-145966666D01*
X155227619Y-145585714D02*
X155180000Y-145538095D01*
X155132380Y-145442857D01*
X155132380Y-145204761D01*
X155180000Y-145109523D01*
X155227619Y-145061904D01*
X155322857Y-145014285D01*
X155418095Y-145014285D01*
X155560952Y-145061904D01*
X156132380Y-145633333D01*
X156132380Y-145014285D01*
X166432380Y-127383333D02*
X167146666Y-127383333D01*
X167289523Y-127430952D01*
X167384761Y-127526190D01*
X167432380Y-127669047D01*
X167432380Y-127764285D01*
X166432380Y-126478571D02*
X166432380Y-126669047D01*
X166480000Y-126764285D01*
X166527619Y-126811904D01*
X166670476Y-126907142D01*
X166860952Y-126954761D01*
X167241904Y-126954761D01*
X167337142Y-126907142D01*
X167384761Y-126859523D01*
X167432380Y-126764285D01*
X167432380Y-126573809D01*
X167384761Y-126478571D01*
X167337142Y-126430952D01*
X167241904Y-126383333D01*
X167003809Y-126383333D01*
X166908571Y-126430952D01*
X166860952Y-126478571D01*
X166813333Y-126573809D01*
X166813333Y-126764285D01*
X166860952Y-126859523D01*
X166908571Y-126907142D01*
X167003809Y-126954761D01*
X187666666Y-125952380D02*
X187666666Y-126666666D01*
X187619047Y-126809523D01*
X187523809Y-126904761D01*
X187380952Y-126952380D01*
X187285714Y-126952380D01*
X188666666Y-126952380D02*
X188095238Y-126952380D01*
X188380952Y-126952380D02*
X188380952Y-125952380D01*
X188285714Y-126095238D01*
X188190476Y-126190476D01*
X188095238Y-126238095D01*
X164507142Y-135916666D02*
X164554761Y-135964285D01*
X164602380Y-136107142D01*
X164602380Y-136202380D01*
X164554761Y-136345238D01*
X164459523Y-136440476D01*
X164364285Y-136488095D01*
X164173809Y-136535714D01*
X164030952Y-136535714D01*
X163840476Y-136488095D01*
X163745238Y-136440476D01*
X163650000Y-136345238D01*
X163602380Y-136202380D01*
X163602380Y-136107142D01*
X163650000Y-135964285D01*
X163697619Y-135916666D01*
X164602380Y-134964285D02*
X164602380Y-135535714D01*
X164602380Y-135250000D02*
X163602380Y-135250000D01*
X163745238Y-135345238D01*
X163840476Y-135440476D01*
X163888095Y-135535714D01*
X164266666Y-138531666D02*
X163933333Y-138765000D01*
X164266666Y-138931666D02*
X163566666Y-138931666D01*
X163566666Y-138665000D01*
X163600000Y-138598333D01*
X163633333Y-138565000D01*
X163700000Y-138531666D01*
X163800000Y-138531666D01*
X163866666Y-138565000D01*
X163900000Y-138598333D01*
X163933333Y-138665000D01*
X163933333Y-138931666D01*
X164266666Y-137865000D02*
X164266666Y-138265000D01*
X164266666Y-138065000D02*
X163566666Y-138065000D01*
X163666666Y-138131666D01*
X163733333Y-138198333D01*
X163766666Y-138265000D01*
X164466666Y-120581666D02*
X164133333Y-120815000D01*
X164466666Y-120981666D02*
X163766666Y-120981666D01*
X163766666Y-120715000D01*
X163800000Y-120648333D01*
X163833333Y-120615000D01*
X163900000Y-120581666D01*
X164000000Y-120581666D01*
X164066666Y-120615000D01*
X164100000Y-120648333D01*
X164133333Y-120715000D01*
X164133333Y-120981666D01*
X163766666Y-120348333D02*
X163766666Y-119915000D01*
X164033333Y-120148333D01*
X164033333Y-120048333D01*
X164066666Y-119981666D01*
X164100000Y-119948333D01*
X164166666Y-119915000D01*
X164333333Y-119915000D01*
X164400000Y-119948333D01*
X164433333Y-119981666D01*
X164466666Y-120048333D01*
X164466666Y-120248333D01*
X164433333Y-120315000D01*
X164400000Y-120348333D01*
X114466666Y-120581666D02*
X114133333Y-120815000D01*
X114466666Y-120981666D02*
X113766666Y-120981666D01*
X113766666Y-120715000D01*
X113800000Y-120648333D01*
X113833333Y-120615000D01*
X113900000Y-120581666D01*
X114000000Y-120581666D01*
X114066666Y-120615000D01*
X114100000Y-120648333D01*
X114133333Y-120715000D01*
X114133333Y-120981666D01*
X113766666Y-120348333D02*
X113766666Y-119915000D01*
X114033333Y-120148333D01*
X114033333Y-120048333D01*
X114066666Y-119981666D01*
X114100000Y-119948333D01*
X114166666Y-119915000D01*
X114333333Y-119915000D01*
X114400000Y-119948333D01*
X114433333Y-119981666D01*
X114466666Y-120048333D01*
X114466666Y-120248333D01*
X114433333Y-120315000D01*
X114400000Y-120348333D01*
X110923333Y-105196666D02*
X110690000Y-104863333D01*
X110523333Y-105196666D02*
X110523333Y-104496666D01*
X110790000Y-104496666D01*
X110856666Y-104530000D01*
X110890000Y-104563333D01*
X110923333Y-104630000D01*
X110923333Y-104730000D01*
X110890000Y-104796666D01*
X110856666Y-104830000D01*
X110790000Y-104863333D01*
X110523333Y-104863333D01*
X111523333Y-104730000D02*
X111523333Y-105196666D01*
X111356666Y-104463333D02*
X111190000Y-104963333D01*
X111623333Y-104963333D01*
X134438333Y-120066666D02*
X134205000Y-119733333D01*
X134038333Y-120066666D02*
X134038333Y-119366666D01*
X134305000Y-119366666D01*
X134371666Y-119400000D01*
X134405000Y-119433333D01*
X134438333Y-119500000D01*
X134438333Y-119600000D01*
X134405000Y-119666666D01*
X134371666Y-119700000D01*
X134305000Y-119733333D01*
X134038333Y-119733333D01*
X134705000Y-119433333D02*
X134738333Y-119400000D01*
X134805000Y-119366666D01*
X134971666Y-119366666D01*
X135038333Y-119400000D01*
X135071666Y-119433333D01*
X135105000Y-119500000D01*
X135105000Y-119566666D01*
X135071666Y-119666666D01*
X134671666Y-120066666D01*
X135105000Y-120066666D01*
X134416666Y-102372380D02*
X134416666Y-103086666D01*
X134369047Y-103229523D01*
X134273809Y-103324761D01*
X134130952Y-103372380D01*
X134035714Y-103372380D01*
X135369047Y-102372380D02*
X134892857Y-102372380D01*
X134845238Y-102848571D01*
X134892857Y-102800952D01*
X134988095Y-102753333D01*
X135226190Y-102753333D01*
X135321428Y-102800952D01*
X135369047Y-102848571D01*
X135416666Y-102943809D01*
X135416666Y-103181904D01*
X135369047Y-103277142D01*
X135321428Y-103324761D01*
X135226190Y-103372380D01*
X134988095Y-103372380D01*
X134892857Y-103324761D01*
X134845238Y-103277142D01*
X109288095Y-115202380D02*
X109288095Y-116011904D01*
X109335714Y-116107142D01*
X109383333Y-116154761D01*
X109478571Y-116202380D01*
X109669047Y-116202380D01*
X109764285Y-116154761D01*
X109811904Y-116107142D01*
X109859523Y-116011904D01*
X109859523Y-115202380D01*
X110859523Y-116202380D02*
X110288095Y-116202380D01*
X110573809Y-116202380D02*
X110573809Y-115202380D01*
X110478571Y-115345238D01*
X110383333Y-115440476D01*
X110288095Y-115488095D01*
X106037142Y-120966666D02*
X106084761Y-121014285D01*
X106132380Y-121157142D01*
X106132380Y-121252380D01*
X106084761Y-121395238D01*
X105989523Y-121490476D01*
X105894285Y-121538095D01*
X105703809Y-121585714D01*
X105560952Y-121585714D01*
X105370476Y-121538095D01*
X105275238Y-121490476D01*
X105180000Y-121395238D01*
X105132380Y-121252380D01*
X105132380Y-121157142D01*
X105180000Y-121014285D01*
X105227619Y-120966666D01*
X105227619Y-120585714D02*
X105180000Y-120538095D01*
X105132380Y-120442857D01*
X105132380Y-120204761D01*
X105180000Y-120109523D01*
X105227619Y-120061904D01*
X105322857Y-120014285D01*
X105418095Y-120014285D01*
X105560952Y-120061904D01*
X106132380Y-120633333D01*
X106132380Y-120014285D01*
X116432380Y-102383333D02*
X117146666Y-102383333D01*
X117289523Y-102430952D01*
X117384761Y-102526190D01*
X117432380Y-102669047D01*
X117432380Y-102764285D01*
X116432380Y-101478571D02*
X116432380Y-101669047D01*
X116480000Y-101764285D01*
X116527619Y-101811904D01*
X116670476Y-101907142D01*
X116860952Y-101954761D01*
X117241904Y-101954761D01*
X117337142Y-101907142D01*
X117384761Y-101859523D01*
X117432380Y-101764285D01*
X117432380Y-101573809D01*
X117384761Y-101478571D01*
X117337142Y-101430952D01*
X117241904Y-101383333D01*
X117003809Y-101383333D01*
X116908571Y-101430952D01*
X116860952Y-101478571D01*
X116813333Y-101573809D01*
X116813333Y-101764285D01*
X116860952Y-101859523D01*
X116908571Y-101907142D01*
X117003809Y-101954761D01*
X137666666Y-100952380D02*
X137666666Y-101666666D01*
X137619047Y-101809523D01*
X137523809Y-101904761D01*
X137380952Y-101952380D01*
X137285714Y-101952380D01*
X138666666Y-101952380D02*
X138095238Y-101952380D01*
X138380952Y-101952380D02*
X138380952Y-100952380D01*
X138285714Y-101095238D01*
X138190476Y-101190476D01*
X138095238Y-101238095D01*
X114507142Y-110916666D02*
X114554761Y-110964285D01*
X114602380Y-111107142D01*
X114602380Y-111202380D01*
X114554761Y-111345238D01*
X114459523Y-111440476D01*
X114364285Y-111488095D01*
X114173809Y-111535714D01*
X114030952Y-111535714D01*
X113840476Y-111488095D01*
X113745238Y-111440476D01*
X113650000Y-111345238D01*
X113602380Y-111202380D01*
X113602380Y-111107142D01*
X113650000Y-110964285D01*
X113697619Y-110916666D01*
X114602380Y-109964285D02*
X114602380Y-110535714D01*
X114602380Y-110250000D02*
X113602380Y-110250000D01*
X113745238Y-110345238D01*
X113840476Y-110440476D01*
X113888095Y-110535714D01*
X114266666Y-113531666D02*
X113933333Y-113765000D01*
X114266666Y-113931666D02*
X113566666Y-113931666D01*
X113566666Y-113665000D01*
X113600000Y-113598333D01*
X113633333Y-113565000D01*
X113700000Y-113531666D01*
X113800000Y-113531666D01*
X113866666Y-113565000D01*
X113900000Y-113598333D01*
X113933333Y-113665000D01*
X113933333Y-113931666D01*
X114266666Y-112865000D02*
X114266666Y-113265000D01*
X114266666Y-113065000D02*
X113566666Y-113065000D01*
X113666666Y-113131666D01*
X113733333Y-113198333D01*
X113766666Y-113265000D01*
X160923333Y-105196666D02*
X160690000Y-104863333D01*
X160523333Y-105196666D02*
X160523333Y-104496666D01*
X160790000Y-104496666D01*
X160856666Y-104530000D01*
X160890000Y-104563333D01*
X160923333Y-104630000D01*
X160923333Y-104730000D01*
X160890000Y-104796666D01*
X160856666Y-104830000D01*
X160790000Y-104863333D01*
X160523333Y-104863333D01*
X161523333Y-104730000D02*
X161523333Y-105196666D01*
X161356666Y-104463333D02*
X161190000Y-104963333D01*
X161623333Y-104963333D01*
X184438333Y-120066666D02*
X184205000Y-119733333D01*
X184038333Y-120066666D02*
X184038333Y-119366666D01*
X184305000Y-119366666D01*
X184371666Y-119400000D01*
X184405000Y-119433333D01*
X184438333Y-119500000D01*
X184438333Y-119600000D01*
X184405000Y-119666666D01*
X184371666Y-119700000D01*
X184305000Y-119733333D01*
X184038333Y-119733333D01*
X184705000Y-119433333D02*
X184738333Y-119400000D01*
X184805000Y-119366666D01*
X184971666Y-119366666D01*
X185038333Y-119400000D01*
X185071666Y-119433333D01*
X185105000Y-119500000D01*
X185105000Y-119566666D01*
X185071666Y-119666666D01*
X184671666Y-120066666D01*
X185105000Y-120066666D01*
X184416666Y-102372380D02*
X184416666Y-103086666D01*
X184369047Y-103229523D01*
X184273809Y-103324761D01*
X184130952Y-103372380D01*
X184035714Y-103372380D01*
X185369047Y-102372380D02*
X184892857Y-102372380D01*
X184845238Y-102848571D01*
X184892857Y-102800952D01*
X184988095Y-102753333D01*
X185226190Y-102753333D01*
X185321428Y-102800952D01*
X185369047Y-102848571D01*
X185416666Y-102943809D01*
X185416666Y-103181904D01*
X185369047Y-103277142D01*
X185321428Y-103324761D01*
X185226190Y-103372380D01*
X184988095Y-103372380D01*
X184892857Y-103324761D01*
X184845238Y-103277142D01*
X159288095Y-115202380D02*
X159288095Y-116011904D01*
X159335714Y-116107142D01*
X159383333Y-116154761D01*
X159478571Y-116202380D01*
X159669047Y-116202380D01*
X159764285Y-116154761D01*
X159811904Y-116107142D01*
X159859523Y-116011904D01*
X159859523Y-115202380D01*
X160859523Y-116202380D02*
X160288095Y-116202380D01*
X160573809Y-116202380D02*
X160573809Y-115202380D01*
X160478571Y-115345238D01*
X160383333Y-115440476D01*
X160288095Y-115488095D01*
X156037142Y-120966666D02*
X156084761Y-121014285D01*
X156132380Y-121157142D01*
X156132380Y-121252380D01*
X156084761Y-121395238D01*
X155989523Y-121490476D01*
X155894285Y-121538095D01*
X155703809Y-121585714D01*
X155560952Y-121585714D01*
X155370476Y-121538095D01*
X155275238Y-121490476D01*
X155180000Y-121395238D01*
X155132380Y-121252380D01*
X155132380Y-121157142D01*
X155180000Y-121014285D01*
X155227619Y-120966666D01*
X155227619Y-120585714D02*
X155180000Y-120538095D01*
X155132380Y-120442857D01*
X155132380Y-120204761D01*
X155180000Y-120109523D01*
X155227619Y-120061904D01*
X155322857Y-120014285D01*
X155418095Y-120014285D01*
X155560952Y-120061904D01*
X156132380Y-120633333D01*
X156132380Y-120014285D01*
X166432380Y-102383333D02*
X167146666Y-102383333D01*
X167289523Y-102430952D01*
X167384761Y-102526190D01*
X167432380Y-102669047D01*
X167432380Y-102764285D01*
X166432380Y-101478571D02*
X166432380Y-101669047D01*
X166480000Y-101764285D01*
X166527619Y-101811904D01*
X166670476Y-101907142D01*
X166860952Y-101954761D01*
X167241904Y-101954761D01*
X167337142Y-101907142D01*
X167384761Y-101859523D01*
X167432380Y-101764285D01*
X167432380Y-101573809D01*
X167384761Y-101478571D01*
X167337142Y-101430952D01*
X167241904Y-101383333D01*
X167003809Y-101383333D01*
X166908571Y-101430952D01*
X166860952Y-101478571D01*
X166813333Y-101573809D01*
X166813333Y-101764285D01*
X166860952Y-101859523D01*
X166908571Y-101907142D01*
X167003809Y-101954761D01*
X187666666Y-100952380D02*
X187666666Y-101666666D01*
X187619047Y-101809523D01*
X187523809Y-101904761D01*
X187380952Y-101952380D01*
X187285714Y-101952380D01*
X188666666Y-101952380D02*
X188095238Y-101952380D01*
X188380952Y-101952380D02*
X188380952Y-100952380D01*
X188285714Y-101095238D01*
X188190476Y-101190476D01*
X188095238Y-101238095D01*
X164507142Y-110916666D02*
X164554761Y-110964285D01*
X164602380Y-111107142D01*
X164602380Y-111202380D01*
X164554761Y-111345238D01*
X164459523Y-111440476D01*
X164364285Y-111488095D01*
X164173809Y-111535714D01*
X164030952Y-111535714D01*
X163840476Y-111488095D01*
X163745238Y-111440476D01*
X163650000Y-111345238D01*
X163602380Y-111202380D01*
X163602380Y-111107142D01*
X163650000Y-110964285D01*
X163697619Y-110916666D01*
X164602380Y-109964285D02*
X164602380Y-110535714D01*
X164602380Y-110250000D02*
X163602380Y-110250000D01*
X163745238Y-110345238D01*
X163840476Y-110440476D01*
X163888095Y-110535714D01*
X164266666Y-113531666D02*
X163933333Y-113765000D01*
X164266666Y-113931666D02*
X163566666Y-113931666D01*
X163566666Y-113665000D01*
X163600000Y-113598333D01*
X163633333Y-113565000D01*
X163700000Y-113531666D01*
X163800000Y-113531666D01*
X163866666Y-113565000D01*
X163900000Y-113598333D01*
X163933333Y-113665000D01*
X163933333Y-113931666D01*
X164266666Y-112865000D02*
X164266666Y-113265000D01*
X164266666Y-113065000D02*
X163566666Y-113065000D01*
X163666666Y-113131666D01*
X163733333Y-113198333D01*
X163766666Y-113265000D01*
X114466666Y-95581666D02*
X114133333Y-95815000D01*
X114466666Y-95981666D02*
X113766666Y-95981666D01*
X113766666Y-95715000D01*
X113800000Y-95648333D01*
X113833333Y-95615000D01*
X113900000Y-95581666D01*
X114000000Y-95581666D01*
X114066666Y-95615000D01*
X114100000Y-95648333D01*
X114133333Y-95715000D01*
X114133333Y-95981666D01*
X113766666Y-95348333D02*
X113766666Y-94915000D01*
X114033333Y-95148333D01*
X114033333Y-95048333D01*
X114066666Y-94981666D01*
X114100000Y-94948333D01*
X114166666Y-94915000D01*
X114333333Y-94915000D01*
X114400000Y-94948333D01*
X114433333Y-94981666D01*
X114466666Y-95048333D01*
X114466666Y-95248333D01*
X114433333Y-95315000D01*
X114400000Y-95348333D01*
X110923333Y-80196666D02*
X110690000Y-79863333D01*
X110523333Y-80196666D02*
X110523333Y-79496666D01*
X110790000Y-79496666D01*
X110856666Y-79530000D01*
X110890000Y-79563333D01*
X110923333Y-79630000D01*
X110923333Y-79730000D01*
X110890000Y-79796666D01*
X110856666Y-79830000D01*
X110790000Y-79863333D01*
X110523333Y-79863333D01*
X111523333Y-79730000D02*
X111523333Y-80196666D01*
X111356666Y-79463333D02*
X111190000Y-79963333D01*
X111623333Y-79963333D01*
X134438333Y-95066666D02*
X134205000Y-94733333D01*
X134038333Y-95066666D02*
X134038333Y-94366666D01*
X134305000Y-94366666D01*
X134371666Y-94400000D01*
X134405000Y-94433333D01*
X134438333Y-94500000D01*
X134438333Y-94600000D01*
X134405000Y-94666666D01*
X134371666Y-94700000D01*
X134305000Y-94733333D01*
X134038333Y-94733333D01*
X134705000Y-94433333D02*
X134738333Y-94400000D01*
X134805000Y-94366666D01*
X134971666Y-94366666D01*
X135038333Y-94400000D01*
X135071666Y-94433333D01*
X135105000Y-94500000D01*
X135105000Y-94566666D01*
X135071666Y-94666666D01*
X134671666Y-95066666D01*
X135105000Y-95066666D01*
X134416666Y-77372380D02*
X134416666Y-78086666D01*
X134369047Y-78229523D01*
X134273809Y-78324761D01*
X134130952Y-78372380D01*
X134035714Y-78372380D01*
X135369047Y-77372380D02*
X134892857Y-77372380D01*
X134845238Y-77848571D01*
X134892857Y-77800952D01*
X134988095Y-77753333D01*
X135226190Y-77753333D01*
X135321428Y-77800952D01*
X135369047Y-77848571D01*
X135416666Y-77943809D01*
X135416666Y-78181904D01*
X135369047Y-78277142D01*
X135321428Y-78324761D01*
X135226190Y-78372380D01*
X134988095Y-78372380D01*
X134892857Y-78324761D01*
X134845238Y-78277142D01*
X109288095Y-90202380D02*
X109288095Y-91011904D01*
X109335714Y-91107142D01*
X109383333Y-91154761D01*
X109478571Y-91202380D01*
X109669047Y-91202380D01*
X109764285Y-91154761D01*
X109811904Y-91107142D01*
X109859523Y-91011904D01*
X109859523Y-90202380D01*
X110859523Y-91202380D02*
X110288095Y-91202380D01*
X110573809Y-91202380D02*
X110573809Y-90202380D01*
X110478571Y-90345238D01*
X110383333Y-90440476D01*
X110288095Y-90488095D01*
X106037142Y-95966666D02*
X106084761Y-96014285D01*
X106132380Y-96157142D01*
X106132380Y-96252380D01*
X106084761Y-96395238D01*
X105989523Y-96490476D01*
X105894285Y-96538095D01*
X105703809Y-96585714D01*
X105560952Y-96585714D01*
X105370476Y-96538095D01*
X105275238Y-96490476D01*
X105180000Y-96395238D01*
X105132380Y-96252380D01*
X105132380Y-96157142D01*
X105180000Y-96014285D01*
X105227619Y-95966666D01*
X105227619Y-95585714D02*
X105180000Y-95538095D01*
X105132380Y-95442857D01*
X105132380Y-95204761D01*
X105180000Y-95109523D01*
X105227619Y-95061904D01*
X105322857Y-95014285D01*
X105418095Y-95014285D01*
X105560952Y-95061904D01*
X106132380Y-95633333D01*
X106132380Y-95014285D01*
X116432380Y-77383333D02*
X117146666Y-77383333D01*
X117289523Y-77430952D01*
X117384761Y-77526190D01*
X117432380Y-77669047D01*
X117432380Y-77764285D01*
X116432380Y-76478571D02*
X116432380Y-76669047D01*
X116480000Y-76764285D01*
X116527619Y-76811904D01*
X116670476Y-76907142D01*
X116860952Y-76954761D01*
X117241904Y-76954761D01*
X117337142Y-76907142D01*
X117384761Y-76859523D01*
X117432380Y-76764285D01*
X117432380Y-76573809D01*
X117384761Y-76478571D01*
X117337142Y-76430952D01*
X117241904Y-76383333D01*
X117003809Y-76383333D01*
X116908571Y-76430952D01*
X116860952Y-76478571D01*
X116813333Y-76573809D01*
X116813333Y-76764285D01*
X116860952Y-76859523D01*
X116908571Y-76907142D01*
X117003809Y-76954761D01*
X137666666Y-75952380D02*
X137666666Y-76666666D01*
X137619047Y-76809523D01*
X137523809Y-76904761D01*
X137380952Y-76952380D01*
X137285714Y-76952380D01*
X138666666Y-76952380D02*
X138095238Y-76952380D01*
X138380952Y-76952380D02*
X138380952Y-75952380D01*
X138285714Y-76095238D01*
X138190476Y-76190476D01*
X138095238Y-76238095D01*
X114507142Y-85916666D02*
X114554761Y-85964285D01*
X114602380Y-86107142D01*
X114602380Y-86202380D01*
X114554761Y-86345238D01*
X114459523Y-86440476D01*
X114364285Y-86488095D01*
X114173809Y-86535714D01*
X114030952Y-86535714D01*
X113840476Y-86488095D01*
X113745238Y-86440476D01*
X113650000Y-86345238D01*
X113602380Y-86202380D01*
X113602380Y-86107142D01*
X113650000Y-85964285D01*
X113697619Y-85916666D01*
X114602380Y-84964285D02*
X114602380Y-85535714D01*
X114602380Y-85250000D02*
X113602380Y-85250000D01*
X113745238Y-85345238D01*
X113840476Y-85440476D01*
X113888095Y-85535714D01*
X114266666Y-88531666D02*
X113933333Y-88765000D01*
X114266666Y-88931666D02*
X113566666Y-88931666D01*
X113566666Y-88665000D01*
X113600000Y-88598333D01*
X113633333Y-88565000D01*
X113700000Y-88531666D01*
X113800000Y-88531666D01*
X113866666Y-88565000D01*
X113900000Y-88598333D01*
X113933333Y-88665000D01*
X113933333Y-88931666D01*
X114266666Y-87865000D02*
X114266666Y-88265000D01*
X114266666Y-88065000D02*
X113566666Y-88065000D01*
X113666666Y-88131666D01*
X113733333Y-88198333D01*
X113766666Y-88265000D01*
X164466666Y-95581666D02*
X164133333Y-95815000D01*
X164466666Y-95981666D02*
X163766666Y-95981666D01*
X163766666Y-95715000D01*
X163800000Y-95648333D01*
X163833333Y-95615000D01*
X163900000Y-95581666D01*
X164000000Y-95581666D01*
X164066666Y-95615000D01*
X164100000Y-95648333D01*
X164133333Y-95715000D01*
X164133333Y-95981666D01*
X163766666Y-95348333D02*
X163766666Y-94915000D01*
X164033333Y-95148333D01*
X164033333Y-95048333D01*
X164066666Y-94981666D01*
X164100000Y-94948333D01*
X164166666Y-94915000D01*
X164333333Y-94915000D01*
X164400000Y-94948333D01*
X164433333Y-94981666D01*
X164466666Y-95048333D01*
X164466666Y-95248333D01*
X164433333Y-95315000D01*
X164400000Y-95348333D01*
X160923333Y-80196666D02*
X160690000Y-79863333D01*
X160523333Y-80196666D02*
X160523333Y-79496666D01*
X160790000Y-79496666D01*
X160856666Y-79530000D01*
X160890000Y-79563333D01*
X160923333Y-79630000D01*
X160923333Y-79730000D01*
X160890000Y-79796666D01*
X160856666Y-79830000D01*
X160790000Y-79863333D01*
X160523333Y-79863333D01*
X161523333Y-79730000D02*
X161523333Y-80196666D01*
X161356666Y-79463333D02*
X161190000Y-79963333D01*
X161623333Y-79963333D01*
X184438333Y-95066666D02*
X184205000Y-94733333D01*
X184038333Y-95066666D02*
X184038333Y-94366666D01*
X184305000Y-94366666D01*
X184371666Y-94400000D01*
X184405000Y-94433333D01*
X184438333Y-94500000D01*
X184438333Y-94600000D01*
X184405000Y-94666666D01*
X184371666Y-94700000D01*
X184305000Y-94733333D01*
X184038333Y-94733333D01*
X184705000Y-94433333D02*
X184738333Y-94400000D01*
X184805000Y-94366666D01*
X184971666Y-94366666D01*
X185038333Y-94400000D01*
X185071666Y-94433333D01*
X185105000Y-94500000D01*
X185105000Y-94566666D01*
X185071666Y-94666666D01*
X184671666Y-95066666D01*
X185105000Y-95066666D01*
X184416666Y-77372380D02*
X184416666Y-78086666D01*
X184369047Y-78229523D01*
X184273809Y-78324761D01*
X184130952Y-78372380D01*
X184035714Y-78372380D01*
X185369047Y-77372380D02*
X184892857Y-77372380D01*
X184845238Y-77848571D01*
X184892857Y-77800952D01*
X184988095Y-77753333D01*
X185226190Y-77753333D01*
X185321428Y-77800952D01*
X185369047Y-77848571D01*
X185416666Y-77943809D01*
X185416666Y-78181904D01*
X185369047Y-78277142D01*
X185321428Y-78324761D01*
X185226190Y-78372380D01*
X184988095Y-78372380D01*
X184892857Y-78324761D01*
X184845238Y-78277142D01*
X159288095Y-90202380D02*
X159288095Y-91011904D01*
X159335714Y-91107142D01*
X159383333Y-91154761D01*
X159478571Y-91202380D01*
X159669047Y-91202380D01*
X159764285Y-91154761D01*
X159811904Y-91107142D01*
X159859523Y-91011904D01*
X159859523Y-90202380D01*
X160859523Y-91202380D02*
X160288095Y-91202380D01*
X160573809Y-91202380D02*
X160573809Y-90202380D01*
X160478571Y-90345238D01*
X160383333Y-90440476D01*
X160288095Y-90488095D01*
X156037142Y-95966666D02*
X156084761Y-96014285D01*
X156132380Y-96157142D01*
X156132380Y-96252380D01*
X156084761Y-96395238D01*
X155989523Y-96490476D01*
X155894285Y-96538095D01*
X155703809Y-96585714D01*
X155560952Y-96585714D01*
X155370476Y-96538095D01*
X155275238Y-96490476D01*
X155180000Y-96395238D01*
X155132380Y-96252380D01*
X155132380Y-96157142D01*
X155180000Y-96014285D01*
X155227619Y-95966666D01*
X155227619Y-95585714D02*
X155180000Y-95538095D01*
X155132380Y-95442857D01*
X155132380Y-95204761D01*
X155180000Y-95109523D01*
X155227619Y-95061904D01*
X155322857Y-95014285D01*
X155418095Y-95014285D01*
X155560952Y-95061904D01*
X156132380Y-95633333D01*
X156132380Y-95014285D01*
X166432380Y-77383333D02*
X167146666Y-77383333D01*
X167289523Y-77430952D01*
X167384761Y-77526190D01*
X167432380Y-77669047D01*
X167432380Y-77764285D01*
X166432380Y-76478571D02*
X166432380Y-76669047D01*
X166480000Y-76764285D01*
X166527619Y-76811904D01*
X166670476Y-76907142D01*
X166860952Y-76954761D01*
X167241904Y-76954761D01*
X167337142Y-76907142D01*
X167384761Y-76859523D01*
X167432380Y-76764285D01*
X167432380Y-76573809D01*
X167384761Y-76478571D01*
X167337142Y-76430952D01*
X167241904Y-76383333D01*
X167003809Y-76383333D01*
X166908571Y-76430952D01*
X166860952Y-76478571D01*
X166813333Y-76573809D01*
X166813333Y-76764285D01*
X166860952Y-76859523D01*
X166908571Y-76907142D01*
X167003809Y-76954761D01*
X187666666Y-75952380D02*
X187666666Y-76666666D01*
X187619047Y-76809523D01*
X187523809Y-76904761D01*
X187380952Y-76952380D01*
X187285714Y-76952380D01*
X188666666Y-76952380D02*
X188095238Y-76952380D01*
X188380952Y-76952380D02*
X188380952Y-75952380D01*
X188285714Y-76095238D01*
X188190476Y-76190476D01*
X188095238Y-76238095D01*
X164507142Y-85916666D02*
X164554761Y-85964285D01*
X164602380Y-86107142D01*
X164602380Y-86202380D01*
X164554761Y-86345238D01*
X164459523Y-86440476D01*
X164364285Y-86488095D01*
X164173809Y-86535714D01*
X164030952Y-86535714D01*
X163840476Y-86488095D01*
X163745238Y-86440476D01*
X163650000Y-86345238D01*
X163602380Y-86202380D01*
X163602380Y-86107142D01*
X163650000Y-85964285D01*
X163697619Y-85916666D01*
X164602380Y-84964285D02*
X164602380Y-85535714D01*
X164602380Y-85250000D02*
X163602380Y-85250000D01*
X163745238Y-85345238D01*
X163840476Y-85440476D01*
X163888095Y-85535714D01*
X164266666Y-88531666D02*
X163933333Y-88765000D01*
X164266666Y-88931666D02*
X163566666Y-88931666D01*
X163566666Y-88665000D01*
X163600000Y-88598333D01*
X163633333Y-88565000D01*
X163700000Y-88531666D01*
X163800000Y-88531666D01*
X163866666Y-88565000D01*
X163900000Y-88598333D01*
X163933333Y-88665000D01*
X163933333Y-88931666D01*
X164266666Y-87865000D02*
X164266666Y-88265000D01*
X164266666Y-88065000D02*
X163566666Y-88065000D01*
X163666666Y-88131666D01*
X163733333Y-88198333D01*
X163766666Y-88265000D01*
X164466666Y-70581666D02*
X164133333Y-70815000D01*
X164466666Y-70981666D02*
X163766666Y-70981666D01*
X163766666Y-70715000D01*
X163800000Y-70648333D01*
X163833333Y-70615000D01*
X163900000Y-70581666D01*
X164000000Y-70581666D01*
X164066666Y-70615000D01*
X164100000Y-70648333D01*
X164133333Y-70715000D01*
X164133333Y-70981666D01*
X163766666Y-70348333D02*
X163766666Y-69915000D01*
X164033333Y-70148333D01*
X164033333Y-70048333D01*
X164066666Y-69981666D01*
X164100000Y-69948333D01*
X164166666Y-69915000D01*
X164333333Y-69915000D01*
X164400000Y-69948333D01*
X164433333Y-69981666D01*
X164466666Y-70048333D01*
X164466666Y-70248333D01*
X164433333Y-70315000D01*
X164400000Y-70348333D01*
X160923333Y-55196666D02*
X160690000Y-54863333D01*
X160523333Y-55196666D02*
X160523333Y-54496666D01*
X160790000Y-54496666D01*
X160856666Y-54530000D01*
X160890000Y-54563333D01*
X160923333Y-54630000D01*
X160923333Y-54730000D01*
X160890000Y-54796666D01*
X160856666Y-54830000D01*
X160790000Y-54863333D01*
X160523333Y-54863333D01*
X161523333Y-54730000D02*
X161523333Y-55196666D01*
X161356666Y-54463333D02*
X161190000Y-54963333D01*
X161623333Y-54963333D01*
X184438333Y-70066666D02*
X184205000Y-69733333D01*
X184038333Y-70066666D02*
X184038333Y-69366666D01*
X184305000Y-69366666D01*
X184371666Y-69400000D01*
X184405000Y-69433333D01*
X184438333Y-69500000D01*
X184438333Y-69600000D01*
X184405000Y-69666666D01*
X184371666Y-69700000D01*
X184305000Y-69733333D01*
X184038333Y-69733333D01*
X184705000Y-69433333D02*
X184738333Y-69400000D01*
X184805000Y-69366666D01*
X184971666Y-69366666D01*
X185038333Y-69400000D01*
X185071666Y-69433333D01*
X185105000Y-69500000D01*
X185105000Y-69566666D01*
X185071666Y-69666666D01*
X184671666Y-70066666D01*
X185105000Y-70066666D01*
X184416666Y-52372380D02*
X184416666Y-53086666D01*
X184369047Y-53229523D01*
X184273809Y-53324761D01*
X184130952Y-53372380D01*
X184035714Y-53372380D01*
X185369047Y-52372380D02*
X184892857Y-52372380D01*
X184845238Y-52848571D01*
X184892857Y-52800952D01*
X184988095Y-52753333D01*
X185226190Y-52753333D01*
X185321428Y-52800952D01*
X185369047Y-52848571D01*
X185416666Y-52943809D01*
X185416666Y-53181904D01*
X185369047Y-53277142D01*
X185321428Y-53324761D01*
X185226190Y-53372380D01*
X184988095Y-53372380D01*
X184892857Y-53324761D01*
X184845238Y-53277142D01*
X159288095Y-65202380D02*
X159288095Y-66011904D01*
X159335714Y-66107142D01*
X159383333Y-66154761D01*
X159478571Y-66202380D01*
X159669047Y-66202380D01*
X159764285Y-66154761D01*
X159811904Y-66107142D01*
X159859523Y-66011904D01*
X159859523Y-65202380D01*
X160859523Y-66202380D02*
X160288095Y-66202380D01*
X160573809Y-66202380D02*
X160573809Y-65202380D01*
X160478571Y-65345238D01*
X160383333Y-65440476D01*
X160288095Y-65488095D01*
X156037142Y-70966666D02*
X156084761Y-71014285D01*
X156132380Y-71157142D01*
X156132380Y-71252380D01*
X156084761Y-71395238D01*
X155989523Y-71490476D01*
X155894285Y-71538095D01*
X155703809Y-71585714D01*
X155560952Y-71585714D01*
X155370476Y-71538095D01*
X155275238Y-71490476D01*
X155180000Y-71395238D01*
X155132380Y-71252380D01*
X155132380Y-71157142D01*
X155180000Y-71014285D01*
X155227619Y-70966666D01*
X155227619Y-70585714D02*
X155180000Y-70538095D01*
X155132380Y-70442857D01*
X155132380Y-70204761D01*
X155180000Y-70109523D01*
X155227619Y-70061904D01*
X155322857Y-70014285D01*
X155418095Y-70014285D01*
X155560952Y-70061904D01*
X156132380Y-70633333D01*
X156132380Y-70014285D01*
X166432380Y-52383333D02*
X167146666Y-52383333D01*
X167289523Y-52430952D01*
X167384761Y-52526190D01*
X167432380Y-52669047D01*
X167432380Y-52764285D01*
X166432380Y-51478571D02*
X166432380Y-51669047D01*
X166480000Y-51764285D01*
X166527619Y-51811904D01*
X166670476Y-51907142D01*
X166860952Y-51954761D01*
X167241904Y-51954761D01*
X167337142Y-51907142D01*
X167384761Y-51859523D01*
X167432380Y-51764285D01*
X167432380Y-51573809D01*
X167384761Y-51478571D01*
X167337142Y-51430952D01*
X167241904Y-51383333D01*
X167003809Y-51383333D01*
X166908571Y-51430952D01*
X166860952Y-51478571D01*
X166813333Y-51573809D01*
X166813333Y-51764285D01*
X166860952Y-51859523D01*
X166908571Y-51907142D01*
X167003809Y-51954761D01*
X187666666Y-50952380D02*
X187666666Y-51666666D01*
X187619047Y-51809523D01*
X187523809Y-51904761D01*
X187380952Y-51952380D01*
X187285714Y-51952380D01*
X188666666Y-51952380D02*
X188095238Y-51952380D01*
X188380952Y-51952380D02*
X188380952Y-50952380D01*
X188285714Y-51095238D01*
X188190476Y-51190476D01*
X188095238Y-51238095D01*
X164507142Y-60916666D02*
X164554761Y-60964285D01*
X164602380Y-61107142D01*
X164602380Y-61202380D01*
X164554761Y-61345238D01*
X164459523Y-61440476D01*
X164364285Y-61488095D01*
X164173809Y-61535714D01*
X164030952Y-61535714D01*
X163840476Y-61488095D01*
X163745238Y-61440476D01*
X163650000Y-61345238D01*
X163602380Y-61202380D01*
X163602380Y-61107142D01*
X163650000Y-60964285D01*
X163697619Y-60916666D01*
X164602380Y-59964285D02*
X164602380Y-60535714D01*
X164602380Y-60250000D02*
X163602380Y-60250000D01*
X163745238Y-60345238D01*
X163840476Y-60440476D01*
X163888095Y-60535714D01*
X164266666Y-63531666D02*
X163933333Y-63765000D01*
X164266666Y-63931666D02*
X163566666Y-63931666D01*
X163566666Y-63665000D01*
X163600000Y-63598333D01*
X163633333Y-63565000D01*
X163700000Y-63531666D01*
X163800000Y-63531666D01*
X163866666Y-63565000D01*
X163900000Y-63598333D01*
X163933333Y-63665000D01*
X163933333Y-63931666D01*
X164266666Y-62865000D02*
X164266666Y-63265000D01*
X164266666Y-63065000D02*
X163566666Y-63065000D01*
X163666666Y-63131666D01*
X163733333Y-63198333D01*
X163766666Y-63265000D01*
X110923333Y-55196666D02*
X110690000Y-54863333D01*
X110523333Y-55196666D02*
X110523333Y-54496666D01*
X110790000Y-54496666D01*
X110856666Y-54530000D01*
X110890000Y-54563333D01*
X110923333Y-54630000D01*
X110923333Y-54730000D01*
X110890000Y-54796666D01*
X110856666Y-54830000D01*
X110790000Y-54863333D01*
X110523333Y-54863333D01*
X111523333Y-54730000D02*
X111523333Y-55196666D01*
X111356666Y-54463333D02*
X111190000Y-54963333D01*
X111623333Y-54963333D01*
X116432380Y-52383333D02*
X117146666Y-52383333D01*
X117289523Y-52430952D01*
X117384761Y-52526190D01*
X117432380Y-52669047D01*
X117432380Y-52764285D01*
X116432380Y-51478571D02*
X116432380Y-51669047D01*
X116480000Y-51764285D01*
X116527619Y-51811904D01*
X116670476Y-51907142D01*
X116860952Y-51954761D01*
X117241904Y-51954761D01*
X117337142Y-51907142D01*
X117384761Y-51859523D01*
X117432380Y-51764285D01*
X117432380Y-51573809D01*
X117384761Y-51478571D01*
X117337142Y-51430952D01*
X117241904Y-51383333D01*
X117003809Y-51383333D01*
X116908571Y-51430952D01*
X116860952Y-51478571D01*
X116813333Y-51573809D01*
X116813333Y-51764285D01*
X116860952Y-51859523D01*
X116908571Y-51907142D01*
X117003809Y-51954761D01*
X114466666Y-70581666D02*
X114133333Y-70815000D01*
X114466666Y-70981666D02*
X113766666Y-70981666D01*
X113766666Y-70715000D01*
X113800000Y-70648333D01*
X113833333Y-70615000D01*
X113900000Y-70581666D01*
X114000000Y-70581666D01*
X114066666Y-70615000D01*
X114100000Y-70648333D01*
X114133333Y-70715000D01*
X114133333Y-70981666D01*
X113766666Y-70348333D02*
X113766666Y-69915000D01*
X114033333Y-70148333D01*
X114033333Y-70048333D01*
X114066666Y-69981666D01*
X114100000Y-69948333D01*
X114166666Y-69915000D01*
X114333333Y-69915000D01*
X114400000Y-69948333D01*
X114433333Y-69981666D01*
X114466666Y-70048333D01*
X114466666Y-70248333D01*
X114433333Y-70315000D01*
X114400000Y-70348333D01*
X109288095Y-65202380D02*
X109288095Y-66011904D01*
X109335714Y-66107142D01*
X109383333Y-66154761D01*
X109478571Y-66202380D01*
X109669047Y-66202380D01*
X109764285Y-66154761D01*
X109811904Y-66107142D01*
X109859523Y-66011904D01*
X109859523Y-65202380D01*
X110859523Y-66202380D02*
X110288095Y-66202380D01*
X110573809Y-66202380D02*
X110573809Y-65202380D01*
X110478571Y-65345238D01*
X110383333Y-65440476D01*
X110288095Y-65488095D01*
X134416666Y-52372380D02*
X134416666Y-53086666D01*
X134369047Y-53229523D01*
X134273809Y-53324761D01*
X134130952Y-53372380D01*
X134035714Y-53372380D01*
X135369047Y-52372380D02*
X134892857Y-52372380D01*
X134845238Y-52848571D01*
X134892857Y-52800952D01*
X134988095Y-52753333D01*
X135226190Y-52753333D01*
X135321428Y-52800952D01*
X135369047Y-52848571D01*
X135416666Y-52943809D01*
X135416666Y-53181904D01*
X135369047Y-53277142D01*
X135321428Y-53324761D01*
X135226190Y-53372380D01*
X134988095Y-53372380D01*
X134892857Y-53324761D01*
X134845238Y-53277142D01*
X106037142Y-70966666D02*
X106084761Y-71014285D01*
X106132380Y-71157142D01*
X106132380Y-71252380D01*
X106084761Y-71395238D01*
X105989523Y-71490476D01*
X105894285Y-71538095D01*
X105703809Y-71585714D01*
X105560952Y-71585714D01*
X105370476Y-71538095D01*
X105275238Y-71490476D01*
X105180000Y-71395238D01*
X105132380Y-71252380D01*
X105132380Y-71157142D01*
X105180000Y-71014285D01*
X105227619Y-70966666D01*
X105227619Y-70585714D02*
X105180000Y-70538095D01*
X105132380Y-70442857D01*
X105132380Y-70204761D01*
X105180000Y-70109523D01*
X105227619Y-70061904D01*
X105322857Y-70014285D01*
X105418095Y-70014285D01*
X105560952Y-70061904D01*
X106132380Y-70633333D01*
X106132380Y-70014285D01*
X114507142Y-60916666D02*
X114554761Y-60964285D01*
X114602380Y-61107142D01*
X114602380Y-61202380D01*
X114554761Y-61345238D01*
X114459523Y-61440476D01*
X114364285Y-61488095D01*
X114173809Y-61535714D01*
X114030952Y-61535714D01*
X113840476Y-61488095D01*
X113745238Y-61440476D01*
X113650000Y-61345238D01*
X113602380Y-61202380D01*
X113602380Y-61107142D01*
X113650000Y-60964285D01*
X113697619Y-60916666D01*
X114602380Y-59964285D02*
X114602380Y-60535714D01*
X114602380Y-60250000D02*
X113602380Y-60250000D01*
X113745238Y-60345238D01*
X113840476Y-60440476D01*
X113888095Y-60535714D01*
X137666666Y-50952380D02*
X137666666Y-51666666D01*
X137619047Y-51809523D01*
X137523809Y-51904761D01*
X137380952Y-51952380D01*
X137285714Y-51952380D01*
X138666666Y-51952380D02*
X138095238Y-51952380D01*
X138380952Y-51952380D02*
X138380952Y-50952380D01*
X138285714Y-51095238D01*
X138190476Y-51190476D01*
X138095238Y-51238095D01*
X114266666Y-63531666D02*
X113933333Y-63765000D01*
X114266666Y-63931666D02*
X113566666Y-63931666D01*
X113566666Y-63665000D01*
X113600000Y-63598333D01*
X113633333Y-63565000D01*
X113700000Y-63531666D01*
X113800000Y-63531666D01*
X113866666Y-63565000D01*
X113900000Y-63598333D01*
X113933333Y-63665000D01*
X113933333Y-63931666D01*
X114266666Y-62865000D02*
X114266666Y-63265000D01*
X114266666Y-63065000D02*
X113566666Y-63065000D01*
X113666666Y-63131666D01*
X113733333Y-63198333D01*
X113766666Y-63265000D01*
X134438333Y-70066666D02*
X134205000Y-69733333D01*
X134038333Y-70066666D02*
X134038333Y-69366666D01*
X134305000Y-69366666D01*
X134371666Y-69400000D01*
X134405000Y-69433333D01*
X134438333Y-69500000D01*
X134438333Y-69600000D01*
X134405000Y-69666666D01*
X134371666Y-69700000D01*
X134305000Y-69733333D01*
X134038333Y-69733333D01*
X134705000Y-69433333D02*
X134738333Y-69400000D01*
X134805000Y-69366666D01*
X134971666Y-69366666D01*
X135038333Y-69400000D01*
X135071666Y-69433333D01*
X135105000Y-69500000D01*
X135105000Y-69566666D01*
X135071666Y-69666666D01*
X134671666Y-70066666D01*
X135105000Y-70066666D01*
M02*
