M48
; DRILL file {KiCad 6.0.0-rc1-unknown-b491065~66~ubuntu16.04.1} date Вс 13 янв 2019 12:49:40
; FORMAT={-:-/ absolute / inch / decimal}
; #@! TF.CreationDate,2019-01-13T12:49:40+01:00
; #@! TF.GenerationSoftware,Kicad,Pcbnew,6.0.0-rc1-unknown-b491065~66~ubuntu16.04.1
FMAT,2
INCH
T1C0.0157
T2C0.0315
T3C0.0394
T4C0.0472
%
G90
G05
T1
X3.6106Y-2.8472
X3.6106Y-3.8315
X3.6106Y-4.8157
X3.6106Y-5.8
X3.65Y-2.1504
X3.65Y-3.1346
X3.65Y-4.1189
X3.65Y-5.1031
X3.8193Y-2.8512
X3.8193Y-3.8354
X3.8193Y-4.8197
X3.8193Y-5.8039
X3.8941Y-2.2803
X3.8941Y-3.2646
X3.8941Y-4.2488
X3.8941Y-5.2331
X4.1854Y-2.8591
X4.1854Y-3.8433
X4.1854Y-4.8276
X4.1854Y-5.8118
X4.3732Y-2.5736
X4.3732Y-3.5579
X4.3732Y-4.5421
X4.3732Y-5.5264
X4.4217Y-2.7803
X4.4217Y-3.7646
X4.4217Y-4.7488
X4.4217Y-5.7331
X4.4488Y-2.9055
X4.4488Y-3.8898
X4.4488Y-4.874
X4.4488Y-5.8583
X4.5138Y-2.6909
X4.5138Y-3.6752
X4.5138Y-4.6594
X4.5138Y-5.6437
X4.7996Y-2.8197
X4.7996Y-3.8039
X4.7996Y-4.7882
X4.7996Y-5.7724
X4.8776Y-2.4732
X4.8776Y-3.4575
X4.8776Y-4.4417
X4.8776Y-5.426
X5.0516Y-2.8157
X5.0516Y-3.8
X5.0516Y-4.7843
X5.0516Y-5.7685
X5.3429Y-2.9024
X5.3429Y-3.8866
X5.3429Y-4.8709
X5.3429Y-5.8551
X5.5791Y-2.8472
X5.5791Y-3.8315
X5.5791Y-4.8157
X5.5791Y-5.8
X5.6185Y-2.1504
X5.6185Y-3.1346
X5.6185Y-4.1189
X5.6185Y-5.1031
X5.7878Y-2.8512
X5.7878Y-3.8354
X5.7878Y-4.8197
X5.7878Y-5.8039
X5.8626Y-2.2803
X5.8626Y-3.2646
X5.8626Y-4.2488
X5.8626Y-5.2331
X6.1539Y-2.8591
X6.1539Y-3.8433
X6.1539Y-4.8276
X6.1539Y-5.8118
X6.3417Y-2.5736
X6.3417Y-3.5579
X6.3417Y-4.5421
X6.3417Y-5.5264
X6.3902Y-2.7803
X6.3902Y-3.7646
X6.3902Y-4.7488
X6.3902Y-5.7331
X6.4173Y-2.9055
X6.4173Y-3.8898
X6.4173Y-4.874
X6.4173Y-5.8583
X6.4823Y-2.6909
X6.4823Y-3.6752
X6.4823Y-4.6594
X6.4823Y-5.6437
X6.7681Y-2.8197
X6.7681Y-3.8039
X6.7681Y-4.7882
X6.7681Y-5.7724
X6.8461Y-2.4732
X6.8461Y-3.4575
X6.8461Y-4.4417
X6.8461Y-5.426
X7.0201Y-2.8157
X7.0201Y-3.8
X7.0201Y-4.7843
X7.0201Y-5.7685
X7.3114Y-2.9024
X7.3114Y-3.8866
X7.3114Y-4.8709
X7.3114Y-5.8551
T2
X6.0634Y-2.2539
X6.0634Y-2.5539
X6.1634Y-2.2539
X6.1634Y-2.5539
X6.0634Y-5.2067
X6.0634Y-5.5067
X6.1634Y-5.2067
X6.1634Y-5.5067
X6.0634Y-4.2224
X6.0634Y-4.5224
X6.1634Y-4.2224
X6.1634Y-4.5224
X4.0949Y-2.2539
X4.0949Y-2.5539
X4.1949Y-2.2539
X4.1949Y-2.5539
X4.0949Y-4.2224
X4.0949Y-4.5224
X4.1949Y-4.2224
X4.1949Y-4.5224
X4.0949Y-3.2382
X4.0949Y-3.5382
X4.1949Y-3.2382
X4.1949Y-3.5382
X4.0949Y-5.2067
X4.0949Y-5.5067
X4.1949Y-5.2067
X4.1949Y-5.5067
X6.0634Y-3.2382
X6.0634Y-3.5382
X6.1634Y-3.2382
X6.1634Y-3.5382
T3
X5.7283Y-4.2136
X5.7283Y-4.3136
X5.7283Y-4.4136
X5.7283Y-4.5136
X5.5823Y-5.002
X5.6823Y-5.002
X5.7823Y-5.002
X5.8823Y-5.002
X5.9823Y-5.002
X6.0823Y-5.002
X6.1823Y-5.002
X6.2823Y-5.002
X6.3823Y-5.002
X6.4823Y-5.002
X3.7598Y-3.2293
X3.7598Y-3.3293
X3.7598Y-3.4293
X3.7598Y-3.5293
X5.5823Y-2.0492
X5.6823Y-2.0492
X5.7823Y-2.0492
X5.8823Y-2.0492
X5.9823Y-2.0492
X6.0823Y-2.0492
X6.1823Y-2.0492
X6.2823Y-2.0492
X6.3823Y-2.0492
X6.4823Y-2.0492
X3.6138Y-4.0177
X3.7138Y-4.0177
X3.8138Y-4.0177
X3.9138Y-4.0177
X4.0138Y-4.0177
X4.1138Y-4.0177
X4.2138Y-4.0177
X4.3138Y-4.0177
X4.4138Y-4.0177
X4.5138Y-4.0177
X3.6138Y-3.0335
X3.7138Y-3.0335
X3.8138Y-3.0335
X3.9138Y-3.0335
X4.0138Y-3.0335
X4.1138Y-3.0335
X4.2138Y-3.0335
X4.3138Y-3.0335
X4.4138Y-3.0335
X4.5138Y-3.0335
X7.2736Y-4.1437
X7.2736Y-4.2437
X7.2736Y-4.3437
X5.7283Y-2.2451
X5.7283Y-2.3451
X5.7283Y-2.4451
X5.7283Y-2.5451
X7.2736Y-3.1594
X7.2736Y-3.2594
X7.2736Y-3.3594
X5.3051Y-3.1594
X5.3051Y-3.2594
X5.3051Y-3.3594
X5.3051Y-4.1437
X5.3051Y-4.2437
X5.3051Y-4.3437
X7.2736Y-5.128
X7.2736Y-5.228
X7.2736Y-5.328
X5.7283Y-3.2293
X5.7283Y-3.3293
X5.7283Y-3.4293
X5.7283Y-3.5293
X7.3953Y-3.2583
X7.3953Y-3.3583
X7.3953Y-3.4583
X7.3953Y-3.5583
X7.3953Y-3.6583
X7.3953Y-3.7583
X7.3953Y-3.8583
X3.6152Y-4.2136
X3.6152Y-4.3136
X3.6152Y-4.4136
X3.6152Y-4.5136
X5.4268Y-2.274
X5.4268Y-2.374
X5.4268Y-2.474
X5.4268Y-2.574
X5.4268Y-2.674
X5.4268Y-2.774
X5.4268Y-2.874
X3.7598Y-2.2451
X3.7598Y-2.3451
X3.7598Y-2.4451
X3.7598Y-2.5451
X3.6152Y-2.2451
X3.6152Y-2.3451
X3.6152Y-2.4451
X3.6152Y-2.5451
X5.5823Y-4.0177
X5.6823Y-4.0177
X5.7823Y-4.0177
X5.8823Y-4.0177
X5.9823Y-4.0177
X6.0823Y-4.0177
X6.1823Y-4.0177
X6.2823Y-4.0177
X6.3823Y-4.0177
X6.4823Y-4.0177
X3.7598Y-4.2136
X3.7598Y-4.3136
X3.7598Y-4.4136
X3.7598Y-4.5136
X5.4268Y-3.2583
X5.4268Y-3.3583
X5.4268Y-3.4583
X5.4268Y-3.5583
X5.4268Y-3.6583
X5.4268Y-3.7583
X5.4268Y-3.8583
X5.5837Y-5.1978
X5.5837Y-5.2978
X5.5837Y-5.3978
X5.5837Y-5.4978
X7.3953Y-2.274
X7.3953Y-2.374
X7.3953Y-2.474
X7.3953Y-2.574
X7.3953Y-2.674
X7.3953Y-2.774
X7.3953Y-2.874
X5.5837Y-4.2136
X5.5837Y-4.3136
X5.5837Y-4.4136
X5.5837Y-4.5136
X3.7598Y-5.1978
X3.7598Y-5.2978
X3.7598Y-5.3978
X3.7598Y-5.4978
X3.6138Y-5.002
X3.7138Y-5.002
X3.8138Y-5.002
X3.9138Y-5.002
X4.0138Y-5.002
X4.1138Y-5.002
X4.2138Y-5.002
X4.3138Y-5.002
X4.4138Y-5.002
X4.5138Y-5.002
X5.3051Y-5.128
X5.3051Y-5.228
X5.3051Y-5.328
X5.5837Y-2.2451
X5.5837Y-2.3451
X5.5837Y-2.4451
X5.5837Y-2.5451
X7.3953Y-5.2268
X7.3953Y-5.3268
X7.3953Y-5.4268
X7.3953Y-5.5268
X7.3953Y-5.6268
X7.3953Y-5.7268
X7.3953Y-5.8268
X3.6152Y-3.2293
X3.6152Y-3.3293
X3.6152Y-3.4293
X3.6152Y-3.5293
X7.2736Y-2.1752
X7.2736Y-2.2752
X7.2736Y-2.3752
X3.6138Y-2.0492
X3.7138Y-2.0492
X3.8138Y-2.0492
X3.9138Y-2.0492
X4.0138Y-2.0492
X4.1138Y-2.0492
X4.2138Y-2.0492
X4.3138Y-2.0492
X4.4138Y-2.0492
X4.5138Y-2.0492
X5.3051Y-2.1752
X5.3051Y-2.2752
X5.3051Y-2.3752
X5.7283Y-5.1978
X5.7283Y-5.2978
X5.7283Y-5.3978
X5.7283Y-5.4978
X5.5837Y-3.2293
X5.5837Y-3.3293
X5.5837Y-3.4293
X5.5837Y-3.5293
X5.5823Y-3.0335
X5.6823Y-3.0335
X5.7823Y-3.0335
X5.8823Y-3.0335
X5.9823Y-3.0335
X6.0823Y-3.0335
X6.1823Y-3.0335
X6.2823Y-3.0335
X6.3823Y-3.0335
X6.4823Y-3.0335
X5.4268Y-5.2268
X5.4268Y-5.3268
X5.4268Y-5.4268
X5.4268Y-5.5268
X5.4268Y-5.6268
X5.4268Y-5.7268
X5.4268Y-5.8268
X5.4268Y-4.2425
X5.4268Y-4.3425
X5.4268Y-4.4425
X5.4268Y-4.5425
X5.4268Y-4.6425
X5.4268Y-4.7425
X5.4268Y-4.8425
X7.3953Y-4.2425
X7.3953Y-4.3425
X7.3953Y-4.4425
X7.3953Y-4.5425
X7.3953Y-4.6425
X7.3953Y-4.7425
X7.3953Y-4.8425
X3.6152Y-5.1978
X3.6152Y-5.2978
X3.6152Y-5.3978
X3.6152Y-5.4978
T4
X5.6969Y-5.6713
X5.6969Y-5.8091
X5.6969Y-2.7185
X5.6969Y-2.8563
X3.7283Y-2.7185
X3.7283Y-2.8563
X5.6969Y-3.7028
X5.6969Y-3.8406
X3.7283Y-3.7028
X3.7283Y-3.8406
X5.6969Y-4.687
X5.6969Y-4.8248
X3.7283Y-4.687
X3.7283Y-4.8248
X3.7283Y-5.6713
X3.7283Y-5.8091
T0
M30
